<?xml version="1.0" standalone="no"?>
<!DOCTYPE svg PUBLIC "-//W3C//DTD SVG 1.1//EN" "http://www.w3.org/Graphics/SVG/1.1/DTD/svg11.dtd" >
<svg>
<metadata>
Created by FontForge 20120731 at Sun Jun 30 18:45:57 2019
 By www
Copyright (c) 2015 by Emily Spadoni / Sweet Type. All rights reserved.
</metadata>
<defs>
<font id="Storybook" horiz-adv-x="446" >
  <font-face 
    font-family="Storybook"
    font-weight="400"
    font-stretch="normal"
    units-per-em="1000"
    panose-1="0 0 0 0 0 0 0 0 0 0"
    ascent="800"
    descent="-200"
    x-height="248"
    cap-height="544"
    bbox="-272 -265 974 660"
    underline-thickness="0"
    underline-position="-1"
    unicode-range="U+000D-2122"
  />
<missing-glyph horiz-adv-x="530" 
 />
    <glyph glyph-name=".notdef" horiz-adv-x="530" 
 />
    <glyph glyph-name=".null" horiz-adv-x="0" 
 />
    <glyph glyph-name="nonmarkingreturn" unicode="&#xd;" horiz-adv-x="0" 
 />
    <glyph glyph-name="NULL" horiz-adv-x="0" 
 />
    <glyph glyph-name="NULL" horiz-adv-x="0" 
 />
    <glyph glyph-name="space" unicode=" " horiz-adv-x="183" 
 />
    <glyph glyph-name="exclam" unicode="!" horiz-adv-x="185" 
d="M118 529q8 0 12 -7q-3 -30 -14 -112t-14 -108l-12 -82q0 -4 -10 -74q-2 -1 -5 -1h-1q-4 2 -6 5q4 54 9.5 163.5t6.5 129.5q3 60 5 73q13 13 29 13zM79 71q0 10 -7 12h-3q-13 0 -13 -16q0 -9 10 -9q13 0 13 13z" />
    <glyph glyph-name="quotedbl" unicode="&#x22;" horiz-adv-x="345" 
d="M80 476q-3 0 -3 25q0 22 -1 29q3 8 12 9h3q6 0 8 -8v-1q0 -8 -7 -31t-11 -23h-1zM139 532q-7 -40 -20 -55h-2q-2 0 -4 1q2 8 3 26v4q0 11 0.5 16t3.5 9t9 6h3q3 1 4.5 -1t2.5 -6z" />
    <glyph glyph-name="numbersign" unicode="#" horiz-adv-x="306" 
d="M148 379l-5 -29q-5 -28 -9 -45q29 -11 58 -16l6 30q10 50 12 59q3 2 9 3h4q4 0 6 -2l-10 -49q-2 -7 -4.5 -22t-3.5 -22q5 -1 16 -1q33 -3 47 8t5 12q-1 4 1 6.5t6 2.5t7 -4v-2q1 -7 -17 -18q-17 -11 -46 -11h-20q-3 -12 -7.5 -35.5t-6.5 -31.5q7 -1 22 -1q34 -3 48 8
q13 10 5 11q-4 10 6 10q5 0 7 -5v-2q1 -7 -16 -17q-17 -11 -46 -11h-10q-12 0 -17 1q-1 -7 -4 -26.5t-6 -36t-3 -17.5q-3 -1 -8 -1h-3q-7 2 -8 6q0 7 14 77q-11 2 -30 9t-28 9q-1 -1 -1 -4q-8 -38 -12 -66q-4 -25 -4 -29q-3 -1 -8 -1h-3q-6 0 -8 5q0 3 6 31q4 28 12 67v1
q-51 10 -65 1q-9 -5 -5 -6q1 -5 -5.5 -7.5t-8.5 2.5l-1 1q0 5 9 10q18 11 77 4l13 69q-53 12 -71 2q-8 -4 -5 -7q1 -4 -2 -6.5t-7.5 -2t-5.5 3.5v2q0 4 10 10q9 6 37.5 6.5t44.5 -3.5l2 11q10 50 12 58q8 4 13 4q2 0 5 -3zM120 230q7 -2 27 -7.5t32 -7.5l3 14q2 9 4 26t4 26
q-27 5 -44 13q-4 1 -7 2l-6 2z" />
    <glyph glyph-name="dollar" unicode="$" horiz-adv-x="254" 
d="M174 432q41 -3 41 -46q0 -19 -12 -35t-27 -18q-12 -2 -24 6t-6 18q1 2 5 2t5.5 -2.5t-0.5 -6.5q-4 -1 0 -8q5 -8 19 -7q16 2 23 21.5t2 40.5q-8 39 -41 31q-23 -5 -35.5 -33.5t-0.5 -57.5q7 -17 17.5 -33.5t25 -36.5t21.5 -31q17 -29 13 -61t-23 -55q-25 -30 -62 -33
q1 -4 1 -16q0 -9 -1 -15v-8.5v-8v-6t-1 -5.5t-2.5 -4t-4 -2.5t-5.5 -0.5q-4 0 -5 3q0 6 5.5 32.5t5.5 30.5q-30 0 -47 15.5t-17 44.5q0 21 17 38.5t34 19.5q24 1 32 -13q7 -15 2 -19t-8.5 1.5t-1.5 9.5q4 -1 4 2q0 2 -3 7q-6 11 -24 9q-19 -1 -28.5 -24t-2.5 -48
q12 -48 52 -40q39 8 54 56q6 22 0 40q-4 19 -17 38q-19 32 -49 68q-35 48 -12 94t74 46v30l2 30q10 5 13 5q2 -1 4 -3v-1q0 -5 -6 -31.5t-6 -29.5z" />
    <glyph glyph-name="percent" unicode="%" horiz-adv-x="375" 
d="M68 437q32 0 58 -22t26 -53q98 19 133 54q7 11 8 13q2 0 4 -2.5t4 -6t2 -4.5q-155 -278 -205 -378q-1 -3 -2.5 -5.5t-1.5 -4.5l-1 -1q-5 0 -7 6q0 4 -2 10q15 29 56 103.5t59 110.5q9 17 26 46.5t29 52t22 43.5q-52 -28 -117 -41q-2 -1 -6 -1q4 -38 -12 -70t-43 -44
q-8 -3 -14 -3q-23 0 -39.5 15t-16.5 37q0 20 13 34.5t31 16.5q5 -1 9 -6.5t4 -11.5q-14 -3 -18 -39t14 -41q29 -7 50.5 33.5t17.5 77.5q-26 -2 -38 -2q-78 0 -78 56q3 27 35 27zM272 21q-26 0 -44 16.5t-18 41.5q0 30 19 45q-9 13 -10 30t8 30q13 16 39 16q67 0 67 -77
q16 11 15 18q1 1 4 1l2 -2q-3 -9 -21 -21q0 -36 -17 -67t-44 -31zM248 75q-5 -44 21 -49q23 -4 41.5 27t18.5 63q-44 -19 -69 -13q-2 1 -6 1q-4 -10 -6 -29zM261 135q12 0 12 -11q-4 -1 -10 -5q11 -11 32 -11t34 12q-4 52 -29 63q-26 15 -42 -4.5t-5 -44.5q3 1 8 1zM148 361
q0 20 -22 44q-19 19 -45 19q-23 0 -18 -27q7 -42 70 -37q10 0 15 1z" />
    <glyph glyph-name="ampersand" unicode="&#x26;" 
d="M178 382q-12 45 14.5 76.5t69.5 31.5q15 0 30 -4q25 -9 39.5 -28t4.5 -45q-8 -20 -33.5 -23.5t-35.5 18.5q-7 16 1 25q4 5 11 -2q7 -5 2 -12q-11 0 -10 -12q1 -11 20 -13q15 -1 22.5 9t9.5 30q3 41 -31 50q-42 8 -64 -23.5t-18 -78.5q30 -4 54 -17t15 -31
q-8 -14 -25.5 -12t-33.5 10.5t-24 17.5t-14 20q-16 -6 -24 -13q-42 -32 -54 -102q-12 -61 -0.5 -117.5t40.5 -92.5q24 -32 63 -41q121 -23 180 90q15 32 19.5 68.5t-11 65t-54.5 25.5q-46 -9 -63 -61q-12 -31 -3.5 -56.5t33.5 -29.5q20 -4 34 9t15 32q0 20 -17 6
q-9 4 -6.5 13t10.5 9q20 0 18 -27q-1 -23 -16.5 -36t-41.5 -9q-30 9 -47 33t-13 59q5 40 40 56.5t83 3.5q47 -12 47 -79q0 -50 -25.5 -92.5t-62.5 -65.5q-39 -23 -80 -23q-61 0 -109 29t-73 72q-26 44 -28 97v7q0 73 38.5 125t102.5 58h1zM271 342q10 12 -13.5 22t-45.5 10
q6 -25 25 -35q22 -11 34 3z" />
    <glyph glyph-name="quotesingle" unicode="'" horiz-adv-x="76" 
d="M34 473q-5 30 -5 54v1q9 9 18 9q5 0 6 -6q0 -8 -6 -29q-6 -29 -10 -29h-3z" />
    <glyph glyph-name="parenleft" unicode="(" horiz-adv-x="193" 
d="M136 -14q-112 84 -112 262q0 97 36 173t97 124l6 -2h1v-2q-50 -45 -75 -139.5t-19 -197.5t43 -174q11 -22 29 -40q0 -4 -6 -4z" />
    <glyph glyph-name="parenright" unicode=")" horiz-adv-x="236" 
d="M54 545q110 -84 110 -263q0 -96 -36 -173t-97 -123q-5 0 -7 2v1q35 32 55 79q37 91 37.5 219t-41.5 213q-12 26 -27 41q0 1 6 4z" />
    <glyph glyph-name="asterisk" unicode="*" horiz-adv-x="158" 
d="M81 481q-54 -5 -54 8v1q1 5 6 7t13 0.5t14.5 -3t13.5 -4.5l8 -2q-20 46 0 49h2q10 0 9 -20l-2 -27q1 1 3.5 2.5t9 6t12.5 7t12 4.5t9.5 -0.5t3.5 -8.5q0 -14 -46 -21q40 -30 28 -40q-4 -1 -6.5 -2t-6 2.5l-6 6t-5.5 8t-4.5 8.5l-3.5 7l-2 5l-5 -13q-6 -12 -12 -21t-10 -9
q-9 1 -8.5 8.5t8.5 17.5q3 4 6.5 8t5.5 7t4 5z" />
    <glyph glyph-name="plus" unicode="+" horiz-adv-x="185" 
d="M99 149q-7 -5 -14 -5q-2 0 -3 1v27q0 22 1 34v4h-4q-21 0 -31 -1h-27q-2 3 -2 8q0 6 1 8q16 0 27 1h36v58q7 9 14 9q3 0 4 -1q0 -10 -1 -28v-38q6 0 17 0.5t16 1.5h27q2 -4 2 -7q0 -1 -2 -9q-6 2 -60 -2v-34q-1 -10 -1 -27z" />
    <glyph glyph-name="comma" unicode="," horiz-adv-x="94" 
d="M22 54q0 13 14 13q13 -2 13 -13q0 -13 -7.5 -24t-16.5 -15q-1 1 0 2v3q4 1 8.5 9t3.5 12q-13 -3 -15 12v1z" />
    <glyph glyph-name="hyphen" unicode="-" horiz-adv-x="212" 
d="M42 218q0 9 10 15q4 -1 50 -1h71q1 -1 1 -3q0 -9 -5 -16q-36 -1 -79 0q-44 0 -47 -1q-1 2 -1 6z" />
    <glyph glyph-name="period" unicode="." horiz-adv-x="83" 
d="M25 29q-12 0 -12 14q0 13 11 13q5 0 9.5 -5t4.5 -10t-4.5 -8.5t-8.5 -3.5z" />
    <glyph glyph-name="slash" unicode="/" horiz-adv-x="302" 
d="M273 543q-56 -130 -205 -463l-29 -64q-6 -2 -8 5q-2 4 -4 10q1 1 30 67q28 61 94.5 213t99.5 223q6 12 9 21q4 1 7 -4q2 -2 6 -8z" />
    <glyph glyph-name="zero" unicode="0" horiz-adv-x="354" 
d="M163 11q-69 0 -103 57.5t-34 140.5v5q0 116 64 199q42 57 107 56h4q43 -1 72 -31.5t40.5 -73t11.5 -92.5v-4q-3 -121 -60 -201q-40 -54 -102 -56zM78 210q0 -45 7.5 -85.5t29.5 -73.5t55 -34h3q34 0 62 33.5t42 71.5t22 80q7 34 8 65v25q0 71 -23.5 121t-76.5 51h-3
q-74 0 -109 -127q-15 -59 -17 -126v-1z" />
    <glyph glyph-name="one" unicode="1" horiz-adv-x="192" 
d="M102 12q-15 0 -19.5 11.5t-4.5 43.5q2 106 37 313q6 34 6 38q-33 -50 -63 -64q-17 -7 -26 -7.5t-11 6.5q0 6 7.5 8t10.5 -5q-3 -10 32 11q36 22 63 97q4 2 6 1q6 0 12.5 -7.5t7.5 -12.5q-5 -23 -10 -62q-17 -101 -29 -225q-4 -45 -2 -85q0 -39 13 -41q0 -9 -9 -14.5
t-21 -5.5z" />
    <glyph glyph-name="two" unicode="2" horiz-adv-x="348" 
d="M199 479q122 0 122 -124q0 -43 -16 -91q-46 -136 -139 -208q1 0 22 -12t30.5 -15.5t27.5 -9t30.5 -1.5t22.5 15q11 12 -4 14q-2 3 0.5 8.5t7.5 7t9 -3.5q5 -9 -8 -28q-13 -17 -46 -19h-1q-9 0 -19 2t-17.5 4.5t-18 7.5t-16 7.5t-16 8.5t-13.5 8q-34 -23 -63 -23
q-25 0 -44.5 8.5t-19.5 26.5q0 22 25 28t45 -3q9 -3 24.5 -11t21.5 -10q69 62 108 187q12 38 17.5 78.5t-4 81.5t-39.5 54q-38 18 -90 -6q-53 -26 -71 -73q-18 -51 -9 -94q11 -42 46 -48q30 -5 42 15q13 18 0 16q-4 4 -1.5 9.5t8 6.5t9.5 -2q6 -5 -9 -29q-15 -23 -53 -19
q-41 4 -57.5 50t3.5 93q15 33 43 55q52 38 110 38zM139 61q-51 30 -76 27q-28 -1 -15 -25q11 -23 47 -21q20 0 44 19z" />
    <glyph glyph-name="three" unicode="3" horiz-adv-x="302" 
d="M234 364q2 54 -36.5 88.5t-90.5 11.5q-34 -15 -48.5 -55.5t1.5 -85.5q10 -25 36.5 -35.5t49.5 9.5q17 19 1 20q-2 6 5 10.5t11 -1.5q5 -6 -13 -29q-19 -18 -45.5 -14t-45.5 20q-27 25 -27 60q0 47 32.5 79.5t81.5 32.5q55 0 92 -28t37 -77v-6q-3 -83 -83 -129
q50 -34 54 -101q3 -54 -29 -90.5t-87 -36.5q-66 0 -80 27q-13 25 -9 30q4 7 10 1q7 -4 3 -10q-13 2 3 -21q15 -22 56 -23q38 -1 62.5 33t26 77.5t-10.5 83.5q-5 13 -12 24q-36 -15 -58 -11q-14 2 -19 6.5t-2 11.5q6 13 30 15t39 -5q65 47 65 118zM131 249q-18 -1 -20 -10
q-1 -7 12 -9q17 -3 40 11q-14 8 -32 8z" />
    <glyph glyph-name="four" unicode="4" horiz-adv-x="327" 
d="M222 245q9 11 16 11q3 0 5 -2v-6q0 -29 -11 -114q22 0 43 11q17 8 5 14q0 6 8 11q3 3 8.5 1.5t5.5 -6.5q0 -6 -14 -18q-17 -15 -44 -16h-12q-9 -74 -25 -123q-5 -3 -9 -3q-14 0 -17 10q9 22 26 118q-16 3 -32 11q-31 15 -60 27q-20 -22 -43 -26q-49 -12 -49 24
q0 17 23.5 19.5t40.5 -3.5q21 21 44 77q39 101 46 187q7 7 19 7h1q12 0 20 -5q-6 -24 -17 -79q-27 -122 -77 -190q-1 -1 -2.5 -3.5t-2.5 -3.5q16 -6 46 -19t44 -18q14 98 14 107zM31 171q4 -11 15.5 -9t22 8t16.5 12q-24 8 -46 0q-11 -4 -8 -11z" />
    <glyph glyph-name="five" unicode="5" horiz-adv-x="311" 
d="M34 120q0 -41 19.5 -70.5t55.5 -29.5q38 -2 64 36.5t43 89.5q20 60 20 124q-2 60 -30 70q-33 12 -60 -12q-26 -21 -50 -36q-6 -1 -16 9q-7 12 -4 88q3 59 8 68h2q6 0 73 -16q2 0 11.5 -2t15 -3t15 -2.5t16 -1t13 1.5t10 4t3.5 8q1 3 5.5 3t8 -2.5t1.5 -6.5q-3 -5 -9 -8
t-14.5 -4.5t-17 -1.5t-19 1.5t-19 3t-20 4t-17.5 4t-15.5 4.5t-10.5 3q-11 -89 -7 -135q12 18 45.5 35t59.5 8q68 -19 68 -119q0 -73 -35 -132.5t-90 -78.5q-19 -8 -46 -8h-2q-42 0 -65 28.5t-23 73.5q1 43 22 75t59 21q17 -5 26.5 -20t7.5 -33q-3 -27 -31 -33q-17 -4 -27 7
t-5 17q3 4 9 2t5 -7q-7 -4 -2 -12q8 -8 16 -5q24 8 15 46q-8 34 -33 37t-38 -29q-12 -30 -11 -64z" />
    <glyph glyph-name="six" unicode="6" horiz-adv-x="292" 
d="M154 5q-114 7 -114 167q0 117 62 219q37 58 84 58h4q14 -1 29.5 -9t12.5 -18q-1 -8 -8 -7q-8 2 -6 8q8 3 0 12q-7 8 -21 8q-29 2 -52.5 -31t-35.5 -82.5t-17.5 -100t-3.5 -87.5q7 -128 69 -133q22 -1 45 23q22 26 38.5 64t18.5 75q1 23 -8.5 33.5t-23.5 7t-26 -18.5
q-39 -51 -47 -120q-5 -33 8 -38q0 -4 -4 -5q-4 -2 -8 -1q-13 6 -13 33q3 67 48 129q12 17 28 26t30 3t18 -30q1 -6 1 -18q0 -66 -44 -129q-27 -38 -61 -38h-3z" />
    <glyph glyph-name="seven" unicode="7" horiz-adv-x="279" 
d="M239 445q5 -2 13 -13.5t8 -18.5v-1q-15 -14 -39 -64q-42 -88 -80 -209q-9 -28 -14 -56.5t3 -40.5q4 -4 -1.5 -10t-14 -11t-13.5 -5q-14 0 -15 22t7 55t14.5 55t12.5 38q40 122 94 222q10 17 15 23q-30 -14 -81 -20.5t-93 -0.5q-34 5 -34 19q2 8 11 8t10 -7
q-10 -15 33.5 -17.5t65.5 2.5q67 10 98 30z" />
    <glyph glyph-name="eight" unicode="8" horiz-adv-x="296" 
d="M132 11q-43 1 -71 25.5t-28 66.5q0 28 14 59t25 46.5t34 44.5l8 10q-1 1 -26 29q-23 25 -32.5 58t1 64t42.5 44q34 14 63 14q51 0 61 -28q8 -20 0 -26q-4 -3 -10 4q-5 8 -1 11q13 1 3 16q-13 18 -42 19.5t-50 -12.5q-25 -15 -30 -44.5t11 -57.5q11 -20 41 -56
q8 10 46.5 49t44.5 47q3 2 7 2t5 -3q-4 -7 -23 -27.5t-42.5 -44t-31.5 -32.5q33 -37 71 -77q40 -41 40 -91v-9q-4 -46 -40 -74t-85 -27h-5zM113 244q-48 -58 -61 -87q-19 -44 -6 -83q11 -37 51.5 -49t74.5 13q12 10 22 25q33 62 -31 141q-14 16 -42 50z" />
    <glyph glyph-name="nine" unicode="9" horiz-adv-x="295" 
d="M186 9q-12 0 -16 9t-4 32q2 83 28 209q13 63 14 83q-21 -44 -67 -86q-30 -26 -55 -20q-45 13 -56 59q-2 18 -2 27q0 59 41.5 100.5t102.5 41.5q72 0 93 -38q8 -15 8 -25q2 -8 -5 -8q-9 -1 -9 9v2q11 2 -3 24q-16 26 -55.5 29.5t-66.5 -18.5q-25 -21 -41.5 -62.5
t-15.5 -83.5q3 -69 46 -44q47 30 91 115q9 8 20.5 0.5t12.5 -14.5q-3 -3 -14 -46q-13 -53 -29 -164.5t2 -112.5q3 -6 -5 -12t-15 -6z" />
    <glyph glyph-name="colon" unicode=":" horiz-adv-x="111" 
d="M31 220q0 13 12 13q5 0 9.5 -4.5t4.5 -9.5t-4.5 -8.5t-8.5 -3.5q-13 0 -13 13zM35 82q-13 0 -13 13t12 13q4 0 9 -5t5 -9t-3.5 -7.5t-5.5 -3.5q-1 -1 -4 -1z" />
    <glyph glyph-name="semicolon" unicode=";" horiz-adv-x="104" 
d="M32 77q0 14 13 14q15 -2 13 -14q0 -27 -23 -39q-1 1 -1 2t7 10t6 14q-13 -3 -15 12v1zM52 201q-12 0 -12 13q0 9 9 13q2 0 3 1q4 0 8.5 -5.5t4.5 -10.5q-7 -11 -8 -11h-5z" />
    <glyph glyph-name="less" unicode="&#x3c;" horiz-adv-x="199" 
d="M172 192q0 -7 -5.5 -17.5t-10.5 -10.5q-5 5 -15 12.5t-22.5 16t-18.5 13.5q-66 45 -79 58l2 1q2 1 7 3t10 5q16 8 60.5 32t64.5 34q7 -2 7 -6q-4 -1 -52 -27q-24 -12 -45 -24q-22 -11 -23 -12q13 -6 29.5 -16.5t36.5 -23t29 -18.5q6 -3 11.5 -6.5t8.5 -5.5t4 -2
q1 -1 1 -6z" />
    <glyph glyph-name="equal" unicode="=" horiz-adv-x="248" 
d="M43 218q0 8 10 13h28q17 -1 55 -1h65q1 -1 1 -3q0 -5 -6 -14q-7 -1 -24 -1h-5q-22 0 -34 1h-60q-27 2 -29 0q-1 2 -1 5zM208 269q0 -7 -6 -15h-62q-21 1 -60 1q-27 1 -30 0q-1 1 -1 5q0 6 10 13q12 0 29 -1h54q25 0 37 -1h29v-2z" />
    <glyph glyph-name="greater" unicode="&#x3e;" horiz-adv-x="221" 
d="M60 163q-5 1 -10 11t-5 18q0 4 1 6q6 2 14.5 7t19.5 12.5t16 10.5q66 40 69 42l-18 8q-14 8 -45 24.5t-33 17.5q-6 3 -11.5 6t-8.5 5t-4 2q0 2 2 4q3 0 5 1q66 -35 84 -43q40 -23 59 -32q-21 -14 -68.5 -50.5t-66.5 -49.5z" />
    <glyph glyph-name="question" unicode="?" horiz-adv-x="345" 
d="M199 487q47 0 77 -21t30 -64q0 -42 -20 -73.5t-45.5 -48t-57.5 -40t-47 -44.5q-6 -8 -11.5 -19t-8 -25.5t6.5 -20.5q9 -7 12 5q8 5 11 -5q1 -8 -9 -9q-19 0 -29 16.5t-4 36.5q9 35 45 61q71 50 100 103q10 21 13.5 46.5t-4.5 50.5q-12 27 -40 38.5t-64 4.5
q-46 -9 -75 -41.5t-10 -76.5q17 -41 49 -47q27 -4 38 12t0 19q-5 6 4 11q8 3 11 -2q7 -11 -12 -30q-16 -18 -52 -13q-45 8 -57 45q-5 13 -5 25q0 34 26 59t62 37q30 10 66 10zM136 78q0 10 -7 12h-3q-15 0 -15 -16q3 -8 8 -10h3q14 0 14 14z" />
    <glyph glyph-name="at" unicode="@" 
d="M224 386q74 0 117.5 -40.5t40.5 -111.5q-2 -36 -18.5 -69t-43.5 -33q-20 0 -36 16q-17 14 -25 40q-9 22 -9 28l-2 -6q-3 -5 -8.5 -16l-11.5 -23q-16 -30 -32 -36.5t-36 11.5q-10 10 -14 20q-15 41 13.5 80.5t68.5 45.5q16 3 37 -2q31 -9 38 -36q-1 -4 -4.5 -3.5t-4.5 3.5
q2 9 -8 19t-20 12q-20 5 -37 -13q-41 -36 -51 -100q-4 -30 9 -33q18 -4 40 39l27 54q10 10 19 7q12 -2 16 -12q-11 -7 4 -50t28 -41q23 1 38 34t16 66q0 64 -34.5 101t-96.5 42q-81 8 -128 -74q-31 -53 -31.5 -119.5t35.5 -113.5q25 -30 68 -40.5t92 5.5q48 17 78 49
q27 30 6 27q-8 9 3 15q12 2 15 -9q0 -10 -14 -29q-22 -28 -60.5 -48t-82.5 -20h-18q-73 8 -119 52.5t-46 116.5q0 67 33.5 115.5t88.5 68.5q28 11 60 11z" />
    <glyph glyph-name="A" unicode="A" horiz-adv-x="552" 
d="M507 25q0 -44 -27 -44t-50 50q-38 87 -58 214q-50 29 -84 37q-37 -202 -134 -269q-25 -18 -58 -24.5t-65 7.5q-17 11 -17 23v1q1 13 13.5 11t12.5 -12q-7 -6 4 -19q13 -13 39 -10q43 4 78 57q49 75 101 240l-18 2q-52 6 -80 -16q-25 -22 -2 -28q2 -9 -5.5 -16t-15.5 1
q-16 16 15 42q38 34 107 19q44 157 70 217q11 22 21 32q4 1 13 1q14 0 24.5 -5t9.5 -15q-16 -74 17 -244q10 -50 15 -74q74 -86 74 -175v-3zM295 313q-1 -7 -3 -13.5t-3 -13.5q42 -11 70 -26l12 -7q-12 64 -19 178q-2 36 -1 49q0 18 2 34q-16 -11 -26 -49q-11 -37 -32 -152z
M501 27q0 42 -20 86t-46 76q22 -96 42 -157q12 -40 14 -40q12 3 10 35z" />
    <glyph glyph-name="B" unicode="B" horiz-adv-x="569" 
d="M43 311q0 52 31.5 99t77.5 77q64 42 143 42q106 0 176 -68q38 -38 38 -86q0 -3 -1 -4q0 -44 -37 -87q-21 -26 -48 -42q47 -24 67 -66.5t0 -101.5q-11 -25 -35.5 -51.5t-51.5 -29.5q-26 -4 -48.5 1.5t-53.5 20t-38 17.5q-3 -4 -5 -7t-5 -6q-24 -29 -65 -29q-28 0 -39 20
q-10 20 12 36t50 13q7 -1 28 -5q4 12 5 20q6 38 9.5 121t12.5 148.5t30 105.5q12 25 36 36q7 0 7 -6q-31 -13 -34 -85q-1 -25 -2 -87.5t-2.5 -100.5t-9.5 -85t-22 -76q93 -36 117 -41q45 -9 66.5 30.5t10.5 90.5q-14 62 -59 107q-42 -21 -69 -16q-16 2 -12 18q3 16 30 20
t47 -3q33 27 49 67t0 86q-24 69 -95 105q-47 24 -108 12q-92 -20 -139 -95q-51 -77 -39 -154q7 -48 49 -41q43 3 58 38q9 19 -7 21q-5 11 6 17q15 6 17 -6.5t-6 -27.5q-12 -24 -36.5 -38t-55.5 -6q-48 12 -50 77v5zM236 43q-35 18 -61 6q-28 -13 -21 -32q8 -20 40 -14
q30 5 42 40zM390 243q-14 10 -31 9t-25 -13q-7 -12 11 -12q11 1 21 4q12 3 24 12z" />
    <glyph glyph-name="C" unicode="C" horiz-adv-x="417" 
d="M211 3h-10q-74 13 -114.5 74t-44.5 151v16q0 77 29 145.5t74 101.5q41 31 90 31q55 0 85.5 -30.5t21.5 -86.5q-4 -30 -22.5 -58t-42.5 -29q-31 -3 -45 19q-13 20 -4 32q4 7 13 1q7 -7 3 -14q-13 -1 -6 -19q7 -17 35 -16q17 1 30.5 31.5t18.5 59.5q11 97 -57 104
q-48 6 -86 -40q-52 -62 -69.5 -177.5t14.5 -212.5q17 -49 51 -69t80 4q66 45 127 128q33 45 34 49q2 2 3 1h4q-13 -25 -47 -67.5t-62 -69.5t-57 -44q-24 -15 -46 -15z" />
    <glyph glyph-name="D" unicode="D" horiz-adv-x="576" 
d="M370 -15q-17 0 -36.5 5t-30.5 10t-33.5 16t-27.5 13q-21 -33 -55 -38q-44 -8 -56 19q-13 27 21.5 39t68.5 1q4 14 5 22q6 39 14 150.5t19 161.5q17 75 57 95q7 -2 7 -7q-29 -12 -34 -83q-1 -25 -2.5 -88t-3.5 -101.5t-10.5 -85.5t-24.5 -75q12 -4 33.5 -13.5t40 -16
t35.5 -9.5q47 -11 72 20q32 43 38 126q5 96 -22 185t-77 139q-58 57 -137 44q-67 -12 -110.5 -56t-59.5 -110q-12 -44 -6 -77q4 -26 14 -35t35 -7q43 3 58 36q7 19 -8 21q-3 6 1.5 11.5t11 6t10.5 -5.5q4 -7 -6 -28q-10 -23 -35 -37t-56 -6q-47 12 -49 75v5q0 51 31.5 97.5
t76.5 75.5q66 43 150 43q109 0 165.5 -82.5t56.5 -205.5q0 -65 -18.5 -122.5t-48.5 -92.5t-74 -35zM217 40q-12 12 -33.5 12t-37 -10t-10.5 -25q8 -19 39 -15q29 5 42 38z" />
    <glyph glyph-name="E" unicode="E" 
d="M224 -11q-12 0 -22 3q-59 17 -97 55.5t-38 98.5v2q0 33 11 66q17 46 56 85t89 55q-28 57 1.5 112.5t90.5 55.5q54 0 69 -32q17 -28 2 -62q-15 -33 -48 -35q-17 -1 -26 13q-9 16 -2 26q3 5 10 -1q8 -5 4 -12q-12 -2 -8 -13q4 -12 21 -10q17 1 28 22.5t10 48.5t-14 40
q-14 11 -33 10.5t-33 -10.5q-28 -18 -40 -62t6 -83q25 3 47 2q22 0 37 -13.5t0 -32.5q-14 -16 -37 -13t-44.5 13.5t-30.5 21.5q-33 -22 -56 -55q-26 -35 -42.5 -82.5t-11.5 -101t41 -83.5q37 -30 74 -23q51 10 116 82q52 56 92 121h3q1 -1 3 -1q-80 -135 -166 -187
q-34 -21 -62 -21zM306 361q-23 0 -41 -7q19 -19 38 -24q32 -8 37 11q3 9 -5.5 14t-28.5 6z" />
    <glyph glyph-name="F" unicode="F" horiz-adv-x="438" 
d="M262 268q-45 -4 -45 14v1q1 6 7 6h2q6 -1 4 -7q-6 -6 9 -9q10 -3 18 -2q23 2 34 5q0 153 18 203h-9q-17 -2 -98 -4q-55 0 -88 -10t-45 -39q-22 -41 1 -87.5t69 -40.5q28 4 31 23q1 6 1 9.5t-2 4.5t-6 -1q-4 1 -4.5 6t3 8.5t7.5 2.5q13 -3 9 -27q-5 -27 -40.5 -29.5
t-58.5 12.5q-49 26 -52 71v4q0 35 35 61q46 37 143 37q66 2 96 5h10q8 17 12.5 26.5t17 21t26.5 11.5q11 0 19.5 -6.5t8.5 -17.5q0 -12 -15.5 -21.5t-31.5 -13.5q-7 -28 -7 -82q-1 -54 0 -116q43 0 43 -16v-1q-2 -6 -8 -6t-7 7q6 2 -4 6q-11 6 -24 5l1 -26
q2 -103 -29 -174.5t-102 -90.5q-23 -5 -39 -5q-86 0 -129 75q-34 62 10 107q20 19 54 27t64 -5q30 -17 27 -52.5t-38 -43.5q-14 -3 -27 7.5t-6 22.5q2 4 6.5 3.5t6.5 -4t0 -8.5q-10 -1 -4 -11q8 -11 21 -7q21 6 19 38q-1 33 -27.5 48.5t-59.5 2.5q-32 -11 -41.5 -40t0 -60
t30.5 -53q53 -57 122 -38q22 5 38.5 17.5t26 34.5t15 41.5t8 53t3 53t0.5 56.5v20q-12 -3 -29 -3zM386 529q-9 8 -20 -6t-16 -31q16 4 31.5 16t4.5 21z" />
    <glyph glyph-name="G" unicode="G" horiz-adv-x="434" 
d="M330 122q2 -53 -1 -93.5t-14.5 -81t-39 -62.5t-69.5 -23q-38 0 -64 33.5t-14 73.5q8 23 24 40t45 37q22 15 72 47l12 9q1 15 2.5 47.5t2.5 47.5q-23 -33 -69 -64q-49 -31 -93 5t-54 89q-5 23 -5 43q0 46 21 99q48 115 140 149q24 9 54 11h3q36 0 57.5 -23.5t28.5 -59.5
q6 -33 -5.5 -58.5t-37.5 -29.5q-21 -3 -37 16q-15 20 -6 31q6 7 14 -1q5 -4 0 -9q-13 -5 -1 -21q11 -17 32 -14q18 4 22.5 28.5t0 49t-11.5 41.5q-19 43 -55 47q-44 2 -81 -36q-43 -44 -67 -127t-14 -165q7 -54 35 -69.5t70 17.5q30 23 60 62q6 77 16 92q8 12 20 7
q12 -7 9.5 -25t-13.5 -34q5 -41 10 -117q100 57 107 73h6q-2 -4 -11.5 -11.5t-24 -17.5t-27 -18t-28.5 -17.5t-21 -12.5v-5zM281 64v32q-19 -10 -79 -52q-35 -26 -47 -40q-19 -25 -15 -55.5t24 -54.5q21 -27 39 -27q23 -1 39 17.5t23.5 50t10.5 61.5t5 61v7zM318 259
q15 35 6 41q-8 5 -7 -23q0 -8 1 -18z" />
    <glyph glyph-name="H" unicode="H" horiz-adv-x="566" 
d="M539 -14q0 -19 -37 -19q-19 0 -37 12q-91 59 -91 200q0 48 10 94q-35 0 -54 -3q-23 -4 -57 -15l-2 -15q-13 -93 -41 -158q-14 -35 -29.5 -52t-32.5 -16q-12 0 -18.5 24.5t-7.5 48.5q0 95 81 146q8 55 10 106t-7.5 105t-34.5 75q-18 15 -42 9.5t-43 -17.5t-29 -24
q-32 -35 -32 -78q-1 -29 8.5 -41.5t32.5 -10.5q11 2 16 5q21 9 29 30q4 10 2 13.5t-9 1.5q-12 3 -5 14t16 6q11 -15 2.5 -33.5t-21.5 -28.5q-22 -17 -54 -8q-40 11 -41 50v3q0 37 34 71q46 52 124 52q37 0 60 -28.5t30 -70t8.5 -89.5t-4.5 -87q41 20 112 20l3 12
q23 90 54 179q6 20 5 26q6 9 20 9q8 0 14 -6q0 -13 -12 -68q-25 -102 -35 -156q22 -3 43 -12t21 -21q0 -8 -5.5 -10.5t-12.5 1.5q-12 7 -2 17q10 7 -8 13t-37 9q-7 -45 -10.5 -77t-4.5 -78.5t9.5 -79.5t33.5 -49q22 -15 40 -10q9 2 13 5t3 7q3 7 12.5 5.5t9.5 -8.5zM196 86
q16 68 26 142q-36 -28 -58.5 -73t-13.5 -92q9 -44 16 -44q12 -2 30 67z" />
    <glyph glyph-name="I" unicode="I" horiz-adv-x="379" 
d="M147 -21q-45 0 -75.5 27t-30.5 67v6q2 31 24 45t51 -1q23 -13 21 -37q-1 -23 -28 -25q-18 -1 -25 10q-8 13 -2 22q3 5 10 0q6 -4 1 -11q-5 1 -6 -2t1 -8q4 -10 18 -9q19 2 11 36q-9 32 -40 28q-26 -4 -27 -46q-2 -43 27 -72.5t75 -25.5q26 2 45 23t30 60.5t15.5 66.5
t9.5 72q1 12 2 17q13 136 27 215q4 22 13 46q-76 -11 -117 -41q-19 -16 -23.5 -40.5t9.5 -49.5q16 -23 30 -22q24 3 29 20q2 9 0 11.5t-8 0.5q-3 2 -3 6t3.5 7.5t6.5 1.5q11 -4 4 -26t-32 -24q-53 -1 -62 39q-8 42 38.5 75t100.5 42q5 1 13 2.5t12 1.5q16 38 42 53q8 4 16 4
h1q16 0 21 -14v-5q1 -15 -41 -30q-8 -25 -13 -78q-11 -159 -36 -271q-21 -99 -67 -141q-27 -26 -71 -26zM370 529q-5 8 -17 -4.5t-17 -24.5q6 3 11.5 5.5t13.5 7t9.5 8.5t-0.5 8z" />
    <glyph glyph-name="J" unicode="J" horiz-adv-x="439" 
d="M419 531q23 0 23 -20q-1 -18 -45 -32q-3 -7 -9 -41q-6 -37 -16 -118.5t-20.5 -144.5t-24.5 -112q-27 -94 -74 -132q-22 -18 -49 -19h-13q-47 -3 -89 30q-67 50 -64 119q0 72 76 86q40 9 68 -8.5t30 -53.5q2 -25 -10 -44t-34 -20q-20 -2 -27 12q-9 17 -2 24q4 2 10 -1
q6 -4 1 -12q-5 1 -6 -2t2 -9q4 -11 19 -10q22 4 23 46q1 37 -21 60t-60 15q-44 -10 -53.5 -57t14.5 -90q30 -63 89 -78q69 -19 99 52q10 22 17.5 47.5t14.5 63.5t9.5 55.5t9.5 69t8 59.5q20 147 39 200q-18 -4 -32 -5q-54 -7 -93 -33.5t-41 -72.5q-2 -35 13 -59t46 -21
q29 1 40 20q8 16 2 15q-1 0 -4 -1q-7 3 -3 10.5t10 5.5q11 -4 -1 -29q-16 -29 -59.5 -24.5t-59.5 28.5q-21 33 -1.5 68.5t50.5 57.5q44 30 103 39q16 1 31 6q24 60 63 60h1zM437 516q-6 9 -19 -4.5t-19 -27.5q15 6 29.5 15.5t8.5 16.5z" />
    <glyph glyph-name="K" unicode="K" horiz-adv-x="474" 
d="M221 292l21 -15q26 15 70 63q43 49 74 99q30 53 30 60q3 5 11 5h1q8 0 16 -8q0 -5 -16 -31q-78 -123 -180 -194q29 -25 48 -66t39.5 -112.5t25.5 -86.5q20 -60 45 -68q23 -6 37 1q15 8 8 15q2 9 12 8q9 0 9 -7q4 -8 -14 -15.5t-33 -7.5q-40 0 -70 26.5t-43 56.5t-25 72
q-2 6 -19.5 71.5t-28.5 92.5l-6 12q-2 -1 -8.5 -4t-9.5 -4q-22 -98 -57 -167q-34 -70 -72 -81q-8 -3 -19 -3q-16 0 -28 4.5t-11 14.5q0 9 11 9q10 0 10 -9q-11 -10 12 -14q12 -2 17 -1q19 6 43 58q29 71 51 183q-36 5 -36 26v3q3 25 44 23q0 4 1 7.5t1 7.5q4 36 5 67
t-1.5 68t-15 59t-34.5 21q-50 -1 -83.5 -36t-37.5 -82q-2 -29 7 -42.5t31 -11.5q16 0 28.5 10t16.5 23q4 10 2 13.5t-9 1.5q-9 3 -2 15q5 10 12 4q9 -6 4 -27q-6 -23 -27 -35.5t-50 -4.5q-38 11 -38 51v2q1 52 48 86.5t108 36.5h3q23 0 38 -12q42 -30 42 -129v-12
q-2 -51 -8 -90zM175 266q1 8 2 15.5t2 15.5q-20 0 -25 -6t2.5 -13.5t18.5 -11.5zM220 282q-2 -10 -3 -16q2 1 6.5 2.5t5.5 2.5q-3 5 -9 11z" />
    <glyph glyph-name="L" unicode="L" horiz-adv-x="427" 
d="M360 536q25 0 42 -14t18 -37q0 -7 -3 -17q-8 -41 -46 -80t-81 -63q0 -1 -1 -1t-2 -1q-23 -97 -47 -161.5t-65 -107.5q39 -21 81 -48q50 -33 86 -34q29 -1 41 7q11 7 6 12q-2 10 10 12q10 1 11 -7q1 -9 -10.5 -16.5t-26.5 -11t-28 -3.5h-9q-67 5 -110 36q-13 10 -62 43
q-30 -30 -81 -32q-48 -1 -49 27v2q0 22 24.5 34.5t53.5 4.5q20 -6 32 -12q34 58 63 158l20 66q1 2 1 6q-13 -3 -40 -5q-41 0 -60 19q-20 20 -8 32q5 4 9.5 2t7 -8t0.5 -11q-11 -4 1 -15q15 -9 41.5 -8.5t50.5 5.5q40 149 62 186q25 41 68 41zM335 494q-13 -21 -46 -163l1 1
q43 24 78.5 61t43.5 77q9 44 -22 53t-55 -29zM86 27q29 2 53 35q-40 23 -71 14q-31 -10 -21 -31q11 -19 39 -18z" />
    <glyph glyph-name="M" unicode="M" horiz-adv-x="695" 
d="M648 -43q-26 0 -45 12t-29.5 30t-16 46.5t-7 54t0.5 60.5t5 58t7 53q3 27 17 107t17 116q5 42 -9 42q-10 0 -28 -41q-65 -143 -108 -307q-6 -7 -22 -1q-17 5 -20 15q-16 245 -49 240q-11 -2 -30 -60q-46 -140 -77 -280q-10 -10 -20 2t-13 23q46 242 10 351
q-11 34 -29.5 40.5t-44.5 -7.5q-45 -24 -78 -73.5t-39 -104.5q-5 -50 37 -50q34 0 53 30q13 20 -1 25q1 9 9 12q16 3 11 -14q-2 -8 -9 -19q-35 -49 -83 -34q-39 12 -37 51v12q6 42 34.5 82.5t64.5 66.5q33 23 71 29q30 6 50.5 -14t28 -46.5t11.5 -60.5q11 -85 0 -172
q37 138 56 182q12 26 23 35t31 1q30 -15 49 -87q19 -70 19 -134q38 149 91 260q27 57 49 58h2q61 0 25 -224q-1 -10 -2 -14q-2 -17 -7 -50.5t-9 -61t-6 -51.5q-4 -34 -5.5 -57t-0.5 -54t10.5 -49.5t27.5 -22.5q13 -2 25.5 2t11.5 13q3 5 10.5 4t7.5 -7q4 -4 -9 -10
q-17 -7 -31 -7z" />
    <glyph glyph-name="N" unicode="N" horiz-adv-x="578" 
d="M449 489q0 52 -15 52q-18 0 -42 -56q-65 -157 -114 -380q-2 -6 -3.5 -11.5t-1.5 -6.5q-10 -9 -23 6q-15 14 -18 23q39 186 29 275q-5 47 -21 69.5t-42 18.5q-72 -15 -121 -109q-9 -17 -15.5 -36t-10 -41.5t5.5 -37t32 -14.5q34 0 53 30q12 21 -1 25q1 7 8.5 11t11.5 -4
q4 -6 -10 -28q-14 -19 -37 -31.5t-46 -2.5q-39 12 -37 51q0 46 30.5 89t70.5 71q33 24 70 30q37 7 60.5 -20t31 -75t7.5 -93.5t-5 -90.5q36 144 72 240q29 76 55 99q11 9 18 9l1 1q35 -2 46 -54q10 -46 6 -120q-2 -35 -9 -127.5t-9 -140.5q-5 -92 14 -126q14 -26 50 -16
q14 4 9 12q1 6 12 6q8 -1 8 -7v-2q0 -6 -14.5 -10t-27.5 -4q-74 0 -90 94q-19 116 3 316q8 72 9 116z" />
    <glyph glyph-name="O" unicode="O" horiz-adv-x="488" 
d="M35 188q0 88 36.5 160t97.5 100q10 0 10 -10q-31 -15 -52 -86.5t-26 -139.5q-10 -147 57 -203q35 -27 76 -20.5t71 40.5q82 94 103 262q12 94 -2 164q-21 97 -96 75q-62 -20 -81 -99q-9 -42 1.5 -74t40.5 -38q27 -5 50 18q22 22 3 25q-1 8 9 13t14 -5q2 -9 -22 -36
q-33 -29 -76.5 -14t-56.5 46q-18 40 0.5 81.5t49.5 64.5q36 27 77 27h14q63 -7 84 -81q14 -48 14 -103q0 -107 -45 -215q-28 -67 -73 -113q-43 -45 -95 -45h-1q-86 1 -133.5 57t-48.5 144v5z" />
    <glyph glyph-name="P" unicode="P" horiz-adv-x="500" 
d="M154 -25q-12 -1 -25.5 3.5t-13.5 11.5v1q2 8 10 8t10 -7q-8 -9 12 -13q10 -2 19 0q25 8 41 59q12 37 28 178l-1 1q-19 4 -35 14.5t-10 23.5q4 7 11.5 3t5.5 -11q-11 -2 -3 -13q9 -14 32 -14q14 108 34 185q15 54 42 69h1q5 0 5 -7q-29 -17 -30 -87q-3 -82 -6 -153v-4
q56 13 94.5 49t43.5 92q5 45 -19.5 86t-60.5 64q-49 30 -111 24q-68 -7 -113 -48t-56 -103q-3 -25 -3 -50.5t12.5 -44t35.5 -15.5q30 0 45 32q9 19 -4 22q-3 8 5 13q10 4 14 -6q6 -11 -7 -29t-25 -25q-24 -14 -46 -7q-64 17 -64 81q0 48 34 90.5t81 66.5q54 28 123 28
q119 0 185 -78q27 -31 27 -69q0 -61 -42.5 -105t-99.5 -64q-25 -9 -50 -12q-2 -47 -6.5 -80.5t-15.5 -70t-33 -59t-55 -29.5q-5 -1 -16 -1z" />
    <glyph glyph-name="Q" unicode="Q" horiz-adv-x="502" 
d="M194 423q-29 -18 -46 -90.5t-18 -140.5q0 -150 70 -199q23 -17 61 -17q61 0 101 70l5 9l-14 20q-25 36 -48 53q-30 19 -42 15q-15 -3 -9 -10q-4 -6 -12.5 -5t-8.5 8q0 12 26 12h3q22 -2 50 -21q40 -28 65 -54q62 130 58 280q-2 115 -47 158q-29 24 -61 13t-52 -44
q-58 -94 -31 -184q10 -33 38.5 -40.5t51.5 18.5q22 25 2 27q-1 5 3 10t9 5t9 -6q5 -11 -18 -38q-18 -20 -48 -21t-52 14q-53 36 -41 113q16 94 86 139q26 15 54 15h5q64 -5 89 -75q20 -54 20 -129q0 -151 -67 -265q8 -10 14 -18q28 -41 68 -68q20 -13 31 -9q13 5 7 13
q4 6 13 5t9 -8t-13.5 -13t-28.5 -6q-20 0 -37 7t-32.5 23.5t-22 25.5t-20.5 30q-49 -71 -113 -75h-14q-80 0 -127 54q-54 60 -54 163q0 82 33 149t87 96q4 1 6 -2q3 -2 3 -7z" />
    <glyph glyph-name="R" unicode="R" horiz-adv-x="467" 
d="M74 14q-34 0 -36 15v3q0 9 8 7q10 0 11 -7q-5 -5 6 -11q49 -20 76 56q16 46 26 110l8 54q-16 5 -21 16t2.5 20t25.5 9q29 145 30 149q13 52 36 67h1q7 0 9 -10q-22 -15 -27 -86q-4 -56 -9 -128q10 -5 16 -11l9 -9q3 0 5 1q46 12 81 42.5t42 73.5q6 43 -21 84
q-24 39 -71 62t-105 15q-51 -8 -81 -29q-35 -22 -52 -51q-23 -33 -29 -72q-2 -28 -1 -55t17 -42t44 -4q21 9 29 29q7 19 -8 21q-2 3 0 9.5t6.5 8.5t9.5 -3q6 -8 -3 -31q-8 -21 -25 -33.5t-41 -6.5q-61 20 -61 85q0 45 31.5 85t74.5 64q60 31 131 31q53 0 100 -20t75 -50
q41 -43 31 -94q-7 -41 -61 -81q-56 -40 -109 -50q20 -26 38 -70t35.5 -100t27.5 -80q24 -58 50 -61q24 -2 34 6q12 9 4 14q3 8 12 8q8 -2 8 -7v-1q-1 -10 -18 -17t-35 -7h-10q-25 3 -45 16.5t-31.5 28t-22.5 44t-15 45t-12 48.5q-15 63 -30 114q-2 4 -3 7.5t-3 7.5
q-4 -1 -11.5 -2.5t-10.5 -1.5q-2 -13 -5.5 -35.5t-4.5 -30.5q-7 -40 -23 -75q-36 -84 -109 -84zM180 283q-11 0 -14 -5.5t0 -11.5t9 -10q4 18 5 27zM219 272q-1 -5 -1 -15q-1 -2 -1 -6q10 2 16 3q-7 11 -14 18z" />
    <glyph glyph-name="S" unicode="S" horiz-adv-x="468" 
d="M326 550q31 0 52 -16t18 -45q-3 -38 -29 -55q-47 -31 -68 2q-8 13 -2 21q3 4 9 -1q6 -4 2 -11q-4 1 -4 -1.5t2 -7.5q8 -16 22 -14t28 16q17 17 21.5 48t-14.5 51q-25 19 -65 1q-31 -13 -44.5 -47t2.5 -74q15 -34 50 -75t63.5 -82.5t36.5 -87.5q1 -7 1 -21
q0 -63 -34.5 -105.5t-88.5 -58.5q-25 -8 -58 -8h-2q-61 1 -105.5 35t-48.5 90v12q0 52 37 93.5t86 41.5q43 0 60 -22q21 -23 12 -53q-7 -19 -25 -31t-41 -5q-12 2 -15 12q-2 6 6 8q9 2 11 -7q-6 -9 10 -11q7 -1 12 1q16 5 18.5 23.5t-4 37t-15.5 28.5q-8 8 -15 12
q-8 4 -19 4q-27 0 -55 -26q-24 -24 -39.5 -64t-8.5 -82t45 -60q39 -20 100 -7q71 15 118.5 62.5t19.5 116.5q-26 57 -101 134q-33 33 -54 70q-24 41 -13 75q12 36 43 57.5t75 25.5h8z" />
    <glyph glyph-name="T" unicode="T" horiz-adv-x="515" 
d="M303 489q-102 -26 -155 -26q-61 0 -83 21q-12 12 -12 21q0 13 13 9t11 -14q-11 -3 -3 -14q7 -10 38 -12q49 -2 101 13q50 15 92 26q5 20 12 20q4 0 11 -5t7 -7l-1 -1q62 12 101 12q40 0 73.5 -8.5t33.5 -27.5v-1q-1 -7 -7 -7.5t-11 4t-5 9.5q9 4 0 13t-52 11
q-36 3 -135 -27q2 -22 9 -63q27 -135 30 -257v-5q0 -154 -83 -187q-15 -5 -27 -5q-31 0 -31 13q0 7 8.5 8.5t11.5 -4.5q-5 -11 12 -12q11 -1 22 3q32 12 36 78q6 76 -5 223t-12 178q-1 11 0 21z" />
    <glyph glyph-name="U" unicode="U" horiz-adv-x="502" 
d="M188 532q81 -2 60 -181q-4 -38 -17 -118t-17 -121q-7 -30 -5.5 -72.5t22.5 -44.5q18 -3 43 25q27 32 50 70q3 7 12.5 23.5t13.5 25.5l4 8q-6 97 21 173q8 25 18 36t22 10t14 -19t-4 -41t-12.5 -43t-11.5 -30v-34q-4 -167 34 -222q8 -10 19.5 -14t25.5 1q10 6 7 10
q2 5 8 4q7 0 7 -5l-1 -1q-2 -14 -31 -14q-50 0 -81 51q-29 51 -34 120q-31 -57 -63 -98q-37 -47 -63 -43q-86 13 -61 202q5 40 17 116.5t17 109.5q3 24 4 38t0.5 34.5t-9 30t-23.5 8.5q-51 -4 -85.5 -33.5t-50.5 -74.5q-12 -36 -3 -65q11 -29 44 -30q21 0 31 18q9 16 -4 19
q-4 6 4 13t14 2q10 -9 -6 -32q-18 -24 -41 -24q-67 2 -67 62q0 62 68 113q51 37 110 37zM418 358q-3 3 -8.5 -36t-6.5 -59q29 83 15 95z" />
    <glyph glyph-name="V" unicode="V" horiz-adv-x="505" 
d="M532 526q13 0 24.5 -4.5t11.5 -11.5q-1 -10 -10.5 -8.5t-10.5 8.5q6 6 -6 11q-47 17 -86 -56q-34 -72 -63 -235q-25 -136 -27 -151q-12 -72 -21 -85q-3 -1 -10 -1q-15 0 -28.5 7.5t-14.5 17.5q-3 86 -64 264q-3 10 -5 15q-35 97 -72 155q-24 36 -43 33q-62 -15 -86 -116
q-11 -32 -7 -76t31 -47q27 -4 51 17q26 21 6 27q-4 9 5 15t15 -2q9 -14 -20 -39q-30 -26 -64.5 -20.5t-44.5 42.5q-4 13 -4 33q0 53 27 96t67 64q42 24 80 6q49 -24 78 -82.5t54 -144.5q22 -76 48 -221q1 -9 3 -11q13 52 21.5 154.5t24.5 180t52 122.5q26 32 68 41
q11 3 20 2z" />
    <glyph glyph-name="W" unicode="W" horiz-adv-x="571" 
d="M453 69q11 1 18 11t10 31.5t3.5 31.5t1.5 36v111q0 62 2 98.5t16 80.5t40 61q26 13 38 13q5 0 9.5 -3t2.5 -7q0 -5 -8 -8t-12 1q2 9 -7 8q-9 0 -20 -7q-18 -10 -26 -59q-11 -52 -17.5 -176t-14.5 -170q-11 -56 -35 -57q-25 -2 -43 9q-48 21 -70.5 90t-22.5 150
q-1 -1 -10 -30q-3 -8 -11 -31t-14 -38q-51 -128 -94 -187q-28 -36 -55 -37q-56 0 -24 166q1 7 2 10q5 29 17 89.5t17 91.5q4 23 6.5 44.5t2 46.5t-5.5 42t-15 31.5t-28 15t-44 -7.5q-39 -20 -68 -65t-29 -95q0 -38 28.5 -43t52.5 17q27 22 6 28q-2 5 1.5 10.5t8.5 6t9 -4.5
q8 -16 -21 -40q-31 -26 -59 -22q-49 9 -49 58q0 68 70 123q16 13 41 25q21 10 47 12q40 5 65 -13.5t32 -56t7 -80.5t-10.5 -97.5t-20 -96.5t-21.5 -88t-15 -62q-8 -38 -2 -39q25 -3 52 37q49 72 119 259q2 5 4 12t3 9t2.5 6t3 5l4.5 3t6.5 3t9.5 3q14 4 23 -1l18 -60t16 -55
q10 -33 33 -103q15 -46 24 -46z" />
    <glyph glyph-name="X" unicode="X" horiz-adv-x="548" 
d="M118 66q-13 0 -27 7t-15 12v1q-1 8 9.5 10t13.5 -5q-8 -12 11 -18q38 -12 78 31q30 34 73 111l-16 32q-60 125 -93 168q-11 14 -22 25q-30 30 -65 24q-36 -4 -60.5 -34.5t-34.5 -70.5q-9 -29 -2.5 -58.5t30.5 -31.5q27 -1 50 22q21 23 3 27q-3 5 0 10.5t7.5 6.5t8.5 -4
q11 -13 -15 -40q-30 -33 -69.5 -23t-39.5 56q0 54 39.5 95.5t91.5 50.5q12 2 18 2q24 0 49 -14q27 -14 53.5 -43.5t40.5 -51t37 -61.5q10 -17 17 -32q63 116 111 175q64 75 126 75h1q30 -2 30 -15q0 -8 -8.5 -8t-12.5 6q4 7 -11 12q-14 4 -49 -14q-49 -25 -104 -129
q-28 -54 -57 -114q-3 -5 -5 -10l-4 -10q7 -13 13.5 -26t13.5 -26q62 -126 104 -172q38 -43 75 -20q13 7 10 14q2 7 10 6t8 -8q0 -9 -19.5 -16t-35.5 -7q-39 0 -76 27q-61 41 -115 142q-14 27 -19 33q-48 -80 -96 -103q-40 -16 -61 -16z" />
    <glyph glyph-name="Y" unicode="Y" horiz-adv-x="555" 
d="M309 -142q-34 0 -58 28.5t-26 64.5q0 22 5.5 38.5t21.5 31t24.5 20.5t33.5 21q38 23 73 42h1q5 46 11 129q-58 -86 -96 -81q-27 5 -42 22q-22 29 -22 88.5t10 103.5q1 10 2 14q8 48 14 108q2 23 -4.5 35t-20.5 11q-41 -3 -77 -36t-54 -73q-17 -28 -15.5 -63t28.5 -50
q17 -9 38.5 -6.5t28.5 18.5q11 21 -8 18q-5 6 2 13t14 2q9 -9 -3 -32q-11 -21 -41 -23t-50 11q-31 17 -31 53q0 21 14 51q22 45 64 78q47 41 97 42h4q15 0 26 -4.5t17.5 -14.5t11 -20t5.5 -27t1.5 -29t-2 -32t-4 -30.5t-5 -29.5t-4.5 -25q-11 -63 -15 -114q-5 -51 26 -56
q19 -3 46 28.5t46 63.5q12 102 19 125q10 31 26 24q9 -4 11 -16.5t-1.5 -28t-8 -28t-9.5 -22.5q0 -26 0.5 -83.5t0.5 -86.5q114 59 121 72q3 -1 7 -1q-3 -5 -14 -12.5t-27.5 -17t-31 -17t-32 -16.5t-23.5 -12q-5 -92 -20 -155.5t-53 -95.5q-21 -18 -52 -18zM384 100
q-93 -49 -120 -76q-24 -22 -24 -56q-1 -31 16 -66t38 -39q35 -5 53 41q23 58 37 194v2zM432 315q27 67 9 76q-7 2 -8 -17v-14q-1 -12 -1 -45z" />
    <glyph glyph-name="Z" unicode="Z" horiz-adv-x="414" 
d="M70 32q-6 2 -11.5 14.5t-5.5 23.5q0 7 2 13q22 30 73.5 104.5t75.5 106.5l43 57q37 46 80 91l9 9q-18 3 -53 11t-52 11q-74 12 -114 5q-22 -5 -31 -26.5t-2 -48.5q11 -36 38 -39q15 -2 20 8q6 10 0 14q2 8 9.5 8t9.5 -7q1 -10 -14 -19t-28 -8q-37 4 -55 35
q-27 45 10.5 68.5t95.5 20.5q68 -7 169 -28q1 0 2 -1q28 26 52 35q9 4 18 4q12 0 22 -8t10 -19q0 -13 -20.5 -18.5t-41.5 -4.5q-19 -21 -28 -34q-32 -42 -68.5 -94t-84.5 -124t-65 -97q-9 -15 -22 -32q-10 -14 -11 -14q42 8 97 -11q43 -16 76 -36q35 -21 69 -23q32 -2 44 9
q11 10 7 16q-2 11 11 13q10 2 11 -7q3 -14 -22 -24t-48 -10q-72 0 -119 26q-38 20 -76 33q-16 5 -38 7q-21 0 -44 -10zM436 470q-3 3 -6 4.5t-6 1.5t-5.5 -0.5t-6 -2.5t-6 -3.5t-6 -5l-5 -5l-5 -5l-4.5 -4.5q34 0 49 11q6 4 1 9z" />
    <glyph glyph-name="bracketleft" unicode="[" horiz-adv-x="197" 
d="M144 564v-4q-9 -1 -33.5 -1.5t-36.5 -0.5q-5 -147 5 -579h65q1 -1 1 -4v-1q0 -2 -2 -4h-96q-3 91 -5 283v62q0 120 3 249q72 3 97 4z" />
    <glyph glyph-name="backslash" unicode="\" horiz-adv-x="306" 
d="M250 10q0 3 -28 65q-8 17 -30 66.5t-36 80.5l-33 72q-31 73 -81 184q-18 40 -25 60q9 12 13 12q23 -54 35 -80q27 -62 88.5 -200t88.5 -200q20 -43 21 -44l-4 -11q-3 -5 -9 -5z" />
    <glyph glyph-name="bracketright" unicode="]" horiz-adv-x="185" 
d="M128 315v-62q-2 -192 -5 -283h-96q-1 0 -2 2l-1 2v1q1 1 1 4h66q10 432 5 579q-9 1 -34 1.5t-37 0.5q1 2 1 4q-1 1 2 4q8 0 40.5 -1.5t56.5 -2.5q3 -129 3 -249z" />
    <glyph glyph-name="asciicircum" unicode="^" horiz-adv-x="276" 
d="M238 359q-16 -16 -33 -16q-2 0 -3 1q-6 14 -30 67t-42 94q-45 -85 -85 -160q-7 0 -7 8q74 135 100 183q43 -79 100 -177z" />
    <glyph glyph-name="underscore" unicode="_" horiz-adv-x="258" 
d="M218 17q0 -5 -5 -13h-151q-31 0 -32 -1q-1 2 -1 5q0 8 9 13h179q1 -1 1 -4z" />
    <glyph glyph-name="grave" unicode="`" horiz-adv-x="132" 
d="M23 512q2 5 8 14.5t11 9.5q4 0 18.5 -30t15.5 -36l-2 -2q-2 0 -3 -1q-5 7 -23 20q-21 15 -25 25z" />
    <glyph glyph-name="a" unicode="a" horiz-adv-x="249" 
d="M68 231q32 -1 42 -30q0 -2 -1 -3.5t-3 -0.5q-3 0 -5 2t-4.5 8.5t-3.5 8.5q-7 12 -23 12q-9 1 -18 -4q-25 -11 -38.5 -52.5t-10.5 -82.5q1 -24 10 -25t18 11t19 37q17 42 23 62q11 9 23.5 3t18.5 -15q0 -7 -9 -64q-9 -73 3 -75q8 -2 27 20q55 65 111 158q3 0 6 -1
q-43 -65 -54 -82q-31 -44 -53 -70q-27 -32 -41 -30h-1q-40 0 -34 111q2 25 1 27q-11 -43 -38 -81q-16 -21 -36 -13.5t-27 31.5q-5 17 -5 32q-2 36 16.5 63t47.5 39q13 4 33 4h6z" />
    <glyph glyph-name="b" unicode="b" horiz-adv-x="231" 
d="M26 31q-15 32 -25.5 103t-10.5 132q0 38 3 76q4 39 16 86q27 93 89 93q29 0 42.5 -15t10.5 -40t-11.5 -52t-24 -56.5t-25.5 -47t-19 -30.5q-24 -36 -45 -64q0 -101 16 -159q1 8 10 41q12 53 36 81q9 9 22 11q32 0 39 -37q10 5 31 18t30 17q18 10 19 13q3 1 5 0q3 0 3 -2
q-36 -18 -86 -52q3 -39 -11 -66t-43 -32q-20 -4 -28.5 5.5t4.5 30.5q16 26 41 45q12 50 -6 55q-33 5 -67 -146q-5 -8 -13 -8h-2zM26 225q7 10 20 30t33 53t35 66t25 63.5t5 51.5t-27 25q-26 6 -45 -33q-40 -73 -46 -256zM78 84q-14 -21 -5 -27t19 11q12 20 20 54
q-20 -15 -34 -38z" />
    <glyph glyph-name="c" unicode="c" horiz-adv-x="217" 
d="M-32 124q0 44 18.5 75t52.5 34h4q18 0 29 -8t5 -24q-4 -10 -7.5 -14t-7.5 -3q-6 0 0 6q4 -1 8 6.5t3 17t-8 11.5q-11 4 -22 -9.5t-16.5 -27t-9.5 -29.5q-10 -34 -10 -72q1 -22 8.5 -32.5t20 -8.5t25 7t27.5 17t23 18.5t16 14.5q35 31 60 63q27 31 28 35h3q2 0 3 -1
q-6 -6 -26 -31q-22 -30 -55 -61q-49 -53 -98 -65q-4 -1 -12 -1q-29 0 -45.5 24.5t-16.5 57.5z" />
    <glyph glyph-name="d" unicode="d" horiz-adv-x="267" 
d="M134 21q-21 0 -37.5 32.5t-26.5 76.5q-38 -56 -57 -53q-22 2 -34.5 20t-12.5 42q0 35 19 58.5t52 18.5q13 -2 22 -11q-3 31 -3 64q-2 173 48 244q21 32 52 32q59 0 50 -78q-15 -117 -108 -292q12 -143 36 -149q10 -3 35 28q54 63 96 146h7q-3 -5 -16 -29l-33 -55
q-20 -30 -50 -67q-24 -28 -39 -28zM98 187q50 90 83 193q19 60 20 99q2 48 -23 57q-26 9 -42 -30q-44 -96 -38 -319zM68 138q-1 5 -2 17t-2.5 20t-4 17t-7.5 14t-13 5q-13 1 -23 -20t-13 -47t0 -43q8 -50 64 35q0 1 1 2z" />
    <glyph glyph-name="e" unicode="e" horiz-adv-x="211" 
d="M-20 165q0 34 19.5 59t49.5 25h3q21 0 33.5 -10t-5.5 -27q-19 -14 -46 -14q-9 -17 -13.5 -38.5t1 -42t23.5 -25.5q30 -8 83 29q61 45 83 79q1 1 3 1q1 0 3 -2q-11 -11 -28 -30q-30 -32 -59 -52q-20 -16 -45 -25q-14 -7 -28 -7q-33 0 -54 23.5t-23 56.5zM76 216
q20 17 2 23q-19 6 -41 -35q22 -1 39 12z" />
    <glyph glyph-name="f" unicode="f" horiz-adv-x="221" 
d="M55 -163q-27 0 -45 39q-28 65 -28 185v1q-30 8 -30 29v3q1 20 31 16l2 34q7 95 30.5 187t60.5 140q30 39 66 39q25 0 39 -13.5t11 -38.5q-5 -55 -74 -143q-21 -27 -78 -91q-10 -71 -14 -137q0 -1 4 -5.5t6 -7.5q68 22 147 91q32 29 37 37h9q-5 -5 -41 -38
q-73 -67 -145 -94q-1 0 -1 -1l-2 -1q50 -82 49 -179q-1 -47 -29 -52h-5zM41 233q91 91 138 196q22 54 -7 67q-30 15 -58 -22q-44 -61 -71 -233zM24 46q-1 -23 0 -57.5t3.5 -67t12 -54.5t23.5 -20q17 3 20 34q5 91 -49 185q-2 0 -5 -1t-5 -2v-17zM-31 92q-2 -15 13 -21
q1 11 1 33q-13 -2 -14 -12zM25 70l6 2q-2 3 -6 7q1 -5 0 -9z" />
    <glyph glyph-name="g" unicode="g" horiz-adv-x="250" 
d="M-6 -210q-30 0 -47.5 19.5t-17.5 51.5q0 81 77 160q40 41 85 72q1 16 2.5 59t2.5 57l-21 -42q-21 -41 -41 -40q-35 1 -42.5 37t10.5 64q11 22 34 37t52 15q18 -1 24 -10l10 -15q0 -2 -1 -3.5t-3 -0.5q-3 0 -4.5 2t-4.5 7t-4 7q-12 13 -26 8.5t-23 -15.5q-31 -42 -28 -106
q4 -40 28 -8q9 12 17 30q21 47 23 54q8 10 19.5 7.5t17.5 -11.5q-10 -27 -12 -93l-1 -20q87 57 112 74q15 10 17 15l6 -2q-1 -3 -17 -15q-17 -13 -34.5 -25t-44 -28.5t-40.5 -25.5q0 -8 -1.5 -39.5t-2 -41t-2 -37t-4 -39t-6.5 -34t-9 -34t-12.5 -27.5t-17 -26.5t-21.5 -19.5
q-24 -18 -49 -18zM91 86q-83 -58 -128 -130q-20 -34 -25 -70q-7 -45 10.5 -66t57.5 3q23 15 38.5 42t24.5 70.5t13 70.5t9 80z" />
    <glyph glyph-name="h" unicode="h" horiz-adv-x="272" 
d="M131 6q-29 7 -29 66q-2 32 5 94q3 25 -4 25q-15 0 -47 -64q-18 -31 -23 -54q-13 -18 -21 -15q-24 59 -24 167q0 142 40 228q32 72 87 72q30 0 46.5 -15t10.5 -45q-10 -43 -38 -92.5t-50.5 -79.5t-58.5 -73q-1 -13 -1 -40q-2 -63 7 -102q4 28 23 61.5t38 51.5q13 11 23 11
q33 -2 31 -67q0 -31 -10 -98q0 -9 -1 -16.5t2 -8t4.5 -1t6 4l7.5 7.5t9 10q40 52 83 126q19 32 24 40q3 0 6 -1q-7 -11 -25.5 -43t-26.5 -45q-25 -38 -53 -74q-24 -30 -38 -30h-3zM152 512q-30 13 -55 -15.5t-39 -80.5t-22 -100t-10 -88q117 149 140 238q10 37 -14 46z" />
    <glyph glyph-name="i" unicode="i" horiz-adv-x="160" 
d="M18 228q7 0 12 -8q0 -8 -2.5 -20t-6.5 -27.5t-5 -22.5q-18 -81 0 -84q10 -3 35 21q33 28 90 91q4 5 8.5 10.5t6.5 8t2 3.5h6q-14 -19 -57 -65q-35 -37 -54 -53q-25 -21 -38 -21q-36 0 -36 65q0 15 13 90q10 12 26 12zM45 283q0 -13 -13 -13h-3q-8 4 -8 10t4 11t10 5
q1 0 2 -1q3 0 6 -4t2 -8z" />
    <glyph glyph-name="j" unicode="j" horiz-adv-x="132" 
d="M22 117q11 9 37.5 29.5t47.5 37t25 21.5q1 -1 3 -1q3 -1 4 -1q-5 -6 -27 -24t-51 -39.5t-39 -30.5q-3 -105 -16.5 -175.5t-52.5 -107.5q-27 -27 -57 -27q-23 0 -40 19.5t-17 45.5q0 20 11 48q31 79 140 178q11 108 3 133q8 11 19 11q2 1 6 -1q4 -14 4 -116zM-11 80
q-33 -31 -51.5 -50t-43 -51.5t-37.5 -63.5q-18 -45 -7 -72q11 -29 43 -18q72 22 96 255zM-3 265q-7 0 -12 7v5q0 9 8 13h3q5 0 9 -4.5t4 -9.5q0 -4 -4 -7.5t-8 -3.5z" />
    <glyph glyph-name="k" unicode="k" horiz-adv-x="261" 
d="M133 22h-2q-32 3 -47 34.5t-17 73.5q-2 39 -11 42l1 4q0 2 4 3q21 -3 39 32q18 34 2 34q-10 0 -20 -12q-42 -51 -58 -122q-2 -3 -8.5 -6.5t-9.5 -2.5q-14 42 -16 120v10q0 69 14 137q9 37 21 69q33 77 86 77q19 0 41 -11q25 -12 13 -52q-27 -87 -146 -236v-4
q-2 -62 4 -90q21 80 58 117q13 12 23 13q27 2 35 -11.5t-7 -36.5q-18 -24 -55 -28q13 -6 28 -67q6 -19 16 -53q7 -26 14 -28t24 18q32 38 79 117q21 36 22 38q2 -1 7 -1q-8 -11 -25.5 -41.5t-23.5 -40.5q-24 -34 -48 -66q-24 -30 -37 -30zM151 499q-27 13 -53 -13
q-62 -65 -79 -263q89 110 135 214q21 52 -3 62z" />
    <glyph glyph-name="l" unicode="l" horiz-adv-x="214" 
d="M59 25q-27 3 -44.5 30.5t-24.5 60.5t-8 71v15q0 67 15 124q18 80 59 130q26 30 57 30q26 0 45 -13t17 -38q-3 -31 -37 -90q-38 -60 -114 -147v-7q-5 -101 18 -143q8 -14 17.5 -16t19 4.5t24.5 22.5q42 43 93 116q5 7 9.5 13.5t7 10t3.5 4.5q4 0 7 -1q-1 -1 -3.5 -4.5
t-7 -10t-9.5 -13.5q-68 -89 -98 -120q-29 -29 -44 -29h-2zM25 209q100 109 138 204q16 43 -10 58q-29 16 -53.5 -8.5t-39.5 -75t-23 -94.5t-12 -84z" />
    <glyph glyph-name="m" unicode="m" horiz-adv-x="396" 
d="M201 304q55 0 21 -202q-2 -7 -2 -10q-7 -43 1 -49t33 16q40 31 110 108q8 9 16 17.5t11.5 12.5t4.5 5q2 0 5 -1q-8 -8 -32 -35.5t-37 -40.5q-21 -23 -65 -63q-31 -25 -45 -25q-13 0 -22 9t-12.5 27t-5 35t1 43.5t4 41t5 38.5t3.5 26q6 42 -6 38q-7 -3 -18 -25
q-29 -63 -56 -145q-9 -3 -21 5.5t-13 16.5q5 50 -5 77q-8 22 -23 -9q-11 -20 -18 -43q-14 -36 -18 -57q-21 2 -29 14q-4 17 -4 50q-1 12 -1 35v18q2 28 4 34q5 5 16.5 10t16.5 -1v-33q-1 -9 -1 -27.5v-27.5q0 -25 -1 -35q0 -16 -1 -20q6 20 20 58q9 26 18 38.5t19 11.5
q25 0 36 -42q10 -36 7 -54q32 97 55 136q13 24 28 24z" />
    <glyph glyph-name="n" unicode="n" horiz-adv-x="274" 
d="M0 135q6 10 -1.5 43t-12.5 44q5 7 17.5 12.5t17.5 -4.5q3 -11 8.5 -48.5t5.5 -50.5q3 10 10.5 34.5t12.5 40.5t13 35.5t16 31.5q11 17 20 17h3q40 -7 31 -109q-5 -51 -12 -95q-10 -49 1 -48q7 0 24 17q42 39 93 110q16 21 26 36q1 -1 6 -1l-18 -26q-55 -73 -97 -116
q-26 -27 -39 -26h-4q-15 6 -22.5 23.5t-7.5 48.5t1.5 51t7.5 57.5t6 40.5q2 14 1 21.5t-3.5 9t-6 -1.5t-7.5 -10t-8 -16q-12 -28 -24 -63q-16 -55 -25 -75q-9 -5 -18.5 2t-14.5 15z" />
    <glyph glyph-name="o" unicode="o" horiz-adv-x="230" 
d="M234 200q-24 -33 -117 -35h-3q-10 -54 -40 -90q-17 -20 -37 -20q-30 0 -50.5 24.5t-20.5 55.5q0 38 31 69q-18 26 -18 42q-2 27 18.5 43t49.5 16q84 0 68 -136h14q30 2 61 10.5t38 22.5zM35 222q12 0 18 -18q-5 -1 -13 -12q3 -3 19 -10q17 -9 33 -10q3 0 8.5 -1t8.5 -2
q8 41 -1.5 76.5t-35.5 46.5q-30 10 -48 -17.5t-3 -56.5q6 2 14 4zM108 164q-41 0 -76 16q-17 -28 -25 -71q-5 -37 16.5 -47t44.5 17q30 35 40 85z" />
    <glyph glyph-name="p" unicode="p" horiz-adv-x="276" 
d="M183 169q88 33 90 35l3 -1q2 0 4 -2q-4 -4 -26 -11q-66 -23 -71 -25q-4 -30 -27 -56t-50 -26q-21 0 -25.5 10t11.5 29q18 21 50 33q6 16 6 34q0 17 -13 17q-22 1 -63 -52q-32 -41 -61 -89q-8 -214 -56 -280q-14 -19 -35 -20q-35 0 -35 28q0 19 10 46q21 69 75 167
q0 6 1 11t1 10q10 82 18 161q8 86 13 112q2 6 8 7h4q2 0 6 -2q-3 -20 -4.5 -61t-2.5 -92t-2 -73l8 12q30 48 65 86q32 36 52 34q46 0 46 -42zM-41 -29q-49 -99 -63 -151q-11 -40 1 -44q9 -5 17.5 4.5t15.5 31t13 43t11 51t7.5 45t5.5 34.5zM98 122q-18 -21 -10 -28
q9 -8 25 11q1 1 2 3q14 18 25 42q-26 -12 -42 -28z" />
    <glyph glyph-name="q" unicode="q" horiz-adv-x="228" 
d="M-21 166q0 39 23.5 67t60.5 28q42 0 54 -27q7 -17 7 -21q-1 -4 -5 -4q-3 0 -5 3q1 3 -4 22q-5 17 -25 21q-29 5 -50 -39t-19 -83q3 -59 56 21q19 28 21 35q18 21 34 -3q-14 -13 -26 -119q2 -1 3.5 -2t3.5 -3q49 20 91 59q27 24 28 29q2 -1 2 0l4 -2q-2 -5 -29 -29
q-45 -40 -92 -61q36 -40 61 -104.5t26 -127.5q1 -36 -11.5 -51t-42.5 -15q-87 0 -82 181q2 60 7 105q-18 0 -27 7t-3 17q9 19 32 13q1 -1 3 -1q1 1 1 3q13 74 14 90q-8 -10 -26 -39q-32 -48 -64 -18q-8 7 -15 19q-6 13 -6 29zM98 -12q-2 -141 23 -192q16 -36 45 -30
q47 11 18 133q-24 102 -76 157q-2 0 -4 -1l-4 -2q-2 -42 -2 -65zM53 73q0 -2 0.5 -4t1 -3t3 -2.5t4 -2.5t5 -2.5t5.5 -2.5l3 22q-21 7 -22 -5zM101 59l3 1l-3 3v-4z" />
    <glyph glyph-name="r" unicode="r" horiz-adv-x="215" 
d="M-49 276q2 20 12.5 33.5t28.5 14.5q23 0 34 -16.5t6 -40.5q-6 -22 -28 -62q13 -17 46 -35q5 -6 -7 -36q0 -1 -5 -10.5t-9.5 -19.5t-10.5 -23.5t-10 -25.5t-7 -23t-2 -18t6 -9q15 -5 52 28q60 51 129 134q24 29 28 35h6q-20 -30 -85 -100q-43 -47 -78 -76q-37 -32 -57 -26
q-13 4 -21.5 12t-10.5 18t-2 20.5t5 24t9.5 24.5t12.5 24.5t12.5 21.5t12 18.5t8.5 12.5q-3 0 -23 14q-52 34 -52 80v6zM0 211q23 39 26 59q7 41 -15 44q-11 2 -18.5 -9t-9.5 -34q-3 -28 17 -60z" />
    <glyph glyph-name="s" unicode="s" horiz-adv-x="144" 
d="M149 200q-5 -8 -20.5 -18.5t-45 -27t-31.5 -18.5l1 -1q11 -28 8.5 -62.5t-16.5 -57.5q-33 -47 -74 -47h-1q-41 0 -44 37v1q0 32 32 64q18 20 56 47l-2 22q-8 35 -19 60q-25 55 3 83q11 11 22 11q16 0 22.5 -10t1.5 -27q-10 -24 -29 -43q29 -51 37 -72q5 3 31 17.5
t41.5 24.5t20.5 17h6zM15 111q-20 -10 -53 -43q-17 -17 -25 -38q-12 -33 5 -36.5t35 15.5q38 38 38 92v10zM25 235q17 27 12 42q-2 7 -11 6q-14 -2 -18.5 -24.5t3.5 -41.5q6 8 14 18z" />
    <glyph glyph-name="t" unicode="t" horiz-adv-x="183" 
d="M-76 387q0 7 7 7q4 0 6 -5t-2 -8q-5 1 -5 -3q0 -5 8 -14q21 -25 83 -18q6 18 13.5 47.5t10.5 38.5q4 4 8 4q9 3 17 -13q-1 -6 -5.5 -29t-8.5 -40q10 2 16 5q49 17 78 16q31 -2 39 -10q7 -7 7 -11q-1 -1 -1 -2q-4 -6 -12 -1q-3 2 -1 6q8 3 0 9t-28 6q-34 0 -74 -18
q-12 -6 -26 -9l-4 -22q-32 -167 -30 -260q0 -41 11 -47.5t33 17.5q75 87 116 167h8q-11 -16 -19 -31q-12 -22 -38 -58q-29 -42 -55 -72q-27 -30 -42 -30h-3q-13 3 -23 13q-28 38 -21 115q5 94 32 202h-11q-58 0 -74 26q-10 14 -10 22z" />
    <glyph glyph-name="u" unicode="u" horiz-adv-x="280" 
d="M24 73q-45 0 -45 68q0 10 3 36t3 28q8 7 20 3.5t19 -9.5q0 -2 -4 -35t-3.5 -59t9.5 -27q27 -3 73 167q1 3 5 3q17 0 31 -19q0 -22 -5.5 -78t-5.5 -82q-1 -34 7.5 -35.5t27.5 19.5q45 45 94 111q23 30 25 36q3 0 6 -1q-45 -70 -116 -142q-28 -28 -40 -28h-2q-36 7 -33 116
q0 33 3 57q3 26 2 27q-18 -69 -48 -129q-7 -14 -13.5 -21t-12.5 -6z" />
    <glyph glyph-name="v" unicode="v" horiz-adv-x="244" 
d="M108 195q32 -9 72 -9.5t62 14.5h6q-16 -19 -67 -18q-41 0 -73 7q-11 -66 -42 -115q-19 -31 -32 -31l-1 1q-15 1 -25 24q-13 31 -14 73q0 45 -7 56q4 12 22 16q16 4 20 -1q3 -9 3 -27q1 -13 1 -41v-63q0 -29 6 -31q8 -3 24.5 31.5t25.5 59.5q10 27 14 49v1q-35 7 -65.5 26
t-35.5 44q-4 19 6.5 29.5t29.5 10.5h4q38 -1 55 -29t12 -74q0 -2 -1 -3zM104 196q8 61 -21 83q-16 14 -37 9t-18 -27q3 -24 25.5 -41t50.5 -24z" />
    <glyph glyph-name="w" unicode="w" horiz-adv-x="335" 
d="M16 22q-34 8 -34 87v2q0 37 4 65q3 31 -1 38q3 3 25 9.5t25 0.5q2 -5 0 -31q-1 -6 -6.5 -56t-7.5 -73q-5 -33 1 -35q13 -2 43 79q6 13 20 44q7 20 11 26q5 4 20 4q14 0 22 -3q0 -13 11.5 -57.5t19.5 -44.5q9 0 19.5 42t11.5 67q-95 21 -102 65q-3 29 39 29q26 0 44.5 -16
t22.5 -42q2 -16 0 -33q96 -18 130 7q4 0 7 -1q-19 -16 -70 -16q-35 -2 -68 6q0 -11 -2 -35q-15 -81 -35 -79q-30 2 -49.5 32.5t-19.5 64.5q-2 -3 -28 -68q-14 -31 -28 -55q-12 -23 -22 -23h-3zM200 190q0 38 -14.5 64.5t-43.5 16.5q-19 -8 -15 -34q2 -28 73 -47z" />
    <glyph glyph-name="x" unicode="x" horiz-adv-x="251" 
d="M144 272q11 0 11 -7q0 -4 -5 -6t-9 2q1 3 -3 4q-3 0 -8 -2q-11 -4 -22 -17q-26 -30 -50 -91q2 -3 7 -14.5t9 -21t9.5 -20t11 -16.5t9.5 -7q7 -1 26 14q43 34 91 84q25 25 28 29q2 0 5 -1q0 -2 -20 -21q-6 -6 -19 -19.5t-20 -20.5q-28 -26 -55 -49q-28 -22 -39 -22h-1
q-29 2 -61 47q-14 -23 -22 -35t-27.5 -28.5t-37.5 -16.5q-12 0 -12 8q0 6 5 9t11 -1q-2 -3 4 -4q3 -1 8 -1q14 0 31 21q20 27 35 54q-23 34 -55 104q13 21 34 21q4 0 5 -1q7 -12 19 -42t17 -41q24 53 50 83q23 25 40 25z" />
    <glyph glyph-name="y" unicode="y" horiz-adv-x="236" 
d="M-54 -114q0 39 14 74t41.5 65t48.5 48t55 43q0 38 -8 130q-1 -1 -7 -16q-8 -21 -16 -34q-7 -16 -13 -26t-17 -24.5t-22.5 -13.5t-21.5 19q-8 19 -8 39q0 22 -8 22q2 3 5.5 7.5t11 11.5t12.5 8t10 -4q6 -13 2 -53q-4 -44 5 -44q5 0 15 12q31 48 51 107q8 11 21 12h3
q11 0 16 -8q-11 -24 -7 -96q0 -21 1 -32q13 10 51.5 32t52.5 36h6q-15 -20 -80 -55q-3 -2 -9.5 -5.5t-11.5 -6.5t-9 -6q6 -118 -6 -190t-64 -105q-26 -16 -47 -16q-30 0 -48.5 19t-18.5 50zM-45 -84q-8 -43 9.5 -66t57.5 0q83 49 83 262q-61 -44 -100 -89t-50 -107z" />
    <glyph glyph-name="z" unicode="z" horiz-adv-x="189" 
d="M0 44q20 0 45 -12.5t47 -11.5q12 0 19 8q8 8 0 10q-3 7 7.5 8t10.5 -7t-14 -15.5t-24 -8.5h-6q-33 0 -52 15q-23 15 -51 5q-6 3 -11 16t0 21q25 37 53 70q36 39 54 73q-11 -5 -28 -9.5t-38 -6.5t-35.5 5t-14.5 25q0 8 8 15.5t17 7.5q10 0 15.5 -9.5t3.5 -22.5q0 -5 -1 -8
q0 -1 -2 -7q46 -3 97 24q8 -14 7 -22.5t-12 -25.5q-55 -88 -95 -137zM0 212q0 3 0.5 7t0.5 12.5t-2.5 12.5t-7.5 1q-14 -11 -8 -29q5 -10 16 -11z" />
    <glyph glyph-name="braceleft" unicode="{" horiz-adv-x="189" 
d="M29 521q-1 22 22 36.5t46 16.5h10q14 0 20.5 -3.5t1.5 -11.5q-5 -5 -10 1q3 5 -0.5 7.5t-14.5 3.5q-17 0 -31 -12t-14 -31q2 -28 23.5 -89.5t21.5 -95.5q3 -56 -44 -77q69 -44 40 -122q-6 -17 -21 -49t-16 -34q-11 -26 1.5 -48t34.5 -25q12 -2 17.5 1.5t4.5 11.5
q5 1 8 -2q11 -6 -7 -13q-6 -3 -11 -3q-43 0 -64 35.5t0 81.5q20 44 27 85q9 50 -27 81q50 27 44 81q-4 32 -29 81q-13 27 -29 71q-4 11 -4 22z" />
    <glyph glyph-name="bar" unicode="|" horiz-adv-x="145" 
d="M71 5q-7 0 -12 11v68q1 44 1 153v75q1 25 1 73v172q1 1 2 1l14 -7q1 -10 1 -77v-13q0 -101 -1 -160q0 -92 -1 -136v-108q-1 -15 -1 -36q0 -14 1 -15q-2 -1 -5 -1z" />
    <glyph glyph-name="braceright" unicode="}" horiz-adv-x="207" 
d="M116 524q1 18 -14.5 30.5t-30.5 11.5q-11 0 -14.5 -2.5t0.5 -7.5q-5 -5 -9.5 -2t-2.5 9q4 7 22 7h11q23 -3 44 -16t24 -33v-4q0 -11 -5 -28q-4 -13 -28.5 -66.5t-27.5 -80.5q-6 -53 44 -81q-37 -27 -27 -81q8 -45 26 -85q21 -45 0 -80.5t-64 -35.5q-16 0 -21 9q0 11 12 8
q-3 -18 21 -13q16 3 29 17.5t12 34.5q-3 18 -15 43t-21.5 43.5t-14 46t7.5 49.5q10 23 42 44q-48 23 -45 77q0 22 7.5 49.5t18.5 60t14 44.5q5 20 5 32z" />
    <glyph glyph-name="asciitilde" unicode="~" horiz-adv-x="339" 
d="M274 255q0 -21 -22 -34.5t-49 -13.5q-21 0 -39.5 7t-39.5 20.5t-29 17.5q-9 4 -19 4q-24 0 -32 -9q-8 -10 -1 -11q2 -6 -6 -9q-9 -3 -9 8q0 9 12 23q17 20 56 20q23 0 47 -11l33 -18q32 -18 53 -18t30 10q8 10 1 11q-1 3 1.5 6.5t6.5 3.5t6 -4v-3z" />
    <glyph glyph-name="uni008e" horiz-adv-x="560" 
 />
    <glyph glyph-name="uni0099" horiz-adv-x="323" 
d="M164 511q5 0 7 -1l54 -69q9 17 22.5 42t17.5 33q1 1 5 1q2 0 3 -1h10l3 -159h-15q-1 33 -2.5 78t-1.5 56q-31 -53 -43 -73l-51 66q0 -100 1 -128q-17 0 -22 1q1 37 3 88.5t2 66.5q3 -1 7 -1zM138 511q0 -6 -1 -11q-27 0 -49 1q0 -12 2 -60.5t3 -84.5q-3 1 -10 -1h-3
q-4 0 -8 3v142q-26 0 -47 -1q1 2 1 6q1 3 1 5q25 1 111 1z" />
    <glyph glyph-name="exclamdown" unicode="&#xa1;" horiz-adv-x="154" 
d="M42 46q-8 0 -12 7q3 30 14.5 110.5t14.5 109.5l11 82q2 16 5.5 43t4.5 32q2 1 5 1h2q3 -3 5 -6q-4 -54 -9.5 -163.5t-6.5 -129.5q-3 -57 -5 -73q-13 -13 -29 -13zM91 491q-10 0 -10 13q0 14 14 14q9 0 9 -10v-6q-2 -8 -13 -11z" />
    <glyph glyph-name="cent" unicode="&#xa2;" horiz-adv-x="197" 
d="M129 395q0 -5 -11 -55q49 -9 38 -41q-8 -23 -21 -20q-5 2 -2.5 7t6.5 6q9 -6 14 9q5 20 -9 25q-22 9 -38 -9t-24 -44q-9 -22 -9 -62t19 -47q25 -8 44 13t18 25q2 7 8 -1q1 -2 1 -3q-4 -4 -22 -25q-12 -14 -34 -14q-6 0 -10 1q1 -4 1 -14q0 -8 -1 -13v-5.5v-5.5v-5
t-0.5 -4.5t-1 -3.5t-1.5 -3l-2 -2t-3 -1.5t-4 -0.5q-3 0 -5 2q0 4 5.5 29t5.5 28q-60 21 -60 82q0 40 20 68t54 30h6v11q0 9 1 14v5.5v5.5v5t0.5 4.5t1 3.5t1.5 3l2 2t3 1.5t4 0.5q4 0 5 -1v-1z" />
    <glyph glyph-name="sterling" unicode="&#xa3;" horiz-adv-x="330" 
d="M275 343q0 -24 -12 -45t-32 -22q-22 0 -30 14q-7 15 -4 20q3 3 7 2.5t6.5 -4t0.5 -6.5q-11 0 -3 -12t24 -11q12 1 20 14.5t9.5 31t-1 35t-12 28.5t-22.5 10q-45 -5 -57 -54q-14 -56 -19 -144q34 -11 50 -2q8 5 3 8q-2 6 5 7h3q4 0 6 -5v-1q0 -13 -26.5 -15t-40.5 3
l-3 -30q-5 -52 -21 -85h1q11 -4 27 -11t29.5 -12.5t25.5 -9.5q14 -5 19 -4q24 0 32 8q7 7 0 10q-1 3 1 5.5t5.5 2.5t5.5 -3q4 -6 -7 -17q-12 -10 -41 -12h-4q-40 0 -102 32q-21 -21 -41 -23q-30 -4 -35 17v4q-1 14 17.5 19t41.5 2q5 11 6 25q6 51 8 91q-25 4 -37 -2
q-12 -5 -4 -7q-2 -6 -7 -6q-4 -1 -6 5v1q0 8 15 12.5t27 3.5q3 -1 6 -1t7 -1v4q1 40 5.5 68.5t15.5 57t33 44.5t55 18h4q22 0 34 -16.5t12 -41.5zM71 64q17 2 26 17q-16 6 -26 5q-22 -3 -22 -9q0 -2 2 -5q8 -11 20 -8z" />
    <glyph glyph-name="yen" unicode="&#xa5;" horiz-adv-x="355" 
d="M308 142q-2 -2 -4 -5h-23q-5 -1 -14 -1q-15 -86 -61 -118q-19 -14 -45 -14q-30 0 -47.5 18t-10.5 45q8 28 36 29q15 0 23 -15q7 -13 -1 -20q-7 -3 -11 3q-2 4 2 7q13 -3 8 10q-5 12 -19 11q-21 -1 -27.5 -27t7.5 -42q10 -12 29.5 -14t34.5 8q38 30 52 118v2q-37 1 -40 0
l-2 4v1q2 2 4 3h39q1 6 2 11.5t2 11.5h-2q-39 2 -42 0q-1 2 -1 5q0 2 4 3h42q4 34 10 92q-42 -74 -69 -68q-51 10 -51 73q2 42 13 108q4 34 -20 34q-36 0 -59 -23t-24 -56q0 -37 41 -42q18 -2 27 12q4 7 2.5 10.5t-7.5 2.5q-2 2 0 6t5.5 5t6.5 -2q5 -6 -4 -22
q-9 -18 -31 -15q-23 2 -39 13.5t-16 32.5q0 19 19 44q28 37 82 37h2q23 -1 34.5 -13.5t13 -34.5t-1 -43t-7 -49t-4.5 -42q-1 -28 21 -33q20 -5 64 74q2 4 3 5q4 41 9 83q3 26 8.5 35.5t14.5 4.5t9 -19q0 -22 -15 -59q2 -79 -8 -152h37q1 -1 1 -2q-2 -2 -4 -5h-35l-3 -24h39
q1 -1 1 -2zM280 353v-11q18 49 5 58q-4 2 -5 -10q-1 -10 0 -37z" />
    <glyph glyph-name="section" unicode="&#xa7;" horiz-adv-x="277" 
d="M56 281q0 22 14 38t33 22q-38 36 -51 57q-8 16 -8 32v7q2 32 29.5 51.5t63.5 19.5q37 0 60 -17t23 -50q0 -22 -17.5 -40.5t-35.5 -20.5q-29 -3 -35 16q-4 18 2 23q5 4 9.5 -1t1.5 -10q-12 4 -6 -12q6 -17 26 -14t30.5 27t1.5 50q-11 36 -47 44q-31 7 -55.5 -9t-26.5 -46
q-5 -23 26 -56q34 -35 71 -63q33 -24 40 -52.5t-22 -54.5q-13 -12 -25 -16q34 -29 51 -56q8 -16 8 -31v-8q-4 -32 -30.5 -51t-62.5 -19q-37 0 -60 17t-23 49q0 21 18 40.5t35 21.5q29 3 35 -16q5 -19 -2 -23q-6 -5 -10 0.5t-2 10.5q6 -2 8 0.5t-1 10.5q-6 17 -27 14
q-20 -2 -30 -26t-3 -50q12 -37 48 -44q32 -7 54.5 8.5t27.5 45.5q3 27 -25 57q-34 35 -71 63q-41 30 -40 61zM152 212q23 6 25 44q0 12 -8 24.5t-16.5 20t-25 20t-20.5 16.5q-22 -7 -23 -44q0 -9 4 -18.5t13 -19t15.5 -15.5t19 -15.5t15.5 -12.5h1z" />
    <glyph glyph-name="dieresis" unicode="&#xa8;" horiz-adv-x="136" 
d="M44 492q-5 0 -10 4.5t-5 10.5q0 10 10 14h4q6 0 10.5 -5t4.5 -10q0 -6 -4.5 -10t-9.5 -4zM98 492q-14 0 -14 15q0 14 14 14q9 0 14 -16q0 -10 -9 -13h-5z" />
    <glyph glyph-name="copyright" unicode="&#xa9;" horiz-adv-x="316" 
d="M34 230q0 52 33.5 87t86.5 38h11q51 0 82.5 -32t32.5 -81v-5q0 -53 -34 -88t-88 -36h-6q-53 0 -84.5 31.5t-33.5 82.5v3zM168 118q44 2 70 36t28 81v9q0 47 -27 78t-74 31h-8q-42 -2 -66.5 -33.5t-24.5 -77.5q0 -50 27 -87t72 -37h3zM214 179q-4 -7 -18 -14.5t-25 -7.5
h-5q-26 3 -43 21.5t-17 46.5q0 38 19.5 65t51.5 27q21 0 30 -10t1 -28q-12 -25 -22 -18q-5 2 -3 5q0 2 3 4q6 -3 12.5 6t6.5 20.5t-12 14.5q-14 5 -26 -14.5t-19 -42.5q-9 -26 -4.5 -57.5t27.5 -34.5q12 -1 22 6q8 5 14 14q5 4 7 -3z" />
    <glyph glyph-name="registered" unicode="&#xae;" horiz-adv-x="283" 
d="M45 271q0 44 28.5 72t73.5 28q40 0 65 -25.5t26 -63.5v-4q0 -42 -26.5 -68.5t-69.5 -28.5h-6q-41 0 -65.5 24.5t-25.5 63.5v2zM150 184q35 2 55 28t22 63v7q0 38 -21 61.5t-58 23.5q-15 5 -39 -9q-42 -24 -42 -79q0 -40 21.5 -67.5t59.5 -27.5h2zM116 229q27 57 19 85
q1 2 6 3h5v-5q0 -2 -1.5 -16.5t-1.5 -21.5q19 5 29 16.5t0 32.5q-12 19 -39.5 16t-28.5 -29q-2 -26 6 -27t12 4q3 6 -2 6q-3 3 1 5q6 4 6 -2q1 -3 -3 -9q-5 -9 -16 -8q-15 3 -15 26v4q1 16 16.5 25.5t38.5 9.5q24 0 38.5 -14t4.5 -35q-10 -24 -45 -22q15 -11 20 -33
q7 -23 18 -25q9 1 10 5t4 3q3 0 3 -3t-5 -6.5t-9 -3.5q-18 0 -29 12.5t-13 31.5q-2 9 -4 12q-5 -21 -15 -42l-1 -1q-1 1 -3.5 1.5t-4 1.5t-1.5 3z" />
    <glyph glyph-name="macron" unicode="&#xaf;" horiz-adv-x="185" 
d="M27 484q0 10 10 17h45q24 1 62 1h5q1 -1 1 -4q0 -8 -5 -18q-37 -2 -75 0q-39 0 -42 -1q-1 2 -1 5z" />
    <glyph glyph-name="degree" unicode="&#xb0;" horiz-adv-x="150" 
d="M21 463q1 19 18 33.5t38 14.5h2q20 -1 34 -13t14 -31v-4q-2 -17 -18 -31t-33 -14q-19 0 -37 13.5t-18 31.5zM113 470q0 14 -9.5 25.5t-22.5 11.5q-11 0 -21 -16t-10 -29v-2q0 -14 8 -26t20 -12q15 0 25 15t10 33z" />
    <glyph glyph-name="acute" unicode="&#xb4;" horiz-adv-x="110" 
d="M62 533q5 0 11.5 -10.5t6.5 -13.5q-5 -13 -24 -26q-22 -15 -24 -19q-2 0 -5 3q1 3 15 31.5t15 31.5q3 3 5 3z" />
    <glyph glyph-name="mu" unicode="&#xb5;" horiz-adv-x="380" 
 />
    <glyph glyph-name="periodcentered" unicode="&#xb7;" horiz-adv-x="112" 
d="M61 252q-9 0 -15 5.5t-6 14.5q0 8 6 15t14 7q9 0 15 -7t6 -16q0 -7 -7 -13t-13 -6z" />
    <glyph glyph-name="cedilla" unicode="&#xb8;" horiz-adv-x="237" 
d="M192 -67q0 -27 -18 -42t-45 -15h-1q-25 0 -43.5 14.5t-18.5 37.5q6 34 35 38q12 2 26 -6.5t8 -17.5q-2 -2 -4 -1.5t-3.5 2.5t-0.5 4q7 2 -1 10q-14 10 -28 3t-20 -22q-7 -21 8 -42q18 -22 52 -10q30 14 28.5 44t-25.5 50q-22 19 -17 28q3 -1 9 -1q5 1 9 -1q0 -9 20 -19
q30 -15 30 -54z" />
    <glyph glyph-name="questiondown" unicode="&#xbf;" horiz-adv-x="362" 
d="M143 54q-41 2 -66.5 24t-25.5 61q0 69 69 125q34 25 74 53q37 24 45 68q3 18 -6 25q-8 7 -10 -5q-9 -5 -12 5q0 8 10 9q19 0 28.5 -16t4.5 -37q-9 -34 -46 -61t-70 -61q-40 -46 -44 -96q-4 -49 27 -72.5t81 -13.5q46 9 75 41.5t11 76.5q-18 41 -50 46q-26 4 -38 -11
q-11 -16 0 -19q4 -5 -3 -9q-6 -4 -10 1q-8 11 10 29q17 17 52 13q28 -5 45.5 -22.5t17.5 -47.5q0 -34 -26.5 -60t-61.5 -37q-27 -9 -66 -9h-15zM229 451q-8 2 -8 12q0 5 4 9.5t9 4.5q11 0 11 -10q0 -16 -14 -16h-2z" />
    <glyph glyph-name="Agrave" unicode="&#xc0;" horiz-adv-x="552" 
d="M507 21q-2 -22 -7.5 -31t-20.5 -9q-26 0 -49 50q-37 79 -58 214q-36 24 -84 36q-38 -201 -134 -268q-26 -18 -58.5 -24.5t-64.5 7.5q-16 11 -18 23l1 1q1 13 13.5 11t12.5 -12q-7 -6 4 -19t39 -10q43 4 78 57q49 76 101 239q-64 14 -98 -13q-25 -22 -2 -28q3 -8 -5 -16
t-16 0q-16 16 15 43q40 34 107 19q9 27 31 103.5t39 112.5q10 21 21 32q8 2 12 2q15 0 25 -5t9 -15q-6 -29 -6.5 -61.5t4.5 -69.5t9.5 -63t13 -67t11.5 -57q32 -32 53.5 -78t21.5 -95v-9zM295 313q-1 -7 -3 -13.5t-3 -13.5q42 -11 70 -26l12 -7q-12 64 -19 178q-2 36 -1 49
q0 18 2 34q-16 -11 -26 -49q-11 -37 -32 -152zM501 27q0 41 -20 86.5t-46 74.5q22 -93 42 -157q12 -39 14 -39q12 3 10 35zM340 612q8 25 17 25q4 0 18.5 -29t17.5 -38q-3 -3 -5 -3q-4 5 -24 20q-19 14 -24 25z" />
    <glyph glyph-name="Aacute" unicode="&#xc1;" horiz-adv-x="552" 
d="M507 21q-2 -22 -7.5 -31t-20.5 -9q-26 0 -49 50q-37 79 -58 214q-36 24 -84 36q-38 -201 -134 -268q-26 -18 -58.5 -24.5t-64.5 7.5q-16 11 -18 23l1 1q1 13 13.5 11t12.5 -12q-7 -6 4 -19t39 -10q43 4 78 57q49 76 101 239q-64 14 -98 -13q-25 -22 -2 -28q3 -8 -5 -16
t-16 0q-16 16 15 43q40 34 107 19q9 27 31 103.5t39 112.5q10 21 21 32q8 2 12 2q15 0 25 -5t9 -15q-6 -29 -6.5 -61.5t4.5 -69.5t9.5 -63t13 -67t11.5 -57q32 -32 53.5 -78t21.5 -95v-9zM295 313q-1 -7 -3 -13.5t-3 -13.5q42 -11 70 -26l12 -7q-12 64 -19 178q-2 36 -1 49
q0 18 2 34q-16 -11 -26 -49q-11 -37 -32 -152zM501 27q0 41 -20 86.5t-46 74.5q22 -93 42 -157q12 -39 14 -39q12 3 10 35zM354 568q2 8 17 37t19 29q5 1 11 -10t6 -15q-4 -10 -24 -24q-21 -15 -23 -20q-3 0 -6 3z" />
    <glyph glyph-name="Acircumflex" unicode="&#xc2;" horiz-adv-x="552" 
d="M479 -19q15 0 20.5 9t7.5 31v9q0 49 -22 95.5t-53 77.5q-5 24 -15 74q-14 85 -19 138q-6 64 2 106q1 10 -9 15t-25 5q-4 0 -12 -2q-19 -18 -42 -85q-7 -20 -23 -77t-26 -86q-67 15 -107 -19q-31 -27 -15 -43q8 -8 16 0t5 16q-23 6 2 28q34 27 98 13q-52 -163 -101 -239
q-35 -53 -78 -57q-28 -3 -39 10t-4 19q0 10 -12.5 12t-13.5 -11l-1 -1q1 -15 22 -25t42 -8q38 3 69 21.5t51.5 42.5t37.5 61t26.5 68t19.5 72q3 10 7 30q48 -12 84 -36q21 -135 58 -214q23 -50 49 -50zM295 313q21 115 32 152q10 38 26 49q-2 -16 -2 -34q-3 -53 12 -173
q2 -18 8 -54l-12 7q-28 15 -70 26q1 7 3 13.5t3 13.5zM435 188q33 -37 49 -85q17 -45 17 -76q2 -32 -10 -35q-2 0 -14 39q-20 64 -42 157zM326 562q19 23 53 65q3 -3 19 -22.5t28 -34.5q-11 -11 -34 -14q-2 6 -10.5 22.5t-13.5 27.5q-4 -5 -38 -47q-1 -1 -2 0q-2 2 -2 3z
" />
    <glyph glyph-name="Atilde" unicode="&#xc3;" horiz-adv-x="552" 
d="M479 -19q15 0 20.5 9t7.5 31v9q0 49 -22 95.5t-53 77.5q-5 24 -15 74q-14 85 -19 138q-6 64 2 106q1 10 -9 15t-25 5q-4 0 -12 -2q-19 -18 -42 -85q-7 -20 -23 -77t-26 -86q-67 15 -107 -19q-31 -27 -15 -43q8 -8 16 0t5 16q-23 6 2 28q34 27 98 13q-52 -163 -101 -239
q-35 -53 -78 -57q-28 -3 -39 10t-4 19q0 10 -12.5 12t-13.5 -11l-1 -1q1 -15 22 -25t42 -8q38 3 69 21.5t51.5 42.5t37.5 61t26.5 68t19.5 72q3 10 7 30q48 -12 84 -36q21 -135 58 -214q23 -50 49 -50zM295 313q21 115 32 152q10 38 26 49q-2 -16 -2 -34q-3 -53 12 -173
q2 -18 8 -54l-12 7q-28 15 -70 26q1 7 3 13.5t3 13.5zM435 188q33 -37 49 -85q17 -45 17 -76q2 -32 -10 -35q-2 0 -14 39q-20 64 -42 157zM438 604q-4 -13 -5.5 -18.5t-8.5 -12.5t-17 -9h-8q-17 0 -36 10q-37 22 -49 7q-3 -3 -3 -7q-1 0 -1 -1l-2 -1q-2 4 -2 6.5t4 14.5
q4 16 23 19h8q10 0 30 -8.5t31 -11.5t26 6q6 4 6 7h3z" />
    <glyph glyph-name="Adieresis" unicode="&#xc4;" horiz-adv-x="552" 
d="M507 21q-2 -22 -7.5 -31t-20.5 -9q-26 0 -49 50q-37 79 -58 214q-36 24 -84 36q-38 -201 -134 -268q-26 -18 -58.5 -24.5t-64.5 7.5q-16 11 -18 23l1 1q1 13 13.5 11t12.5 -12q-7 -6 4 -19t39 -10q43 4 78 57q49 76 101 239q-64 14 -98 -13q-25 -22 -2 -28q3 -8 -5 -16
t-16 0q-16 16 15 43q40 34 107 19q9 27 31 103.5t39 112.5q10 21 21 32q8 2 12 2q15 0 25 -5t9 -15q-6 -29 -6.5 -61.5t4.5 -69.5t9.5 -63t13 -67t11.5 -57q32 -32 53.5 -78t21.5 -95v-9zM295 313q-1 -7 -3 -13.5t-3 -13.5q42 -11 70 -26l12 -7q-12 64 -19 178q-2 36 -1 49
q0 18 2 34q-16 -11 -26 -49q-11 -37 -32 -152zM501 27q0 41 -20 86.5t-46 74.5q22 -93 42 -157q12 -39 14 -39q12 3 10 35zM402 575q-13 0 -13 15q0 14 13 14q4 0 9.5 -5t5.5 -10q0 -3 -3.5 -8t-6.5 -6h-5zM335 591q0 5 4 9.5t9 4.5q6 0 10 -5t4 -11q1 -3 -2.5 -7.5
t-6.5 -5.5h-4q-5 -2 -10 4t-4 11z" />
    <glyph glyph-name="Aring" unicode="&#xc5;" horiz-adv-x="552" 
d="M507 21q-2 -22 -7.5 -31t-20.5 -9q-26 0 -49 50q-37 79 -58 214q-36 24 -84 36q-38 -201 -134 -268q-26 -18 -58.5 -24.5t-64.5 7.5q-16 11 -18 23l1 1q1 13 13.5 11t12.5 -12q-7 -6 4 -19t39 -10q43 4 78 57q49 76 101 239q-64 14 -98 -13q-25 -22 -2 -28q3 -8 -5 -16
t-16 0q-16 16 15 43q40 34 107 19q9 27 31 103.5t39 112.5q10 21 21 32q8 2 12 2q15 0 25 -5t9 -15q-6 -29 -6.5 -61.5t4.5 -69.5t9.5 -63t13 -67t11.5 -57q32 -32 53.5 -78t21.5 -95v-9zM295 313q-1 -7 -3 -13.5t-3 -13.5q42 -11 70 -26l12 -7q-12 64 -19 178q-2 36 -1 49
q0 18 2 34q-16 -11 -26 -49q-11 -37 -32 -152zM501 27q0 41 -20 86.5t-46 74.5q22 -93 42 -157q12 -39 14 -39q12 3 10 35zM372 560q-13 1 -24 8.5t-11 19.5q0 13 12 22t26 9h1q12 0 20.5 -8t7.5 -20v-3q-1 -11 -9.5 -19.5t-19.5 -8.5h-3zM398 591q0 9 -6 16t-13 7
t-14.5 -8.5t-7.5 -16.5v-1q0 -8 5.5 -16t11.5 -9h2q8 0 14.5 8.5t7.5 16.5v3z" />
    <glyph glyph-name="AE" unicode="&#xc6;" horiz-adv-x="774" 
d="M66 0q-18 0 -36.5 9.5t-18.5 22.5v2q0 8 7 10t13.5 -2t6.5 -10q-7 -4 4 -18q11 -13 38 -10q44 4 78 57q57 87 100 237q-24 7 -64 5.5t-54 -15.5q-13 -13 -5 -16q6 -5 -4 -9q-12 -4 -14 7q0 6 11 19q18 18 73 18q31 0 58 -6q4 13 24 80t30 96q17 56 38 77q8 2 13 2
q15 0 25 -5t9 -15q-11 -46 0 -163q7 -59 18 -125q19 37 55 68.5t79 46.5q0 1 -0.5 2.5t-1.5 2.5q-27 55 5.5 109t90.5 54q13 0 31 -5q24 -5 37 -26q15 -29 1 -62q-15 -36 -48 -37q-16 -1 -26 15q-8 17 -1 25q3 4 10 -1t4 -12q-11 -1 -7 -13q3 -11 19 -10q20 2 32.5 29.5
t6.5 56t-31 33.5q-35 10 -61.5 -15.5t-31 -63.5t8.5 -74q62 11 83 -10q15 -15 1 -34q-9 -12 -29 -12.5t-38.5 6.5t-29.5 15l-14 14q-84 -56 -108 -173q-14 -65 8.5 -111.5t74.5 -59.5q25 -7 61 10q24 11 44 30q54 45 104 119q26 36 28 42q3 1 4 0h2q-84 -139 -165 -188
q-39 -22 -63 -20q-11 0 -21 3q-80 21 -113 75l-6 12q-9 15 -14 37q-12 36 -24 108q-44 40 -89 56q-2 -6 -3 -12t-3 -13q-43 -182 -127 -238q-37 -27 -85 -27zM324 479q-8 -31 -21.5 -99t-17.5 -86q45 -14 85 -45q-16 104 -20 192q-5 63 0 86q-16 -11 -26 -48zM668 351
q5 13 -19 17q-29 5 -56 -3q15 -20 38 -25q31 -7 37 11z" />
    <glyph glyph-name="Ccedilla" unicode="&#xc7;" horiz-adv-x="417" 
d="M194 4q-71 16 -109.5 75.5t-42.5 148.5v16q0 77 29 145.5t74 101.5q41 31 89 31q56 0 86.5 -30t21.5 -87q-4 -30 -22.5 -58t-42.5 -29q-31 -3 -45 19q-13 20 -4 31q3 4 8 3t8 -6t0 -9q-13 -1 -6 -19q7 -17 35 -16q29 2 43.5 65.5t-1.5 94.5q-12 24 -39.5 32.5t-57.5 -5.5
q-51 -28 -82 -103t-32.5 -158.5t20.5 -160.5q17 -49 51 -69t80 4q66 45 127 128q33 45 34 49q2 2 3 1h4q-13 -25 -47 -67.5t-62 -69.5t-57 -44q-24 -14 -38 -15q2 -12 27 -23q39 -19 39 -73q0 -35 -23.5 -54t-59.5 -19h-1q-32 0 -56 18.5t-24 48.5q0 43 44 50q24 4 37 -9
q12 -14 8 -21q-2 -3 -5.5 -2.5t-5 3.5t0.5 6q8 2 -2 11q-10 10 -29 7q-16 -2 -26.5 -17t-9.5 -34.5t13 -34.5q13 -16 30.5 -19.5t32.5 4.5t27 21.5t13.5 32.5t-6.5 38q-13 20 -39 49q-11 11 -10 18z" />
    <glyph glyph-name="Egrave" unicode="&#xc8;" 
d="M224 -11q-12 0 -22 3q-59 17 -97 55.5t-38 98.5v2q0 33 11 66q17 46 56 85t89 55q-28 57 1.5 112.5t90.5 55.5q54 0 69 -32q17 -28 2 -62q-15 -33 -48 -35q-19 -2 -26 13q-9 16 -2 26q3 5 10 -1q8 -5 4 -12q-12 -2 -8 -13q4 -12 21 -10q17 1 28 22.5t10 48.5t-14 40
q-14 11 -33 10.5t-33 -10.5q-28 -18 -40 -62t6 -83q25 3 47 2q22 0 37 -13.5t0 -32.5q-13 -18 -37 -14t-44.5 14.5t-31.5 21.5q-64 -42 -95 -131q-20 -52 -13 -107.5t40 -83.5q37 -30 74 -23q14 3 32 11q19 11 43 30q80 74 133 162h3q1 -1 3 -1q-80 -135 -166 -187
q-34 -21 -62 -21zM306 361q-22 0 -41 -6q8 -17 38 -25q32 -8 37 11q3 9 -5.5 14t-28.5 6zM283 584q8 24 18 24q4 0 18 -28t17 -38l-2 -2q-1 -1 -4 -1q-2 6 -22 20q-21 15 -25 25z" />
    <glyph glyph-name="Eacute" unicode="&#xc9;" 
d="M224 -11q-12 0 -22 3q-59 17 -97 55.5t-38 98.5v2q0 33 11 66q17 46 56 85t89 55q-28 57 1.5 112.5t90.5 55.5q54 0 69 -32q17 -28 2 -62q-15 -33 -48 -35q-19 -2 -26 13q-9 16 -2 26q3 5 10 -1q8 -5 4 -12q-12 -2 -8 -13q4 -12 21 -10q17 1 28 22.5t10 48.5t-14 40
q-14 11 -33 10.5t-33 -10.5q-28 -18 -40 -62t6 -83q25 3 47 2q22 0 37 -13.5t0 -32.5q-13 -18 -37 -14t-44.5 14.5t-31.5 21.5q-64 -42 -95 -131q-20 -52 -13 -107.5t40 -83.5q37 -30 74 -23q14 3 32 11q19 11 43 30q80 74 133 162h3q1 -1 3 -1q-80 -135 -166 -187
q-34 -21 -62 -21zM306 361q-22 0 -41 -6q8 -17 38 -25q32 -8 37 11q3 9 -5.5 14t-28.5 6zM346 614q5 0 11.5 -11t6.5 -14q-4 -10 -24 -25q-22 -15 -24 -19q-4 0 -4 3q1 4 15 32.5t14 30.5q1 3 5 3z" />
    <glyph glyph-name="Ecircumflex" unicode="&#xca;" 
d="M315 522q-40 0 -66 -24t-36 -61q-11 -42 10 -83q-50 -16 -89 -55t-56 -85q-11 -33 -11 -66v-2q0 -60 38 -98.5t97 -55.5q10 -3 22 -3q44 0 106 53q70 67 122 155q-2 0 -3 1h-3q-56 -93 -133 -162q-24 -19 -43 -30q-34 -17 -62 -10q-49 13 -71 57q-34 63 0 156
q31 89 95 131q11 -11 31.5 -21.5t44.5 -14.5t37 14q15 19 1 32.5t-38 13.5q-22 1 -47 -2q-23 45 -2.5 95.5t59.5 59.5q36 6 51 -20t2 -65q-12 -34 -34 -36q-17 -2 -21 10q-4 11 8 13q4 7 -4 12q-11 9 -12 -6q-1 -11 4 -19q7 -15 26 -13q33 2 48 35q17 41 -5.5 67.5
t-65.5 26.5zM269 552q6 7 23 29t29 37q0 -1 47 -56q-8 -9 -33 -15q-19 42 -23 51q-6 -8 -39 -49q-1 -1 -2 0l-1 1q0 2 -1 2zM306 361q20 -1 28.5 -6t5.5 -14q-5 -19 -37 -11q-30 8 -38 25q19 6 41 6z" />
    <glyph glyph-name="Edieresis" unicode="&#xcb;" 
d="M224 -11q-12 0 -22 3q-59 17 -97 55.5t-38 98.5v2q0 33 11 66q17 46 56 85t89 55q-28 57 1.5 112.5t90.5 55.5q54 0 69 -32q17 -28 2 -62q-15 -33 -48 -35q-19 -2 -26 13q-9 16 -2 26q3 5 10 -1q8 -5 4 -12q-12 -2 -8 -13q4 -12 21 -10q17 1 28 22.5t10 48.5t-14 40
q-14 11 -33 10.5t-33 -10.5q-28 -18 -40 -62t6 -83q25 3 47 2q22 0 37 -13.5t0 -32.5q-13 -18 -37 -14t-44.5 14.5t-31.5 21.5q-64 -42 -95 -131q-20 -52 -13 -107.5t40 -83.5q37 -30 74 -23q14 3 32 11q19 11 43 30q80 74 133 162h3q1 -1 3 -1q-80 -135 -166 -187
q-34 -21 -62 -21zM306 361q-22 0 -41 -6q8 -17 38 -25q32 -8 37 11q3 9 -5.5 14t-28.5 6zM348 557q-15 0 -15 14q0 9 10 15h4q5 0 9.5 -5.5t4.5 -10.5q0 -13 -13 -13zM293 558q-14 0 -14 14q0 6 4.5 10.5t9.5 4.5t10 -5.5t5 -10.5t-5 -9t-10 -4z" />
    <glyph glyph-name="Igrave" unicode="&#xcc;" horiz-adv-x="379" 
d="M147 -21q-45 0 -75.5 27t-30.5 67v6q3 56 59 50q39 -8 36 -43q-1 -23 -27 -25q-18 -1 -25 10q-7 12 -2 21q3 5 10 0q5 -4 1 -10q-5 1 -6 -2t1 -8q4 -10 18 -9q19 2 11 36q-9 32 -40 28q-26 -4 -27 -46q-2 -43 27 -72q33 -30 75 -26q26 2 45 23t30 60.5t15.5 66.5t9.5 72
q1 12 2 17l8 78q17 141 31 182q-82 -14 -116 -40q-19 -15 -23.5 -40.5t9.5 -49.5q16 -23 30 -22q23 1 28 20q2 9 0 11.5t-7 0.5q-4 2 -4 6t3.5 7.5t7.5 1.5q11 -4 4 -26t-32 -24q-54 -2 -62 39q-8 42 39 75t100 41q9 1 25 5q17 41 42 52q10 5 16 5h1q21 0 21 -19
q1 -15 -41 -30q-8 -25 -13 -79q-17 -252 -63 -354q-40 -83 -111 -83zM250 592q2 5 8 14.5t11 9.5q1 0 4 -3q1 -3 15 -31t15 -32q-3 -3 -5 -3q-2 4 -24 19q-19 13 -24 26zM370 529q-5 8 -17 -4.5t-17 -24.5q6 3 11.5 5.5t13.5 7t9.5 8.5t-0.5 8z" />
    <glyph glyph-name="Iacute" unicode="&#xcd;" horiz-adv-x="379" 
d="M147 -21q-45 0 -75.5 27t-30.5 67v6q3 56 59 50q39 -8 36 -43q-1 -23 -27 -25q-18 -1 -25 10q-7 12 -2 21q3 5 10 0q5 -4 1 -10q-5 1 -6 -2t1 -8q4 -10 18 -9q19 2 11 36q-9 32 -40 28q-26 -4 -27 -46q-2 -43 27 -72q33 -30 75 -26q26 2 45 23t30 60.5t15.5 66.5t9.5 72
q1 12 2 17l8 78q17 141 31 182q-82 -14 -116 -40q-19 -15 -23.5 -40.5t9.5 -49.5q16 -23 30 -22q23 1 28 20q2 9 0 11.5t-7 0.5q-4 2 -4 6t3.5 7.5t7.5 1.5q11 -4 4 -26t-32 -24q-54 -2 -62 39q-8 42 39 75t100 41q9 1 25 5q17 41 42 52q10 5 16 5h1q21 0 21 -19
q1 -15 -41 -30q-8 -25 -13 -79q-17 -252 -63 -354q-40 -83 -111 -83zM270 546q1 7 15.5 36.5t18.5 29.5q9 0 17 -24q-5 -13 -24 -26q-21 -16 -23 -19q-4 0 -4 3zM370 529q-5 8 -17 -4.5t-17 -24.5q6 3 11.5 5.5t13.5 7t9.5 8.5t-0.5 8z" />
    <glyph glyph-name="Icircumflex" unicode="&#xce;" horiz-adv-x="379" 
d="M375 525q0 19 -21 19h-1q-34 0 -58 -57q-16 -4 -25 -5q-53 -8 -100 -41t-39 -75q8 -41 62 -39q25 2 32 24t-4 26q-4 2 -7.5 -1.5t-3.5 -7.5t4 -6q5 2 7 -0.5t0 -11.5q-5 -19 -28 -20q-18 -1 -30.5 23t-10.5 47q3 18 14 31.5t22 21t33.5 14t34 9t37.5 6.5
q-14 -41 -31 -182l-8 -78q-15 -128 -42 -189q-15 -33 -41 -45.5t-63 1.5q-16 7 -31 20q-29 29 -27 72q1 42 27 46q31 4 40 -28q8 -34 -11 -36q-14 -1 -18 9q-2 5 -1 8t6 2q3 3 1 7t-5.5 4.5t-6.5 -1.5q-6 -7 2 -21q7 -11 25 -10q27 2 27 26t-20 36q-15 9 -38 5
q-34 -6 -37 -49v-6q0 -40 30.5 -67t75.5 -27q32 0 56.5 14.5t40 41.5t24.5 51.5t17 59.5q25 112 36 270q5 54 13 79q42 15 41 30zM253 570q9 10 53 66q2 -3 18.5 -22.5t28.5 -34.5q-4 -4 -18 -9q-8 -3 -17 -6q-2 5 -23 51q-15 -19 -37 -49q-1 -1 -3 1t-2 3zM336 500
q5 12 17 24.5t17 4.5q2 -4 0.5 -8t-9.5 -8.5t-13.5 -7t-11.5 -5.5z" />
    <glyph glyph-name="Idieresis" unicode="&#xcf;" horiz-adv-x="379" 
d="M147 -21q-45 0 -75.5 27t-30.5 67v6q3 56 59 50q39 -8 36 -43q-1 -23 -27 -25q-18 -1 -25 10q-7 12 -2 21q3 5 10 0q5 -4 1 -10q-5 1 -6 -2t1 -8q4 -10 18 -9q19 2 11 36q-9 32 -40 28q-26 -4 -27 -46q-2 -43 27 -72q33 -30 75 -26q26 2 45 23t30 60.5t15.5 66.5t9.5 72
q1 12 2 17l8 78q17 141 31 182q-82 -14 -116 -40q-19 -15 -23.5 -40.5t9.5 -49.5q16 -23 30 -22q23 1 28 20q2 9 0 11.5t-7 0.5q-4 2 -4 6t3.5 7.5t7.5 1.5q11 -4 4 -26t-32 -24q-54 -2 -62 39q-8 42 39 75t100 41q9 1 25 5q17 41 42 52q10 5 16 5h1q21 0 21 -19
q1 -15 -41 -30q-8 -25 -13 -79q-17 -252 -63 -354q-40 -83 -111 -83zM334 562q-15 0 -15 15q0 6 4.5 10.5t9.5 4.5t10 -5.5t5 -10.5q0 -6 -4.5 -10t-9.5 -4zM279 563q-13 0 -13 15t13 15q4 0 9.5 -6t5.5 -10q0 -3 -3.5 -8t-6.5 -6h-5zM370 529q-5 8 -17 -4.5t-17 -24.5
q6 3 11.5 5.5t13.5 7t9.5 8.5t-0.5 8z" />
    <glyph glyph-name="Eth" unicode="&#xd0;" horiz-adv-x="576" 
d="M282 227q-7 -117 -20 -156q-6 -18 -14 -31q8 -3 41 -17q30 -15 68 -24q47 -8 72 21q32 43 38 126q5 96 -22 185.5t-77 137.5q-58 58 -137 45q-67 -12 -110.5 -56t-59.5 -110q-10 -29 -8 -70t23 -47q28 -7 52.5 4t33.5 30q7 18 -8 20q-3 7 1.5 13t11 6t10.5 -6
q4 -7 -6 -28q-30 -57 -91 -44q-48 13 -49 76v4q0 52 31.5 98.5t76.5 75.5q66 43 150 43q87 0 145 -60q52 -53 67 -139q11 -47 9 -92q0 -138 -66 -212q-30 -35 -74 -35q-17 0 -36.5 5t-30.5 10t-33.5 16t-27.5 13q-21 -33 -55 -38q-44 -8 -56 19q-9 18 9.5 33.5t45.5 13.5
q18 -2 34 -7q5 11 6 22q10 66 15 146v9q-39 0 -42 -1l-2 4q0 12 11 17h34l5 58q12 147 69 174q7 -2 7 -7q-29 -13 -34 -83q-3 -48 -7 -141h38q1 -1 1 -4t-7 -17h-32zM217 40q-12 12 -33.5 12t-37 -10t-10.5 -25q8 -19 39 -15q29 5 42 38z" />
    <glyph glyph-name="Ntilde" unicode="&#xd1;" horiz-adv-x="578" 
d="M527 -37q13 0 27.5 4t14.5 10v2q0 6 -8 7q-11 0 -12 -6q7 -11 -13 -13q-16 -2 -27 2q-27 8 -31 72.5t3 110.5q2 38 6 80l6 82q4 53 4 115q-2 86 -29 113q-10 9 -26 9h-1q-17 0 -35 -29q-43 -70 -95 -260q-10 -39 -15 -59q4 51 4.5 106.5t-15.5 106t-47 63.5q-15 7 -36 3
q-72 -11 -128 -85q-36 -46 -43 -93v-12q-2 -39 37 -51q20 -8 45 2q24 12 38 32q14 22 10 28q-4 8 -11.5 4t-8.5 -11q13 -4 1 -25q-19 -30 -53 -30q-9 -2 -17 3q-20 6 -21 32t7 49t19 44q47 96 121 110q20 4 33.5 -20t18.5 -75q11 -101 -21 -269q2 -9 18 -23t26 -5
q28 140 88 319q19 61 36 93q12 22 20 30q9 12 17 12q18 0 12 -69q-2 -19 -8 -80.5t-8.5 -97.5t-4.5 -89.5t2.5 -97t15.5 -78.5q20 -66 84 -66zM366 584q0 17 9 28.5t27 11.5q9 0 24.5 -6t27 -11.5t23.5 -4t18 13.5h2q1 0 2 -1v-1q0 -16 -10.5 -27.5t-27.5 -11.5q-9 0 -29 9
t-32 12.5t-24 -4.5q-4 -4 -4 -7q0 -1 -1 -1t-2 -1q-2 0 -3 1z" />
    <glyph glyph-name="Ograve" unicode="&#xd2;" horiz-adv-x="488" 
d="M35 188q0 88 36.5 160t97.5 100q9 0 9 -10q-31 -16 -51.5 -87.5t-25.5 -138.5q-10 -147 57 -203q35 -27 76 -20.5t71 40.5q82 94 103 262q5 55 5 114t-26.5 98.5t-77.5 26.5q-62 -22 -80 -99q-11 -41 0.5 -73t41.5 -39q27 -5 50 18q22 22 3 25q0 4 4.5 9t9.5 5t8 -6
q4 -8 -21 -36q-33 -29 -76.5 -14t-56.5 46q-19 40 0 81t50 65q36 27 77 27h14q63 -7 84 -81q14 -48 14 -103q0 -100 -32.5 -186t-85.5 -142q-43 -45 -96 -45h-1q-85 1 -132.5 57t-48.5 144v5zM260 603q8 24 17 24q5 0 18.5 -28t16.5 -38l-1 -1q-1 -1 -4 -1q-1 3 -23 19
q-19 14 -24 25z" />
    <glyph glyph-name="Oacute" unicode="&#xd3;" horiz-adv-x="488" 
d="M35 188q0 88 36.5 160t97.5 100q9 0 9 -10q-31 -16 -51.5 -87.5t-25.5 -138.5q-10 -147 57 -203q35 -27 76 -20.5t71 40.5q82 94 103 262q5 55 5 114t-26.5 98.5t-77.5 26.5q-62 -22 -80 -99q-11 -41 0.5 -73t41.5 -39q27 -5 50 18q22 22 3 25q0 4 4.5 9t9.5 5t8 -6
q4 -8 -21 -36q-33 -29 -76.5 -14t-56.5 46q-19 40 0 81t50 65q36 27 77 27h14q63 -7 84 -81q14 -48 14 -103q0 -100 -32.5 -186t-85.5 -142q-43 -45 -96 -45h-1q-85 1 -132.5 57t-48.5 144v5zM285 562q1 7 15.5 37t18.5 30q10 0 18 -25q-4 -10 -25 -25q-19 -15 -22 -19
q-5 0 -5 2z" />
    <glyph glyph-name="Ocircumflex" unicode="&#xd4;" horiz-adv-x="488" 
d="M35 188q0 88 36.5 160t97.5 100q9 0 9 -10q-31 -16 -51.5 -87.5t-25.5 -138.5q-10 -147 57 -203q35 -27 76 -20.5t71 40.5q82 94 103 262q5 55 5 114t-26.5 98.5t-77.5 26.5q-62 -22 -80 -99q-11 -41 0.5 -73t41.5 -39q27 -5 50 18q22 22 3 25q0 4 4.5 9t9.5 5t8 -6
q4 -8 -21 -36q-33 -29 -76.5 -14t-56.5 46q-19 40 0 81t50 65q36 27 77 27h14q63 -7 84 -81q14 -48 14 -103q0 -100 -32.5 -186t-85.5 -142q-43 -45 -96 -45h-1q-85 1 -132.5 57t-48.5 144v5zM260 571q5 7 22.5 29t29.5 38q10 -12 47 -57q-6 -6 -16 -10q-5 -2 -11 -3l-6 -2
q-19 42 -23 51q-15 -20 -38 -49q-1 -1 -5 3z" />
    <glyph glyph-name="Otilde" unicode="&#xd5;" horiz-adv-x="488" 
d="M35 188q0 88 36.5 160t97.5 100q9 0 9 -10q-31 -16 -51.5 -87.5t-25.5 -138.5q-10 -147 57 -203q35 -27 76 -20.5t71 40.5q82 94 103 262q5 55 5 114t-26.5 98.5t-77.5 26.5q-62 -22 -80 -99q-11 -41 0.5 -73t41.5 -39q27 -5 50 18q22 22 3 25q0 4 4.5 9t9.5 5t8 -6
q4 -8 -21 -36q-33 -29 -76.5 -14t-56.5 46q-19 40 0 81t50 65q36 27 77 27h14q63 -7 84 -81q14 -48 14 -103q0 -100 -32.5 -186t-85.5 -142q-43 -45 -96 -45h-1q-85 1 -132.5 57t-48.5 144v5zM239 567q0 40 36 40q18 0 35 -10q37 -18 52 -5q5 7 5 8h3q1 0 2 -1v-1
q0 -16 -11 -27.5t-28 -11.5q-10 0 -37 11t-34 11q-6 0 -12 -4t-6 -9q-1 -1 -3 -1q-1 -1 -2 0z" />
    <glyph glyph-name="Odieresis" unicode="&#xd6;" horiz-adv-x="488" 
d="M35 188q0 88 36.5 160t97.5 100q9 0 9 -10q-31 -16 -51.5 -87.5t-25.5 -138.5q-10 -147 57 -203q35 -27 76 -20.5t71 40.5q82 94 103 262q5 55 5 114t-26.5 98.5t-77.5 26.5q-62 -22 -80 -99q-11 -41 0.5 -73t41.5 -39q27 -5 50 18q22 22 3 25q0 4 4.5 9t9.5 5t8 -6
q4 -8 -21 -36q-33 -29 -76.5 -14t-56.5 46q-19 40 0 81t50 65q36 27 77 27h14q63 -7 84 -81q14 -48 14 -103q0 -100 -32.5 -186t-85.5 -142q-43 -45 -96 -45h-1q-85 1 -132.5 57t-48.5 144v5zM317 572q-13 0 -13 15q0 16 13 16q15 -5 15 -17q0 -5 -5 -9.5t-10 -4.5zM250 588
q0 10 10 15h3q6 0 10 -5t4 -11q1 -5 -3.5 -9.5t-9.5 -4.5q-6 0 -10.5 5t-3.5 10z" />
    <glyph glyph-name="multiply" unicode="&#xd7;" horiz-adv-x="208" 
d="M88 242q-5 5 -25.5 28t-24.5 27v4q0 9 7 12l3 -3q2 -3 6.5 -8.5t10.5 -11.5q1 -2 34 -37q5 6 16 18.5t16 18.5q3 3 6 6.5t5 5.5t3.5 4t2.5 3l2 2l1 1q6 -2 7 -6q0 -4 1 -6q0 -4 -23 -29q-4 -5 -28 -29q30 -30 51 -54q-4 -11 -9 -13q-22 25 -52 55q-24 -24 -52 -56
q-6 5 -8 14q7 8 24.5 26.5t25.5 27.5z" />
    <glyph glyph-name="Oslash" unicode="&#xd8;" horiz-adv-x="488" 
d="M366 528q65 -35 65 -173q0 -100 -32.5 -186t-85.5 -142q-43 -45 -96 -45h-1q-53 1 -96 26q-21 -46 -22 -47q-6 -2 -8 5q-2 3 -4 11q0 3 19 41q-69 60 -70 165v5q0 88 36.5 160t97.5 100q9 0 9 -10q-31 -16 -51.5 -87.5t-25.5 -138.5q-7 -97 20 -153q1 -1 1 -4
q49 102 116 244l10 21q-37 12 -55.5 45t-1.5 77q15 41 48 69t80 28h14q12 -2 17 -4q3 6 5 12t3.5 9.5t2.5 5.5q5 0 14 -12q-1 -2 -9 -22zM133 36q31 -45 85 -48q48 -3 87 41q82 94 103 262q12 64 2 138t-46 95q-11 -25 -31 -68q-11 -24 -33.5 -71.5t-30.5 -65.5h2
q27 -5 50 18q22 22 3 25q0 4 4.5 9t9.5 5t8 -6q4 -8 -21 -36q-25 -26 -58 -19q-4 -9 -8 -17l-8 -16q-23 -47 -68.5 -142.5t-49.5 -103.5zM348 531q-45 12 -76.5 -21t-42.5 -79q-9 -31 -2.5 -61t24.5 -43q41 82 97 204z" />
    <glyph glyph-name="Ugrave" unicode="&#xd9;" horiz-adv-x="502" 
d="M501 -28q-1 -6 -11 -10t-20 -4q-50 0 -81 51q-30 51 -34 121q-40 -74 -73 -110t-53 -32q-86 13 -61 202q5 40 17 116.5t17 109.5q12 83 -9 104q-15 19 -67 -4q-63 -26 -88 -97q-12 -36 -3 -65q11 -29 44 -30q21 0 31 18q9 16 -4 19q-3 3 0 8.5t8.5 7t9.5 -1.5
q10 -7 -6 -31q-18 -24 -41 -24q-67 2 -67 62q0 65 68 112q49 38 110 38q81 -2 60 -181q-4 -38 -17 -118t-17 -121q-7 -48 -4 -82q2 -34 21 -35q22 -4 56 40q37 51 63 102q2 6 4 9q-6 97 21 174q8 25 18 36t22 10q33 -5 -13 -132q-5 -131 14 -213q12 -53 40 -59q19 -3 30 5
q4 3 1 7q2 5 8 4q4 0 5.5 -1.5t0.5 -3.5v-1zM312 567q8 25 17 25q5 0 18.5 -29t16.5 -38q-3 -3 -5 -3q-5 7 -23 20q-19 14 -24 25zM414 351q-4 -17 -10 -86q29 82 14 93q-2 2 -3 -2q-1 -2 -1 -5z" />
    <glyph glyph-name="Uacute" unicode="&#xda;" horiz-adv-x="502" 
d="M501 -28q-1 -6 -11 -10t-20 -4q-50 0 -81 51q-30 51 -34 121q-40 -74 -73 -110t-53 -32q-86 13 -61 202q5 40 17 116.5t17 109.5q12 83 -9 104q-15 19 -67 -4q-63 -26 -88 -97q-12 -36 -3 -65q11 -29 44 -30q21 0 31 18q9 16 -4 19q-3 3 0 8.5t8.5 7t9.5 -1.5
q10 -7 -6 -31q-18 -24 -41 -24q-67 2 -67 62q0 65 68 112q49 38 110 38q81 -2 60 -181q-4 -38 -17 -118t-17 -121q-7 -48 -4 -82q2 -34 21 -35q22 -4 56 40q37 51 63 102q2 6 4 9q-6 97 21 174q8 25 18 36t22 10q33 -5 -13 -132q-5 -131 14 -213q12 -53 40 -59q19 -3 30 5
q4 3 1 7q2 5 8 4q4 0 5.5 -1.5t0.5 -3.5v-1zM327 521q3 8 17 37.5t17 29.5q6 0 12 -9.5t7 -15.5q-4 -10 -25 -25q-20 -14 -23 -19q-3 0 -5 2zM414 351q-4 -17 -10 -86q29 82 14 93q-2 2 -3 -2q-1 -2 -1 -5z" />
    <glyph glyph-name="Ucircumflex" unicode="&#xdb;" horiz-adv-x="502" 
d="M10 382q0 -60 67 -62q23 0 41 24q16 24 6 31q-4 3 -9.5 1.5t-8.5 -7t0 -8.5q13 -3 4 -19q-10 -18 -31 -18q-33 1 -44 30q-12 38 6.5 76t46.5 62q34 31 86 35q12 1 19 -7q21 -21 9 -104q-4 -31 -16.5 -108t-17.5 -118q-25 -189 61 -202q20 -4 53 32t73 110q7 -107 61 -154
q25 -18 54 -18q10 0 20 4t11 10v1q1 2 -0.5 3.5t-5.5 1.5q-6 1 -8 -4q5 -7 -11 -11q-11 -3 -20 -1q-49 10 -55 179q-1 31 1 93q44 127 13 132q-19 2 -32.5 -22t-19.5 -61.5t-8.5 -73.5t-0.5 -63q-2 -3 -4 -9q-26 -51 -63 -102q-34 -44 -56 -40q-19 1 -21 35q-4 12 -0.5 49.5
t5.5 52.5t8 51.5t8 47.5q26 156 18 223q-7 77 -61 78q-59 0 -105.5 -33t-64.5 -80q-8 -21 -8 -37zM294 521q6 7 54 65q3 -4 18.5 -23.5t27.5 -33.5q-2 -2 -9 -5t-15 -5.5t-10 -3.5q-2 6 -10 22.5t-13 28.5q-8 -10 -38 -48q-1 -2 -3 0l-1 1q-1 1 -1 2zM404 265q6 69 10 86
q2 8 4 7q15 -11 -14 -93z" />
    <glyph glyph-name="Udieresis" unicode="&#xdc;" horiz-adv-x="502" 
d="M501 -28q-1 -6 -11 -10t-20 -4q-50 0 -81 51q-30 51 -34 121q-40 -74 -73 -110t-53 -32q-86 13 -61 202q5 40 17 116.5t17 109.5q12 83 -9 104q-15 19 -67 -4q-63 -26 -88 -97q-12 -36 -3 -65q11 -29 44 -30q21 0 31 18q9 16 -4 19q-3 3 0 8.5t8.5 7t9.5 -1.5
q10 -7 -6 -31q-18 -24 -41 -24q-67 2 -67 62q0 65 68 112q49 38 110 38q81 -2 60 -181q-4 -38 -17 -118t-17 -121q-7 -48 -4 -82q2 -34 21 -35q22 -4 56 40q37 51 63 102q2 6 4 9q-6 97 21 174q8 25 18 36t22 10q33 -5 -13 -132q-5 -131 14 -213q12 -53 40 -59q19 -3 30 5
q4 3 1 7q2 5 8 4q4 0 5.5 -1.5t0.5 -3.5v-1zM414 351q-4 -17 -10 -86q29 82 14 93q-2 2 -3 -2q-1 -2 -1 -5zM311 529q-15 0 -15 15q0 6 4.5 10.5t9.5 4.5t9.5 -5.5t4.5 -10.5q0 -6 -4 -10t-9 -4zM364 528q-5 0 -9.5 4.5t-4.5 10.5q0 11 9 15h4q6 0 10.5 -5t4.5 -11t-4.5 -10
t-9.5 -4z" />
    <glyph glyph-name="Yacute" unicode="&#xdd;" horiz-adv-x="555" 
d="M309 -142q-34 0 -58 28.5t-26 64.5q0 22 5.5 38.5t21.5 31t24.5 20.5t33.5 21q38 23 73 42h1q7 79 11 129q-20 -31 -47.5 -57.5t-48.5 -23.5q-27 5 -42 22q-22 29 -22 88.5t10 103.5q1 10 2 14q8 48 14 108q2 23 -4.5 34.5t-20.5 10.5q-53 -1 -97 -56q-30 -36 -44 -79
q-12 -41 2.5 -67t53.5 -26q25 -2 34 19q11 21 -8 18q-5 6 2 13t14 2q9 -9 -3 -32q-11 -21 -41 -23t-50 11q-31 17 -31 53q0 21 14 51q39 77 110 107q24 11 51 13h4q15 0 26 -4.5t17.5 -14.5t11 -20t5.5 -27t1 -28.5t-2.5 -32t-3.5 -30.5t-4.5 -30t-4.5 -25q-11 -63 -15 -114
q-5 -51 26 -56q18 -3 45.5 28.5t46.5 62.5q0 2 2 20.5t3 29t4 30t6 31t7.5 23t10 15.5t12.5 1q26 -12 -8 -96q0 -26 0.5 -83.5t0.5 -85.5q114 59 121 72q3 -1 7 -1q-3 -5 -14 -12.5t-27.5 -17t-31 -17t-32 -16.5t-23.5 -12q-5 -92 -20 -155.5t-53 -95.5q-21 -18 -52 -18z
M384 100q-93 -49 -120 -76q-24 -22 -24 -56q-1 -31 16 -66t38 -39q35 -5 53 41q23 59 37 194v2zM377 528q3 9 16.5 38t18.5 29q10 0 18 -25q-4 -9 -25 -24q-20 -14 -22 -21q-2 1 -4 1zM432 315q27 67 9 76q-7 2 -8 -17v-14q-1 -12 -1 -45z" />
    <glyph glyph-name="germandbls" unicode="&#xdf;" horiz-adv-x="452" 
d="M108 273q0 47 3 93q15 166 140 166q39 0 76 -25q31 -20 36 -63t-18 -77q-16 -26 -50 -54q83 -21 111 -90q6 -18 6 -37v-11q-9 -108 -111 -156q-29 -13 -57 -13q-21 0 -45 6q-39 11 -53 37q-10 24 1.5 42.5t31.5 22.5q21 3 35 -9q16 -13 11 -20q-1 -3 -8 -2t-9 9
q6 2 -2 12q-9 9 -26 5q-25 -5 -23 -43q0 -37 38 -49q50 -16 87 11t57 72q37 89 12 147q-21 44 -64 62q-11 -8 -25 -14.5t-30 -6.5t-21 14q-6 18 29 20q12 0 19 -1q25 21 41.5 46.5t22.5 60t-18 67.5q-21 30 -64.5 31t-66.5 -26q-28 -32 -32.5 -89t1.5 -139.5t3 -120.5
q-7 -116 -89 -125q-12 -2 -24.5 3.5t-13.5 14.5q0 9 9 6q7 -1 5 -9q-8 -2 2 -8q8 -5 19 -3q32 6 42.5 39t12.5 87v58q-1 20 -1 59zM216 309q1 -6 6 -6.5t11.5 2.5t12 6.5t7.5 5.5h-1h-16t-11.5 -1t-6.5 -2.5t-2 -4.5z" />
    <glyph glyph-name="agrave" unicode="&#xe0;" horiz-adv-x="249" 
d="M68 231q32 -1 42 -30q0 -5 -4 -5q-3 1 -5 3t-4 7.5t-4 8.5q-8 13 -23 13q-46 0 -63 -85q-3 -12 -4.5 -28.5t0.5 -33t10 -17.5q9 -1 18 11t19 37q17 42 23 62q11 9 23.5 3t18.5 -15q0 -7 -9 -64q-9 -73 3 -75q8 -2 27 20q44 50 87 120q22 33 24 38q1 -1 6 -1
q-1 -2 -22 -34t-32 -48q-31 -44 -53 -70q-27 -31 -41 -31l-1 1q-40 0 -34 111q2 25 1 27q-10 -41 -38 -82q-16 -21 -36 -13t-27 32q-5 17 -5 32q0 46 26.5 76t70.5 30h6zM31 307q8 24 18 24q4 0 18 -28t17 -37q-3 -3 -6 -3q-1 4 -22 19t-25 25z" />
    <glyph glyph-name="aacute" unicode="&#xe1;" horiz-adv-x="249" 
d="M68 231q32 -1 42 -30q0 -5 -4 -5q-3 1 -5 3t-4 7.5t-4 8.5q-8 13 -23 13q-46 0 -63 -85q-3 -12 -4.5 -28.5t0.5 -33t10 -17.5q9 -1 18 11t19 37q17 42 23 62q11 9 23.5 3t18.5 -15q0 -7 -9 -64q-9 -73 3 -75q8 -2 27 20q44 50 87 120q22 33 24 38q1 -1 6 -1
q-1 -2 -22 -34t-32 -48q-31 -44 -53 -70q-27 -31 -41 -31l-1 1q-40 0 -34 111q2 25 1 27q-10 -41 -38 -82q-16 -21 -36 -13t-27 32q-5 17 -5 32q0 46 26.5 76t70.5 30h6zM51 267q1 6 16 36t18 30q4 0 10 -7q8 -13 9 -17q-5 -12 -25 -26t-23 -19q-2 0 -5 3z" />
    <glyph glyph-name="acircumflex" unicode="&#xe2;" horiz-adv-x="249" 
d="M68 231q32 -1 42 -30q0 -5 -4 -5q-3 1 -5 3t-4 7.5t-4 8.5q-8 13 -23 13q-46 0 -63 -85q-3 -12 -4.5 -28.5t0.5 -33t10 -17.5q9 -1 18 11t19 37q17 42 23 62q11 9 23.5 3t18.5 -15q0 -7 -9 -64q-9 -73 3 -75q8 -2 27 20q44 50 87 120q22 33 24 38q1 -1 6 -1
q-1 -2 -22 -34t-32 -48q-31 -44 -53 -70q-27 -31 -41 -31l-1 1q-40 0 -34 111q2 25 1 27q-10 -41 -38 -82q-16 -21 -36 -13t-27 32q-5 17 -5 32q0 46 26.5 76t70.5 30h6zM21 271q19 23 53 65q10 -12 46 -57q-11 -11 -33 -14q-1 3 -9.5 20t-14.5 30q-27 -33 -38 -48
q-1 -1 -2.5 1t-1.5 3z" />
    <glyph glyph-name="atilde" unicode="&#xe3;" horiz-adv-x="249" 
d="M68 231q32 -1 42 -30q0 -5 -4 -5q-3 1 -5 3t-4 7.5t-4 8.5q-8 13 -23 13q-46 0 -63 -85q-3 -12 -4.5 -28.5t0.5 -33t10 -17.5q9 -1 18 11t19 37q17 42 23 62q11 9 23.5 3t18.5 -15q0 -7 -9 -64q-9 -73 3 -75q8 -2 27 20q44 50 87 120q22 33 24 38q1 -1 6 -1
q-1 -2 -22 -34t-32 -48q-31 -44 -53 -70q-27 -31 -41 -31l-1 1q-40 0 -34 111q2 25 1 27q-10 -41 -38 -82q-16 -21 -36 -13t-27 32q-5 17 -5 32q0 46 26.5 76t70.5 30h6zM38 312q9 -1 24.5 -7t27 -10.5t23.5 -3t18 13.5h2q1 0 2 -1v-1q0 -16 -10.5 -27.5t-27.5 -11.5
q-8 0 -28.5 8.5t-32.5 12t-24 -4.5q-4 -4 -4 -7q0 -1 -1 -1t-2 -1q-2 0 -3 1q0 16 9.5 28t26.5 12z" />
    <glyph glyph-name="adieresis" unicode="&#xe4;" horiz-adv-x="249" 
d="M68 231q32 -1 42 -30q0 -5 -4 -5q-3 1 -5 3t-4 7.5t-4 8.5q-8 13 -23 13q-46 0 -63 -85q-3 -12 -4.5 -28.5t0.5 -33t10 -17.5q9 -1 18 11t19 37q17 42 23 62q11 9 23.5 3t18.5 -15q0 -7 -9 -64q-9 -73 3 -75q8 -2 27 20q44 50 87 120q22 33 24 38q1 -1 6 -1
q-1 -2 -22 -34t-32 -48q-31 -44 -53 -70q-27 -31 -41 -31l-1 1q-40 0 -34 111q2 25 1 27q-10 -41 -38 -82q-16 -21 -36 -13t-27 32q-5 17 -5 32q0 46 26.5 76t70.5 30h6zM39 259q-15 0 -15 14q0 9 10 15h4q5 0 10 -5.5t5 -10.5q0 -13 -14 -13zM92 288q14 -4 14 -17
q1 -5 -4 -9t-9 -4q-5 0 -10 4.5t-5 9.5q5 16 14 16z" />
    <glyph glyph-name="aring" unicode="&#xe5;" horiz-adv-x="249" 
d="M68 231q32 -1 42 -30q0 -5 -4 -5q-3 1 -5 3t-4 7.5t-4 8.5q-8 13 -23 13q-46 0 -63 -85q-3 -12 -4.5 -28.5t0.5 -33t10 -17.5q9 -1 18 11t19 37q17 42 23 62q11 9 23.5 3t18.5 -15q0 -7 -9 -64q-9 -73 3 -75q8 -2 27 20q44 50 87 120q22 33 24 38q1 -1 6 -1
q-1 -2 -22 -34t-32 -48q-31 -44 -53 -70q-27 -31 -41 -31l-1 1q-40 0 -34 111q2 25 1 27q-10 -41 -38 -82q-16 -21 -36 -13t-27 32q-5 17 -5 32q0 46 26.5 76t70.5 30h6zM63 253q-13 1 -23.5 8.5t-10.5 19.5q0 14 11.5 23t26.5 9h1q29 -2 29 -28v-4q-1 -11 -10.5 -19.5
t-20.5 -8.5h-3zM91 285q0 8 -6.5 16t-13.5 8q-8 0 -15 -9t-7 -18v-1q2 -22 17 -24h2q8 0 14.5 8.5t8.5 16.5v3z" />
    <glyph glyph-name="ae" unicode="&#xe6;" horiz-adv-x="313" 
d="M10 59q-45 6 -45 66q0 46 26.5 76t70.5 30h6q23 -2 32 -13q21 27 51 27h2q21 0 33.5 -10t-5.5 -27q-19 -14 -46 -14q-9 -17 -16 -41t-4 -50t24 -32q8 -1 18 0q8 1 17 4t15 6t15 9.5t13 9.5t13 11t11 10q52 47 71 76h2q1 0 3 -2q-5 -5 -31.5 -34.5t-41.5 -42.5
q-53 -46 -88 -53h-8q-36 0 -55 26.5t-22 64.5q-10 -41 -38 -82q-11 -15 -22 -15h-1zM95 211q-9 17 -25 17q-46 0 -63 -85q-3 -12 -4.5 -28.5t0.5 -33t10 -17.5q9 -1 18 11t19 37q17 42 23 62q3 4 8 6q4 16 14 31zM176 212q20 17 3 23q-18 6 -41 -35q24 0 38 12z" />
    <glyph glyph-name="ccedilla" unicode="&#xe7;" horiz-adv-x="217" 
d="M-32 124q0 44 18.5 75t52.5 34h4q18 0 29 -8t5 -24q-4 -10 -7.5 -14t-7.5 -3q-6 0 0 6q4 -1 8 6.5t3 17t-8 11.5q-11 4 -22 -9.5t-16.5 -27t-9.5 -29.5q-5 -19 -8.5 -40.5t-1 -44.5t14.5 -27q21 -6 49 12q59 38 117 107q26 32 27 34q1 1 3 1t3 -1q-6 -6 -26 -31
q-22 -30 -55 -61q-57 -59 -105 -66q2 -8 22 -17q30 -15 30 -54q0 -27 -18.5 -42t-45.5 -15h-1q-25 0 -43 14.5t-18 37.5q0 33 34 38q12 2 25.5 -6t8.5 -18q-3 -5 -8 0q-2 3 0 5q7 2 0 9q-14 12 -28 5t-20 -23q-8 -21 7 -42q18 -24 52 -11q30 15 28.5 45t-25.5 51
q-21 18 -17 25q-23 5 -36.5 28t-13.5 52z" />
    <glyph glyph-name="egrave" unicode="&#xe8;" horiz-adv-x="211" 
d="M-20 165q0 34 19.5 59t49.5 25h3q21 0 33.5 -10t-5.5 -27q-19 -14 -46 -14q-9 -17 -13.5 -38.5t1 -42t23.5 -25.5t40 4q53 24 100 75q6 7 13 14.5t10 10.5t3 4q1 1 3 1q1 0 3 -2q-11 -11 -28 -30q-30 -32 -59 -52q-20 -16 -45 -25q-14 -7 -28 -7q-33 0 -54 23.5t-23 56.5
zM22 322q9 27 19 25q8 0 34 -66q-3 -3 -5 -3q-5 7 -23 20q-21 15 -25 24zM76 216q20 17 2 23q-19 6 -41 -35q22 -1 39 12z" />
    <glyph glyph-name="eacute" unicode="&#xe9;" horiz-adv-x="211" 
d="M-20 165q0 34 19.5 59t49.5 25h3q21 0 33.5 -10t-5.5 -27q-19 -14 -46 -14q-9 -17 -13.5 -38.5t1 -42t23.5 -25.5t40 4q53 24 100 75q6 7 13 14.5t10 10.5t3 4q1 1 3 1q1 0 3 -2q-11 -11 -28 -30q-30 -32 -59 -52q-20 -16 -45 -25q-14 -7 -28 -7q-33 0 -54 23.5t-23 56.5
zM52 276q1 7 15 37t19 30q10 0 18 -25q-4 -9 -25 -24q-16 -13 -22 -21q-1 1 -4 1q-1 1 -1 2zM76 216q20 17 2 23q-19 6 -41 -35q22 -1 39 12z" />
    <glyph glyph-name="ecircumflex" unicode="&#xea;" horiz-adv-x="211" 
d="M-20 165q0 34 19.5 59t49.5 25h3q21 0 33.5 -10t-5.5 -27q-19 -14 -46 -14q-9 -17 -13.5 -38.5t1 -42t23.5 -25.5t40 4q53 24 100 75q6 7 13 14.5t10 10.5t3 4q1 1 3 1q1 0 3 -2q-11 -11 -28 -30q-30 -32 -59 -52q-20 -16 -45 -25q-14 -7 -28 -7q-33 0 -54 23.5t-23 56.5
zM10 286q5 6 22.5 28.5t29.5 38.5q10 -12 47 -57q-7 -9 -33 -15l-24 51q-24 -32 -37 -49q-5 -2 -5 3zM76 216q20 17 2 23q-19 6 -41 -35q22 -1 39 12z" />
    <glyph glyph-name="edieresis" unicode="&#xeb;" horiz-adv-x="211" 
d="M-20 165q0 34 19.5 59t49.5 25h3q21 0 33.5 -10t-5.5 -27q-19 -14 -46 -14q-9 -17 -13.5 -38.5t1 -42t23.5 -25.5t40 4q53 24 100 75q6 7 13 14.5t10 10.5t3 4q1 1 3 1q1 0 3 -2q-11 -11 -28 -30q-30 -32 -59 -52q-20 -16 -45 -25q-14 -7 -28 -7q-33 0 -54 23.5t-23 56.5
zM76 216q20 17 2 23q-19 6 -41 -35q22 -1 39 12zM31 282q-14 0 -14 15q0 10 9 15h4q5 0 10 -5.5t5 -10.5q0 -6 -4.5 -10t-9.5 -4zM84 312q15 -4 15 -17q1 -5 -4.5 -9.5t-9.5 -4.5q-5 0 -10 4.5t-5 10.5q5 16 14 16z" />
    <glyph glyph-name="igrave" unicode="&#xec;" horiz-adv-x="160" 
d="M15 61q-18 0 -27 20t-9 45q0 15 13 90q5 6 20 11q4 0 6 1q7 0 12 -8q0 -17 -11.5 -64.5t-11.5 -68.5q0 -35 36 -7q43 35 91 90q23 28 24 30h6q-14 -19 -57 -65q-35 -37 -54 -53q-25 -21 -38 -21zM-12 320q8 25 18 25q4 0 18 -28.5t17 -38.5q-3 -3 -6 -3q-2 6 -22 20
q-21 15 -25 25z" />
    <glyph glyph-name="iacute" unicode="&#xed;" horiz-adv-x="160" 
d="M15 61q-18 0 -27 20t-9 45q0 15 13 90q5 6 20 11q4 0 6 1q7 0 12 -8q0 -17 -11.5 -64.5t-11.5 -68.5q0 -35 36 -7q43 35 91 90q23 28 24 30h6q-14 -19 -57 -65q-35 -37 -54 -53q-25 -21 -38 -21zM10 275q3 9 16.5 38t18.5 29q9 0 17 -25q-5 -11 -24 -25q-20 -14 -22 -20
q-2 1 -4 1z" />
    <glyph glyph-name="icircumflex" unicode="&#xee;" horiz-adv-x="160" 
d="M15 61q-18 0 -27 20t-9 45q0 15 13 90q5 6 20 11q4 0 6 1q7 0 12 -8q0 -17 -11.5 -64.5t-11.5 -68.5q0 -35 36 -7q43 35 91 90q23 28 24 30h6q-14 -19 -57 -65q-35 -37 -54 -53q-25 -21 -38 -21zM-26 281q9 10 53 66q10 -12 46 -57q-12 -12 -33 -15q-2 5 -23 51
q-4 -5 -38 -49q-2 -2 -5 4z" />
    <glyph glyph-name="idieresis" unicode="&#xef;" horiz-adv-x="160" 
d="M15 61q-18 0 -27 20t-9 45q0 15 13 90q5 6 20 11q4 0 6 1q7 0 12 -8q0 -17 -11.5 -64.5t-11.5 -68.5q0 -35 36 -7q43 35 91 90q23 28 24 30h6q-14 -19 -57 -65q-35 -37 -54 -53q-25 -21 -38 -21zM48 276q-15 0 -15 15q0 9 10 15h4q5 0 10 -5.5t5 -10.5t-5 -9.5t-9 -4.5z
M-7 277q-14 0 -14 15t14 15q7 0 15 -16q0 -9 -11 -14h-4z" />
    <glyph glyph-name="eth" unicode="&#xf0;" horiz-adv-x="230" 
d="M90 278q30 -26 30 -82v-1q0 -71 -42 -120q-17 -20 -39 -20q-31 0 -52 24.5t-21 55.5t21 57.5t48 29.5q12 0 18 -18q-9 -2 -19 -21q-19 -29 -27 -74q-5 -36 16 -47.5t44 14.5q19 20 31.5 55t10 74t-27.5 60q-6 -8 -11 -15.5t-8 -11.5l-2 -3q-8 5 -8 10v3q2 1 19 24
q-11 6 -28.5 11t-21.5 3q-1 7 3 12t11 5q27 0 45 -18l1 1q15 20 38 49q6 -6 6 -12q-5 -5 -35 -45z" />
    <glyph glyph-name="ntilde" unicode="&#xf1;" horiz-adv-x="274" 
d="M1 135q5 10 -2.5 42.5t-12.5 44.5q5 7 17.5 12.5t17.5 -4.5q3 -11 8.5 -48.5t5.5 -50.5q4 11 14 45t19 57.5t19 39.5q11 16 20 17q56 0 22 -204q-8 -46 1 -49.5t33 25.5q41 44 91 113q16 23 19 25h6q-64 -96 -125 -151q-18 -19 -29 -17h-3q-49 17 -20 198q2 7 2 10
q7 45 -3 44q-8 0 -19 -28q-11 -24 -38 -107q-5 -16 -11 -31q-8 -5 -18 2.5t-14 14.5zM27 328q0 39 36 39q9 0 24.5 -6t27 -11.5t23.5 -4t18 13.5q1 1 2 1t2 -1v-1q0 -16 -10.5 -28t-27.5 -12q-9 0 -29.5 9t-32 13t-23.5 -4q-5 -7 -5 -8q-1 -1 -2 -1q-2 0 -3 1z" />
    <glyph glyph-name="ograve" unicode="&#xf2;" horiz-adv-x="230" 
d="M129 169q30 2 61 11t39 22l6 -2q-23 -33 -118 -35h-3q-10 -54 -40 -90q-17 -20 -37 -20q-30 0 -50.5 24.5t-20.5 55.5q0 38 31 69q-28 40 -14 66q16 35 64 35q84 0 68 -136h14zM35 222q12 0 18 -18q-5 -1 -13 -12q20 -16 52 -21q4 -1 8 -1t9 -1q8 41 -1.5 76.5
t-35.5 46.5q-30 10 -48 -17.5t-3 -56.5q6 2 14 4zM32 180q-17 -28 -25 -71q-5 -37 16.5 -47t44.5 17q30 35 40 85q-36 0 -66 12zM14 370q8 25 17 25q5 0 18.5 -29t16.5 -38q-3 -3 -5 -3q-2 5 -23 20q-19 14 -24 25z" />
    <glyph glyph-name="oacute" unicode="&#xf3;" horiz-adv-x="230" 
d="M129 169q30 2 61 11t39 22l6 -2q-23 -33 -118 -35h-3q-10 -54 -40 -90q-17 -20 -37 -20q-30 0 -50.5 24.5t-20.5 55.5q0 38 31 69q-28 40 -14 66q16 35 64 35q84 0 68 -136h14zM35 222q12 0 18 -18q-5 -1 -13 -12q20 -16 52 -21q4 -1 8 -1t9 -1q8 41 -1.5 76.5
t-35.5 46.5q-30 10 -48 -17.5t-3 -56.5q6 2 14 4zM32 180q-17 -28 -25 -71q-5 -37 16.5 -47t44.5 17q30 35 40 85q-36 0 -66 12zM45 324q3 9 16.5 38t18.5 29q10 0 18 -25q-4 -9 -25 -24q-20 -14 -22 -20q-3 0 -4 1q-1 0 -2 1z" />
    <glyph glyph-name="ocircumflex" unicode="&#xf4;" horiz-adv-x="230" 
d="M129 169q30 2 61 11t39 22l6 -2q-23 -33 -118 -35h-3q-10 -54 -40 -90q-17 -20 -37 -20q-30 0 -50.5 24.5t-20.5 55.5q0 38 31 69q-28 40 -14 66q16 35 64 35q84 0 68 -136h14zM35 222q12 0 18 -18q-5 -1 -13 -12q20 -16 52 -21q4 -1 8 -1t9 -1q8 41 -1.5 76.5
t-35.5 46.5q-30 10 -48 -17.5t-3 -56.5q6 2 14 4zM32 180q-17 -28 -25 -71q-5 -37 16.5 -47t44.5 17q30 35 40 85q-36 0 -66 12zM9 331q4 5 22 26.5t31 38.5q3 -3 18.5 -22.5t27.5 -33.5q-2 -2 -33 -15q-3 6 -10.5 23.5t-12.5 28.5q-15 -20 -38 -49q-1 -1 -5 3z" />
    <glyph glyph-name="otilde" unicode="&#xf5;" horiz-adv-x="230" 
d="M129 169q30 2 61 11t39 22l6 -2q-23 -33 -118 -35h-3q-10 -54 -40 -90q-17 -20 -37 -20q-30 0 -50.5 24.5t-20.5 55.5q0 38 31 69q-28 40 -14 66q16 35 64 35q84 0 68 -136h14zM35 222q12 0 18 -18q-5 -1 -13 -12q20 -16 52 -21q4 -1 8 -1t9 -1q8 41 -1.5 76.5
t-35.5 46.5q-30 10 -48 -17.5t-3 -56.5q6 2 14 4zM32 180q-17 -28 -25 -71q-5 -37 16.5 -47t44.5 17q30 35 40 85q-36 0 -66 12zM17 356q-6 -1 -12 -5t-6 -8q-1 -1 -2 -1q-1 -1 -3 1q0 39 36 39q9 0 24.5 -6t27 -11.5t23.5 -4t18 13.5q1 1 2 1t2 -1v-1q0 -16 -10.5 -28
t-27.5 -12q-11 0 -38 11.5t-34 11.5z" />
    <glyph glyph-name="odieresis" unicode="&#xf6;" horiz-adv-x="230" 
d="M129 169q30 2 61 11t39 22l6 -2q-23 -33 -118 -35h-3q-10 -54 -40 -90q-17 -20 -37 -20q-30 0 -50.5 24.5t-20.5 55.5q0 38 31 69q-28 40 -14 66q16 35 64 35q84 0 68 -136h14zM35 222q12 0 18 -18q-5 -1 -13 -12q20 -16 52 -21q4 -1 8 -1t9 -1q8 41 -1.5 76.5
t-35.5 46.5q-30 10 -48 -17.5t-3 -56.5q6 2 14 4zM32 180q-17 -28 -25 -71q-5 -37 16.5 -47t44.5 17q30 35 40 85q-36 0 -66 12zM34 341q-14 0 -14 14q0 16 13 16q15 -4 15 -17q0 -5 -4.5 -9t-9.5 -4zM73 355q4 15 14 15q5 0 10 -5.5t5 -10.5q2 -9 -10 -13h-4q-15 0 -15 14z
" />
    <glyph glyph-name="divide" unicode="&#xf7;" horiz-adv-x="254" 
d="M210 233q0 -4 -6 -13h-62q-42 0 -60 1h-30q-1 1 -1 4q0 8 10 13h29q35 0 54 -1h66v-4zM133 271q-6 0 -10.5 4.5t-4.5 10.5q0 5 4.5 10t9.5 5t9.5 -5.5t4.5 -10.5q2 -7 -9 -14h-4zM132 159q-15 0 -15 15q0 5 4.5 9.5t9.5 4.5t10 -5t5 -10q0 -11 -10 -14h-4z" />
    <glyph glyph-name="oslash" unicode="&#xf8;" horiz-adv-x="230" 
d="M129 169q30 2 61 11t39 22l6 -2q-23 -33 -118 -35h-3q-10 -54 -40 -90q-17 -20 -37 -20q-7 0 -15 3q-35 -79 -38 -85q-4 -9 -4 -11q-7 0 -9 13q1 1 39 87q-44 25 -44 73q0 38 31 69q-28 40 -14 66q16 35 64 35q17 0 35 -9.5t22 -23.5q1 3 37 83q1 3 2.5 7t2.5 6t1 3
q3 2 5 -3q4 -4 5 -6q-10 -30 -46 -105l1 -1q10 -33 3 -87h14zM62 180l39 84q-11 22 -31.5 28t-41.5 -12q-25 -25 -7 -62q6 2 14 4q12 0 18 -18q-5 -1 -13 -12q3 -2 22 -12zM24 61q20 -7 39 12t30 44t15 47q-19 0 -37 3q-16 -36 -48 -106h1zM32 180q-17 -28 -25 -71
q-3 -25 7 -40q4 9 20 45.5t24 56.5q-7 1 -16 5zM107 248q-1 -2 -13.5 -30t-18.5 -43q5 -2 17 -4q4 -1 8 -1t9 -1q9 47 -2 79z" />
    <glyph glyph-name="ugrave" unicode="&#xf9;" horiz-adv-x="280" 
d="M24 73q-45 0 -45 68q0 10 3 36t3 28q8 15 39 -6q0 -2 -4 -35t-3.5 -59t9.5 -27q27 -3 73 167q1 3 5 3q17 0 31 -19q0 -11 -4 -42q-7 -91 -7 -128q1 -18 6 -22.5t10.5 -0.5t18.5 17q45 45 94 111q23 30 25 36q1 -1 6 -1q-45 -70 -116 -142q-28 -28 -40 -28h-2
q-36 4 -33 116q0 33 3 57q3 26 2 27q0 -1 -1 -4t-2.5 -9t-3.5 -12l-16 -47q-1 -2 -4 -10.5t-6 -15t-7 -16t-8 -16.5t-8 -13.5t-9 -9.5t-9 -3zM28 321q1 5 7.5 15t11.5 10q4 0 18.5 -30.5t15.5 -36.5q-1 0 -2.5 -1t-2.5 -1q-5 7 -23 20q-21 15 -25 24z" />
    <glyph glyph-name="uacute" unicode="&#xfa;" horiz-adv-x="280" 
d="M24 73q-45 0 -45 68q0 10 3 36t3 28q8 15 39 -6q0 -2 -4 -35t-3.5 -59t9.5 -27q27 -3 73 167q1 3 5 3q17 0 31 -19q0 -11 -4 -42q-7 -91 -7 -128q1 -18 6 -22.5t10.5 -0.5t18.5 17q45 45 94 111q23 30 25 36q1 -1 6 -1q-45 -70 -116 -142q-28 -28 -40 -28h-2
q-36 4 -33 116q0 33 3 57q3 26 2 27q0 -1 -1 -4t-2.5 -9t-3.5 -12l-16 -47q-1 -2 -4 -10.5t-6 -15t-7 -16t-8 -16.5t-8 -13.5t-9 -9.5t-9 -3zM45 277q3 9 17 38t18 29q10 0 18 -25q-4 -10 -25 -25q-18 -13 -23 -20q-2 0 -5 3z" />
    <glyph glyph-name="ucircumflex" unicode="&#xfb;" horiz-adv-x="280" 
d="M24 73q-45 0 -45 68q0 10 3 36t3 28q8 15 39 -6q0 -2 -4 -35t-3.5 -59t9.5 -27q27 -3 73 167q1 3 5 3q17 0 31 -19q0 -11 -4 -42q-7 -91 -7 -128q1 -18 6 -22.5t10.5 -0.5t18.5 17q45 45 94 111q23 30 25 36q1 -1 6 -1q-45 -70 -116 -142q-28 -28 -40 -28h-2
q-36 4 -33 116q0 33 3 57q3 26 2 27q0 -1 -1 -4t-2.5 -9t-3.5 -12l-16 -47q-1 -2 -4 -10.5t-6 -15t-7 -16t-8 -16.5t-8 -13.5t-9 -9.5t-9 -3zM17 271q5 6 12.5 16t19 24.5t20.5 25.5q3 -3 19 -22.5t28 -34.5q-4 -4 -33 -14q-3 7 -11 24.5t-12 25.5q-38 -47 -40 -48
q-3 -2 -3 3z" />
    <glyph glyph-name="udieresis" unicode="&#xfc;" horiz-adv-x="280" 
d="M24 73q-45 0 -45 68q0 10 3 36t3 28q8 15 39 -6q0 -2 -4 -35t-3.5 -59t9.5 -27q27 -3 73 167q1 3 5 3q17 0 31 -19q0 -11 -4 -42q-7 -91 -7 -128q1 -18 6 -22.5t10.5 -0.5t18.5 17q45 45 94 111q23 30 25 36q1 -1 6 -1q-45 -70 -116 -142q-28 -28 -40 -28h-2
q-36 4 -33 116q0 33 3 57q3 26 2 27q0 -1 -1 -4t-2.5 -9t-3.5 -12l-16 -47q-1 -2 -4 -10.5t-6 -15t-7 -16t-8 -16.5t-8 -13.5t-9 -9.5t-9 -3zM89 293q-15 0 -15 15q0 5 4.5 9.5t9.5 4.5t10 -5t5 -10q0 -11 -10 -14h-4zM35 293q-14 0 -14 15q0 5 4 11t9 3q5 0 10 -5t5 -10
q0 -4 -5 -9t-9 -5z" />
    <glyph glyph-name="yacute" unicode="&#xfd;" horiz-adv-x="236" 
d="M13 -183q-30 0 -48.5 19t-18.5 50q0 12 3 25q15 84 77 140q36 33 76 62q-1 23 -6 77l-6 55q-3 -7 -10 -24.5t-10 -25.5q-28 -64 -46 -62q-31 3 -34 35q-3 33 -3 50q7 6 19 9t23 -1q-11 -88 1 -89q5 0 14 13q11 17 45 105q7 11 21 12h3q12 0 16 -7q-12 -28 -6 -88l4 -40
l19 12q36 23 55 33q24 15 33 24q3 0 6 -1q-16 -19 -80 -54q-22 -12 -33 -19q11 -149 -7 -208q-19 -60 -60 -86q-26 -16 -47 -16zM102 110q-78 -58 -116 -116q-23 -34 -31 -78q-8 -43 9.5 -66t57.5 0q46 28 66 99.5t14 160.5zM42 289q2 8 16.5 36.5t18.5 28.5q5 1 11.5 -9.5
t6.5 -14.5q-4 -9 -25 -24q-20 -14 -22 -20q-3 0 -4 1z" />
    <glyph glyph-name="ydieresis" unicode="&#xff;" horiz-adv-x="236" 
d="M13 -183q-30 0 -48.5 19t-18.5 50q0 12 3 25q15 84 77 140q36 33 76 62q-1 23 -6 77l-6 55q-3 -7 -10 -24.5t-10 -25.5q-28 -64 -46 -62q-31 3 -34 35q-3 33 -3 50q7 6 19 9t23 -1q-11 -88 1 -89q5 0 14 13q11 17 45 105q7 11 21 12h3q12 0 16 -7q-12 -28 -6 -88l4 -40
l19 12q36 23 55 33q24 15 33 24q3 0 6 -1q-16 -19 -80 -54q-22 -12 -33 -19q11 -149 -7 -208q-19 -60 -60 -86q-26 -16 -47 -16zM102 110q-78 -58 -116 -116q-23 -34 -31 -78q-8 -43 9.5 -66t57.5 0q46 28 66 99.5t14 160.5zM37 305q-15 0 -15 14q0 9 10 15h4q5 0 10 -5.5
t5 -10.5q0 -13 -14 -13zM91 304q-6 0 -10.5 4t-4.5 10q0 5 4.5 11.5t9.5 3.5q6 0 10 -5t4 -11q0 -5 -4 -9t-9 -4z" />
    <glyph glyph-name="Amacron" unicode="&#x100;" horiz-adv-x="552" 
d="M314 581q0 9 10 17h45q24 1 62 1h6q1 -1 1 -4q0 -6 -6 -18q-37 -2 -75 0q-39 0 -42 -1q-1 2 -1 5zM14 19q0 -15 21 -25t42 -8q50 4 88 32t61.5 74t37 90t24.5 100q34 -8 84 -37q20 -127 58 -214q23 -50 50 -50t27 44v3q0 89 -74 175q-28 128 -35 212q-6 66 3 106
q1 10 -9.5 15t-24.5 5q-9 0 -13 -1q-10 -10 -21 -32q-26 -60 -70 -217q-69 15 -107 -19q-31 -26 -15 -42q8 -8 15.5 -1t5.5 16q-23 6 2 28q28 22 80 16l18 -2q-52 -165 -101 -240q-35 -53 -78 -57q-26 -3 -39 10q-11 13 -4 19q0 10 -12.5 12t-13.5 -11v-1zM295 313
q21 115 32 152q10 38 26 49q-2 -16 -2 -34q-3 -53 12 -173q2 -18 8 -54l-12 7q-28 15 -70 26q1 7 3 13.5t3 13.5zM435 189q34 -40 49 -86q17 -45 17 -76q2 -32 -10 -35q-2 0 -14 40q-20 61 -42 157z" />
    <glyph glyph-name="amacron" unicode="&#x101;" horiz-adv-x="249" 
d="M-5 267q0 9 10 16h45q24 1 61 1h6q1 -1 1 -4q0 -5 -6 -17q-36 -2 -74 0q-39 0 -42 -1q-1 2 -1 5zM68 231q32 -1 42 -30q0 -2 -1 -3.5t-3 -0.5q-3 0 -5 2t-4.5 8.5t-3.5 8.5q-7 12 -23 12q-9 1 -18 -4q-25 -11 -38.5 -52.5t-10.5 -82.5q1 -24 10 -25t18 11t19 37
q17 42 23 62q11 9 23.5 3t18.5 -15q0 -7 -9 -64q-9 -73 3 -75q8 -2 27 20q55 65 111 158q3 0 6 -1q-43 -65 -54 -82q-31 -44 -53 -70q-27 -32 -41 -30h-1q-40 0 -34 111q2 25 1 27q-11 -43 -38 -81q-16 -21 -36 -13.5t-27 31.5q-5 17 -5 32q-2 36 16.5 63t47.5 39q13 4 33 4
h6z" />
    <glyph glyph-name="Abreve" unicode="&#x102;" horiz-adv-x="552" 
d="M507 25q0 -44 -27 -44t-50 50q-38 87 -58 214q-50 29 -84 37q-37 -202 -134 -269q-25 -18 -58 -24.5t-65 7.5q-17 11 -17 23v1q1 13 13.5 11t12.5 -12q-7 -6 4 -19q13 -13 39 -10q43 4 78 57q49 75 101 240l-18 2q-52 6 -80 -16q-25 -22 -2 -28q2 -9 -5.5 -16t-15.5 1
q-16 16 15 42q38 34 107 19q44 157 70 217q11 22 21 32q4 1 13 1q14 0 24.5 -5t9.5 -15q-16 -74 17 -244q10 -50 15 -74q74 -86 74 -175v-3zM295 313q-1 -7 -3 -13.5t-3 -13.5q42 -11 70 -26l12 -7q-12 64 -19 178q-2 36 -1 49q0 18 2 34q-16 -11 -26 -49q-11 -37 -32 -152z
M501 27q0 42 -20 86t-46 76q22 -96 42 -157q12 -40 14 -40q12 3 10 35zM428 615q-2 -14 -15.5 -28.5t-29.5 -15.5h-4q-15 0 -30.5 11.5t-19.5 22.5q8 9 33 15q10 -29 32 -29q22 -1 29 27q1 1 5 -3z" />
    <glyph glyph-name="abreve" unicode="&#x103;" horiz-adv-x="249" 
d="M68 231q32 -1 42 -30q0 -2 -1 -3.5t-3 -0.5q-3 0 -5 2t-4.5 8.5t-3.5 8.5q-7 12 -23 12q-9 1 -18 -4q-25 -11 -38.5 -52.5t-10.5 -82.5q1 -24 10 -25t18 11t19 37q17 42 23 62q11 9 23.5 3t18.5 -15q0 -7 -9 -64q-9 -73 3 -75q8 -2 27 20q55 65 111 158q3 0 6 -1
q-43 -65 -54 -82q-31 -44 -53 -70q-27 -32 -41 -30h-1q-40 0 -34 111q2 25 1 27q-11 -43 -38 -81q-16 -21 -36 -13.5t-27 31.5q-5 17 -5 32q-2 36 16.5 63t47.5 39q13 4 33 4h6zM109 307q-2 -14 -15.5 -28.5t-29.5 -15.5h-4q-15 0 -30.5 11.5t-19.5 22.5q8 9 33 15
q10 -29 32 -29q22 -1 29 27q1 1 5 -3z" />
    <glyph glyph-name="Aogonek" unicode="&#x104;" horiz-adv-x="552" 
d="M507 25q0 -44 -27 -44t-50 50q-38 87 -58 214q-50 29 -84 37q-37 -202 -134 -269q-25 -18 -58 -24.5t-65 7.5q-17 11 -17 23v1q1 13 13.5 11t12.5 -12q-7 -6 4 -19q13 -13 39 -10q43 4 78 57q49 75 101 240l-18 2q-52 6 -80 -16q-25 -22 -2 -28q2 -9 -5.5 -16t-15.5 1
q-16 16 15 42q38 34 107 19q44 157 70 217q11 22 21 32q4 1 13 1q14 0 24.5 -5t9.5 -15q-16 -74 17 -244q10 -50 15 -74q74 -86 74 -175v-3zM295 313q-1 -7 -3 -13.5t-3 -13.5q42 -11 70 -26l12 -7q-12 64 -19 178q-2 36 -1 49q0 18 2 34q-16 -11 -26 -49q-11 -37 -32 -152z
M501 27q0 42 -20 86t-46 76q22 -96 42 -157q12 -40 14 -40q12 3 10 35zM484 -145q-27 1 -45 16t-18 42q0 39 30 54q21 11 21 19q2 1 8 1q4 -1 9 0q5 -8 -16 -27q-24 -20 -25.5 -50.5t27.5 -44.5q28 -11 49 7t11 46q-6 16 -20 23t-28 -5q-7 -7 -1 -9q1 -2 -0.5 -4.5
t-3.5 -2.5t-4 2q-6 9 8.5 17t26.5 6q24 -3 31 -25q3 -6 3 -12q0 -23 -18.5 -37.5t-43.5 -15.5h-1z" />
    <glyph glyph-name="aogonek" unicode="&#x105;" horiz-adv-x="249" 
d="M68 231q32 -1 42 -30q0 -2 -1 -3.5t-3 -0.5q-3 0 -5 2t-4.5 8.5t-3.5 8.5q-7 12 -23 12q-9 1 -18 -4q-25 -11 -38.5 -52.5t-10.5 -82.5q1 -24 10 -25t18 11t19 37q17 42 23 62q11 9 23.5 3t18.5 -15q0 -7 -9 -64q-9 -73 3 -75q8 -2 27 20q55 65 111 158q3 0 6 -1
q-43 -65 -54 -82q-31 -44 -53 -70q-27 -32 -41 -30h-1q-40 0 -34 111q2 25 1 27q-11 -43 -38 -81q-16 -21 -36 -13.5t-27 31.5q-5 17 -5 32q-2 36 16.5 63t47.5 39q13 4 33 4h6zM108 -111q-27 1 -45 16t-18 42q0 39 30 54q21 11 21 19q2 1 8 1q4 -1 9 0q5 -8 -16 -27
q-24 -20 -25.5 -50.5t27.5 -44.5q28 -11 49 7t11 46q-6 16 -20 23t-28 -5q-7 -7 -1 -9q1 -2 -0.5 -4.5t-3.5 -2.5t-4 2q-6 9 8.5 17t26.5 6q24 -3 31 -25q3 -6 3 -12q0 -23 -18.5 -37.5t-43.5 -15.5h-1z" />
    <glyph glyph-name="Cacute" unicode="&#x106;" horiz-adv-x="417" 
d="M211 3h-10q-74 13 -114.5 74t-44.5 151v16q0 77 29 145.5t74 101.5q41 31 90 31q55 0 85.5 -30.5t21.5 -86.5q-4 -30 -22.5 -58t-42.5 -29q-31 -3 -45 19q-13 20 -4 32q4 7 13 1q7 -7 3 -14q-13 -1 -6 -19q7 -17 35 -16q17 1 30.5 31.5t18.5 59.5q11 97 -57 104
q-48 6 -86 -40q-52 -62 -69.5 -177.5t14.5 -212.5q17 -49 51 -69t80 4q66 45 127 128q33 45 34 49q2 2 3 1h4q-13 -25 -47 -67.5t-62 -69.5t-57 -44q-24 -15 -46 -15zM291 618q5 0 11.5 -10.5t6.5 -13.5q-5 -13 -24 -26q-22 -15 -24 -19q-2 0 -5 3q1 3 15 31.5t15 31.5
q3 3 5 3z" />
    <glyph glyph-name="cacute" unicode="&#x107;" horiz-adv-x="217" 
d="M-32 124q0 44 18.5 75t52.5 34h4q18 0 29 -8t5 -24q-4 -10 -7.5 -14t-7.5 -3q-6 0 0 6q4 -1 8 6.5t3 17t-8 11.5q-11 4 -22 -9.5t-16.5 -27t-9.5 -29.5q-10 -34 -10 -72q1 -22 8.5 -32.5t20 -8.5t25 7t27.5 17t23 18.5t16 14.5q35 31 60 63q27 31 28 35h3q2 0 3 -1
q-6 -6 -26 -31q-22 -30 -55 -61q-49 -53 -98 -65q-4 -1 -12 -1q-29 0 -45.5 24.5t-16.5 57.5zM68 327q5 0 11.5 -10.5t6.5 -13.5q-5 -13 -24 -26q-22 -15 -24 -19q-2 0 -5 3q1 3 15 31.5t15 31.5q3 3 5 3z" />
    <glyph glyph-name="Ccircumflex" unicode="&#x108;" horiz-adv-x="417" 
d="M211 3h-10q-74 13 -114.5 74t-44.5 151v16q0 77 29 145.5t74 101.5q41 31 90 31q55 0 85.5 -30.5t21.5 -86.5q-4 -30 -22.5 -58t-42.5 -29q-31 -3 -45 19q-13 20 -4 32q4 7 13 1q7 -7 3 -14q-13 -1 -6 -19q7 -17 35 -16q17 1 30.5 31.5t18.5 59.5q11 97 -57 104
q-48 6 -86 -40q-52 -62 -69.5 -177.5t14.5 -212.5q17 -49 51 -69t80 4q66 45 127 128q33 45 34 49q2 2 3 1h4q-13 -25 -47 -67.5t-62 -69.5t-57 -44q-24 -15 -46 -15zM219 558q6 8 24.5 31t28.5 36q5 -7 21 -26.5t25 -30.5q-10 -10 -33 -15q-1 2 -9.5 19.5t-14.5 31.5
q-15 -20 -38 -49q-1 -1 -2.5 0.5t-1.5 2.5z" />
    <glyph glyph-name="ccircumflex" unicode="&#x109;" horiz-adv-x="217" 
d="M-32 124q0 44 18.5 75t52.5 34h4q18 0 29 -8t5 -24q-4 -10 -7.5 -14t-7.5 -3q-6 0 0 6q4 -1 8 6.5t3 17t-8 11.5q-11 4 -22 -9.5t-16.5 -27t-9.5 -29.5q-10 -34 -10 -72q1 -22 8.5 -32.5t20 -8.5t25 7t27.5 17t23 18.5t16 14.5q35 31 60 63q27 31 28 35h3q2 0 3 -1
q-6 -6 -26 -31q-22 -30 -55 -61q-49 -53 -98 -65q-4 -1 -12 -1q-29 0 -45.5 24.5t-16.5 57.5zM-3 266q6 8 24.5 31t28.5 36q5 -7 21 -26.5t25 -30.5q-10 -10 -33 -15q-1 2 -9.5 19.5t-14.5 31.5q-15 -20 -38 -49q-1 -1 -2.5 0.5t-1.5 2.5z" />
    <glyph glyph-name="Cdotaccent" unicode="&#x10a;" horiz-adv-x="417" 
d="M211 3h-10q-74 13 -114.5 74t-44.5 151v16q0 77 29 145.5t74 101.5q41 31 90 31q55 0 85.5 -30.5t21.5 -86.5q-4 -30 -22.5 -58t-42.5 -29q-31 -3 -45 19q-13 20 -4 32q4 7 13 1q7 -7 3 -14q-13 -1 -6 -19q7 -17 35 -16q17 1 30.5 31.5t18.5 59.5q11 97 -57 104
q-48 6 -86 -40q-52 -62 -69.5 -177.5t14.5 -212.5q17 -49 51 -69t80 4q66 45 127 128q33 45 34 49q2 2 3 1h4q-13 -25 -47 -67.5t-62 -69.5t-57 -44q-24 -15 -46 -15zM232 550q-8 0 -14 6t-6 15q0 14 14 21q3 0 5 1q7 0 14.5 -7.5t7.5 -15.5t-6.5 -14t-14.5 -6z" />
    <glyph glyph-name="cdotaccent" unicode="&#x10b;" horiz-adv-x="217" 
d="M-32 124q0 44 18.5 75t52.5 34h4q18 0 29 -8t5 -24q-4 -10 -7.5 -14t-7.5 -3q-6 0 0 6q4 -1 8 6.5t3 17t-8 11.5q-11 4 -22 -9.5t-16.5 -27t-9.5 -29.5q-10 -34 -10 -72q1 -22 8.5 -32.5t20 -8.5t25 7t27.5 17t23 18.5t16 14.5q35 31 60 63q27 31 28 35h3q2 0 3 -1
q-6 -6 -26 -31q-22 -30 -55 -61q-49 -53 -98 -65q-4 -1 -12 -1q-29 0 -45.5 24.5t-16.5 57.5zM47 257q-8 0 -14 6t-6 15q0 14 14 21q3 0 5 1q7 0 14.5 -7.5t7.5 -15.5t-6.5 -14t-14.5 -6z" />
    <glyph glyph-name="Ccaron" unicode="&#x10c;" horiz-adv-x="417" 
d="M211 3h-10q-74 13 -114.5 74t-44.5 151v16q0 77 29 145.5t74 101.5q41 31 90 31q55 0 85.5 -30.5t21.5 -86.5q-4 -30 -22.5 -58t-42.5 -29q-31 -3 -45 19q-13 20 -4 32q4 7 13 1q7 -7 3 -14q-13 -1 -6 -19q7 -17 35 -16q17 1 30.5 31.5t18.5 59.5q11 97 -57 104
q-48 6 -86 -40q-52 -62 -69.5 -177.5t14.5 -212.5q17 -49 51 -69t80 4q66 45 127 128q33 45 34 49q2 2 3 1h4q-13 -25 -47 -67.5t-62 -69.5t-57 -44q-24 -15 -46 -15zM330 611q-4 -5 -22 -26.5t-31 -38.5q-5 6 -47 56q2 2 33 15q2 -5 10.5 -22.5t13.5 -29.5q15 20 38 49
q1 1 5 -3z" />
    <glyph glyph-name="ccaron" unicode="&#x10d;" horiz-adv-x="217" 
d="M-32 124q0 44 18.5 75t52.5 34h4q18 0 29 -8t5 -24q-4 -10 -7.5 -14t-7.5 -3q-6 0 0 6q4 -1 8 6.5t3 17t-8 11.5q-11 4 -22 -9.5t-16.5 -27t-9.5 -29.5q-10 -34 -10 -72q1 -22 8.5 -32.5t20 -8.5t25 7t27.5 17t23 18.5t16 14.5q35 31 60 63q27 31 28 35h3q2 0 3 -1
q-6 -6 -26 -31q-22 -30 -55 -61q-49 -53 -98 -65q-4 -1 -12 -1q-29 0 -45.5 24.5t-16.5 57.5zM95 326q-4 -5 -22 -26.5t-31 -38.5q-5 6 -47 56q1 1 33 15q2 -5 10.5 -22.5t13.5 -29.5q15 20 38 49q1 1 5 -3z" />
    <glyph glyph-name="Dcaron" unicode="&#x10e;" horiz-adv-x="576" 
d="M370 -15q-17 0 -36.5 5t-30.5 10t-33.5 16t-27.5 13q-21 -33 -55 -38q-44 -8 -56 19q-13 27 21.5 39t68.5 1q4 14 5 22q6 39 14 150.5t19 161.5q17 75 57 95q7 -2 7 -7q-29 -12 -34 -83q-1 -25 -2.5 -88t-3.5 -101.5t-10.5 -85.5t-24.5 -75q12 -4 33.5 -13.5t40 -16
t35.5 -9.5q47 -11 72 20q32 43 38 126q5 96 -22 185t-77 139q-58 57 -137 44q-67 -12 -110.5 -56t-59.5 -110q-12 -44 -6 -77q4 -26 14 -35t35 -7q43 3 58 36q7 19 -8 21q-3 6 1.5 11.5t11 6t10.5 -5.5q4 -7 -6 -28q-10 -23 -35 -37t-56 -6q-47 12 -49 75v5q0 51 31.5 97.5
t76.5 75.5q66 43 150 43q109 0 165.5 -82.5t56.5 -205.5q0 -65 -18.5 -122.5t-48.5 -92.5t-74 -35zM217 40q-12 12 -33.5 12t-37 -10t-10.5 -25q8 -19 39 -15q29 5 42 38zM390 618q-4 -5 -22 -26.5t-31 -38.5q-5 6 -47 56q2 1 33 15q2 -5 10.5 -22.5t13.5 -29.5q15 20 38 49
q1 1 5 -3z" />
    <glyph glyph-name="dcaron" unicode="&#x10f;" horiz-adv-x="358" 
d="M134 21q-21 0 -37.5 32.5t-26.5 76.5q-38 -56 -57 -53q-22 2 -34.5 20t-12.5 42q0 35 19 58.5t52 18.5q13 -2 22 -11q-3 31 -3 64q-2 173 48 244q21 32 52 32q59 0 50 -78q-15 -117 -108 -292q12 -143 36 -149q10 -3 35 28q54 63 96 146h7q-3 -5 -16 -29l-33 -55
q-20 -30 -50 -67q-24 -28 -39 -28zM98 187q50 90 83 193q19 60 20 99q2 48 -23 57q-26 9 -42 -30q-44 -96 -38 -319zM68 138q-1 5 -2 17t-2.5 20t-4 17t-7.5 14t-13 5q-13 1 -23 -20t-13 -47t0 -43q8 -50 64 35q0 1 1 2zM247 526q0 7 3.5 10.5t9.5 2.5q14 0 12 -13
q0 -29 -22 -39q-1 1 -1 2q0 2 1 3q5 2 8 10q5 8 3 11q-13 -2 -14 13z" />
    <glyph glyph-name="dcroat" unicode="&#x111;" horiz-adv-x="267" 
 />
    <glyph glyph-name="Emacron" unicode="&#x112;" 
d="M253 557q0 9 10 16h45q24 1 61 1h6q1 -1 1 -4q0 -5 -6 -17q-36 -2 -74 0q-39 0 -42 -1q-1 2 -1 5zM315 522q-40 0 -66 -24t-36 -61q-11 -42 10 -83q-50 -16 -89 -55t-56 -85q-11 -33 -11 -66v-2q0 -60 38 -98.5t97 -55.5q10 -3 22 -3q44 0 106 53q70 67 122 155
q-2 0 -3 1h-3q-56 -93 -133 -162q-42 -34 -75 -41q-34 -6 -61 12t-40 46q-20 37 -15.5 82.5t19.5 83t36 66.5q23 33 56 55q9 -11 30.5 -22t44.5 -13.5t37 13.5q15 19 1 32.5t-38 13.5q-22 1 -47 -2q-23 45 -2.5 95.5t59.5 59.5q36 6 51 -20t2 -65q-12 -34 -34 -36
q-17 -2 -21 10q-4 11 8 13q4 7 -4 12q-11 9 -12 -6q-1 -11 4 -19q9 -14 26 -13q33 2 48 35q17 41 -5.5 67.5t-65.5 26.5zM306 361q20 -1 28.5 -6t5.5 -14q-5 -19 -37 -11q-19 5 -38 24q18 7 41 7z" />
    <glyph glyph-name="emacron" unicode="&#x113;" horiz-adv-x="211" 
d="M-7 292q0 10 10 17h45q24 1 61 1h6q1 -1 1 -4q0 -6 -6 -18q-36 -2 -74 0q-39 0 -42 -1q-1 2 -1 5zM-20 165q0 34 19.5 59t49.5 25h3q21 0 33.5 -10t-5.5 -27q-19 -14 -46 -14q-9 -17 -13.5 -38.5t1 -42t23.5 -25.5q30 -8 83 29q61 45 83 79q1 1 3 1q1 0 3 -2
q-11 -11 -28 -30q-30 -32 -59 -52q-20 -16 -45 -25q-14 -7 -28 -7q-33 0 -54 23.5t-23 56.5zM76 216q20 17 2 23q-19 6 -41 -35q22 -1 39 12z" />
    <glyph glyph-name="Ebreve" unicode="&#x114;" 
d="M224 -11q-12 0 -22 3q-59 17 -97 55.5t-38 98.5v2q0 33 11 66q17 46 56 85t89 55q-28 57 1.5 112.5t90.5 55.5q54 0 69 -32q17 -28 2 -62q-15 -33 -48 -35q-17 -1 -26 13q-9 16 -2 26q3 5 10 -1q8 -5 4 -12q-12 -2 -8 -13q4 -12 21 -10q17 1 28 22.5t10 48.5t-14 40
q-14 11 -33 10.5t-33 -10.5q-28 -18 -40 -62t6 -83q25 3 47 2q22 0 37 -13.5t0 -32.5q-14 -16 -37 -13t-44.5 13.5t-30.5 21.5q-33 -22 -56 -55q-26 -35 -42.5 -82.5t-11.5 -101t41 -83.5q37 -30 74 -23q51 10 116 82q52 56 92 121h3q1 -1 3 -1q-80 -135 -166 -187
q-34 -21 -62 -21zM306 361q-23 0 -41 -7q19 -19 38 -24q32 -8 37 11q3 9 -5.5 14t-28.5 6zM370 592q-2 -14 -15.5 -28.5t-29.5 -15.5h-4q-15 0 -30.5 11.5t-19.5 22.5q8 9 33 15q10 -29 32 -29q22 -1 29 27q1 1 5 -3z" />
    <glyph glyph-name="ebreve" unicode="&#x115;" horiz-adv-x="211" 
d="M-20 165q0 34 19.5 59t49.5 25h3q21 0 33.5 -10t-5.5 -27q-19 -14 -46 -14q-9 -17 -13.5 -38.5t1 -42t23.5 -25.5q30 -8 83 29q61 45 83 79q1 1 3 1q1 0 3 -2q-11 -11 -28 -30q-30 -32 -59 -52q-20 -16 -45 -25q-14 -7 -28 -7q-33 0 -54 23.5t-23 56.5zM76 216
q20 17 2 23q-19 6 -41 -35q22 -1 39 12zM102 317q-2 -14 -15.5 -28.5t-29.5 -15.5h-4q-15 0 -30.5 11.5t-19.5 22.5q8 9 33 15q10 -29 32 -29q22 -1 29 27q1 1 5 -3z" />
    <glyph glyph-name="Edotaccent" unicode="&#x116;" 
d="M224 -11q-12 0 -22 3q-59 17 -97 55.5t-38 98.5v2q0 33 11 66q17 46 56 85t89 55q-28 57 1.5 112.5t90.5 55.5q54 0 69 -32q17 -28 2 -62q-15 -33 -48 -35q-17 -1 -26 13q-9 16 -2 26q3 5 10 -1q8 -5 4 -12q-12 -2 -8 -13q4 -12 21 -10q17 1 28 22.5t10 48.5t-14 40
q-14 11 -33 10.5t-33 -10.5q-28 -18 -40 -62t6 -83q25 3 47 2q22 0 37 -13.5t0 -32.5q-14 -16 -37 -13t-44.5 13.5t-30.5 21.5q-33 -22 -56 -55q-26 -35 -42.5 -82.5t-11.5 -101t41 -83.5q37 -30 74 -23q51 10 116 82q52 56 92 121h3q1 -1 3 -1q-80 -135 -166 -187
q-34 -21 -62 -21zM306 361q-23 0 -41 -7q19 -19 38 -24q32 -8 37 11q3 9 -5.5 14t-28.5 6zM329 553q-8 0 -14 6t-6 15q0 14 14 21q3 0 5 1q7 0 14.5 -7.5t7.5 -15.5t-6.5 -14t-14.5 -6z" />
    <glyph glyph-name="edotaccent" unicode="&#x117;" horiz-adv-x="211" 
d="M-20 165q0 34 19.5 59t49.5 25h3q21 0 33.5 -10t-5.5 -27q-19 -14 -46 -14q-9 -17 -13.5 -38.5t1 -42t23.5 -25.5q30 -8 83 29q61 45 83 79q1 1 3 1q1 0 3 -2q-11 -11 -28 -30q-30 -32 -59 -52q-20 -16 -45 -25q-14 -7 -28 -7q-33 0 -54 23.5t-23 56.5zM76 216
q20 17 2 23q-19 6 -41 -35q22 -1 39 12zM57 266q-8 0 -14 6t-6 15q0 14 14 21q3 0 5 1q7 0 14.5 -7.5t7.5 -15.5t-6.5 -14t-14.5 -6z" />
    <glyph glyph-name="Eogonek" unicode="&#x118;" 
d="M224 -11q-12 0 -22 3q-59 17 -97 55.5t-38 98.5v2q0 33 11 66q17 46 56 85t89 55q-28 57 1.5 112.5t90.5 55.5q54 0 69 -32q17 -28 2 -62q-15 -33 -48 -35q-17 -1 -26 13q-9 16 -2 26q3 5 10 -1q8 -5 4 -12q-12 -2 -8 -13q4 -12 21 -10q17 1 28 22.5t10 48.5t-14 40
q-14 11 -33 10.5t-33 -10.5q-28 -18 -40 -62t6 -83q25 3 47 2q22 0 37 -13.5t0 -32.5q-14 -16 -37 -13t-44.5 13.5t-30.5 21.5q-33 -22 -56 -55q-26 -35 -42.5 -82.5t-11.5 -101t41 -83.5q37 -30 74 -23q51 10 116 82q52 56 92 121h3q1 -1 3 -1q-80 -135 -166 -187
q-34 -21 -62 -21zM306 361q-23 0 -41 -7q19 -19 38 -24q32 -8 37 11q3 9 -5.5 14t-28.5 6zM222 -143q-27 1 -45 16t-18 42q0 39 30 54q21 11 21 19q2 1 8 1q4 -1 9 0q5 -8 -16 -27q-24 -20 -25.5 -50.5t27.5 -44.5q28 -11 49 7t11 46q-6 16 -20 23t-28 -5q-7 -7 -1 -9
q1 -2 -0.5 -4.5t-3.5 -2.5t-4 2q-6 9 8.5 17t26.5 6q24 -3 31 -25q3 -6 3 -12q0 -23 -18.5 -37.5t-43.5 -15.5h-1z" />
    <glyph glyph-name="eogonek" unicode="&#x119;" horiz-adv-x="211" 
d="M-20 165q0 34 19.5 59t49.5 25h3q21 0 33.5 -10t-5.5 -27q-19 -14 -46 -14q-9 -17 -13.5 -38.5t1 -42t23.5 -25.5q30 -8 83 29q61 45 83 79q1 1 3 1q1 0 3 -2q-11 -11 -28 -30q-30 -32 -59 -52q-20 -16 -45 -25q-14 -7 -28 -7q-33 0 -54 23.5t-23 56.5zM76 216
q20 17 2 23q-19 6 -41 -35q22 -1 39 12zM63 -45q-27 1 -45 16t-18 42q0 39 30 54q21 11 21 19q2 1 8 1q5 -1 9 0q5 -8 -16 -27q-24 -20 -25.5 -50.5t27.5 -44.5q28 -11 49 7t11 46q-6 16 -20 23t-28 -5q-7 -7 -1 -9q1 -2 -0.5 -4.5t-3.5 -2.5t-4 2q-6 9 8.5 17t26.5 6
q24 -3 31 -25q3 -6 3 -12q0 -23 -18.5 -37.5t-43.5 -15.5h-1z" />
    <glyph glyph-name="Ecaron" unicode="&#x11a;" 
d="M224 -11q-12 0 -22 3q-59 17 -97 55.5t-38 98.5v2q0 33 11 66q17 46 56 85t89 55q-28 57 1.5 112.5t90.5 55.5q54 0 69 -32q17 -28 2 -62q-15 -33 -48 -35q-17 -1 -26 13q-9 16 -2 26q3 5 10 -1q8 -5 4 -12q-12 -2 -8 -13q4 -12 21 -10q17 1 28 22.5t10 48.5t-14 40
q-14 11 -33 10.5t-33 -10.5q-28 -18 -40 -62t6 -83q25 3 47 2q22 0 37 -13.5t0 -32.5q-14 -16 -37 -13t-44.5 13.5t-30.5 21.5q-33 -22 -56 -55q-26 -35 -42.5 -82.5t-11.5 -101t41 -83.5q37 -30 74 -23q51 10 116 82q52 56 92 121h3q1 -1 3 -1q-80 -135 -166 -187
q-34 -21 -62 -21zM306 361q-23 0 -41 -7q19 -19 38 -24q32 -8 37 11q3 9 -5.5 14t-28.5 6zM389 605q-4 -5 -22 -26.5t-31 -38.5q-5 6 -47 56q1 2 33 15q2 -5 10.5 -22.5t13.5 -29.5q15 20 38 49q1 1 5 -3z" />
    <glyph glyph-name="ecaron" unicode="&#x11b;" horiz-adv-x="211" 
d="M-20 165q0 34 19.5 59t49.5 25h3q21 0 33.5 -10t-5.5 -27q-19 -14 -46 -14q-9 -17 -13.5 -38.5t1 -42t23.5 -25.5q30 -8 83 29q61 45 83 79q1 1 3 1q1 0 3 -2q-11 -11 -28 -30q-30 -32 -59 -52q-20 -16 -45 -25q-14 -7 -28 -7q-33 0 -54 23.5t-23 56.5zM76 216
q20 17 2 23q-19 6 -41 -35q22 -1 39 12zM116 339q-4 -5 -22 -26.5t-31 -38.5q-5 6 -47 56q2 2 33 15q2 -5 10.5 -22.5t13.5 -29.5q15 20 38 49q1 1 5 -3z" />
    <glyph glyph-name="Gcircumflex" unicode="&#x11c;" horiz-adv-x="434" 
d="M330 122q2 -53 -1 -93.5t-14.5 -81t-39 -62.5t-69.5 -23q-38 0 -64 33.5t-14 73.5q8 23 24 40t45 37q22 15 72 47l12 9q1 15 2.5 47.5t2.5 47.5q-23 -33 -69 -64q-49 -31 -93 5t-54 89q-5 23 -5 43q0 46 21 99q48 115 140 149q24 9 54 11h3q36 0 57.5 -23.5t28.5 -59.5
q6 -33 -5.5 -58.5t-37.5 -29.5q-21 -3 -37 16q-15 20 -6 31q6 7 14 -1q5 -4 0 -9q-13 -5 -1 -21q11 -17 32 -14q18 4 22.5 28.5t0 49t-11.5 41.5q-19 43 -55 47q-44 2 -81 -36q-43 -44 -67 -127t-14 -165q7 -54 35 -69.5t70 17.5q30 23 60 62q6 77 16 92q8 12 20 7
q12 -7 9.5 -25t-13.5 -34q5 -41 10 -117q100 57 107 73h6q-2 -4 -11.5 -11.5t-24 -17.5t-27 -18t-28.5 -17.5t-21 -12.5v-5zM281 64v32q-19 -10 -79 -52q-35 -26 -47 -40q-19 -25 -15 -55.5t24 -54.5q21 -27 39 -27q23 -1 39 17.5t23.5 50t10.5 61.5t5 61v7zM318 259
q15 35 6 41q-8 5 -7 -23q0 -8 1 -18zM233 556q6 8 24.5 31t28.5 36q5 -7 21 -26.5t25 -30.5q-10 -10 -33 -15q-1 2 -9.5 19.5t-14.5 31.5q-15 -20 -38 -49q-1 -1 -2.5 0.5t-1.5 2.5z" />
    <glyph glyph-name="gcircumflex" unicode="&#x11d;" horiz-adv-x="250" 
d="M-6 -210q-30 0 -47.5 19.5t-17.5 51.5q0 81 77 160q40 41 85 72q1 16 2.5 59t2.5 57l-21 -42q-21 -41 -41 -40q-35 1 -42.5 37t10.5 64q11 22 34 37t52 15q18 -1 24 -10l10 -15q0 -2 -1 -3.5t-3 -0.5q-3 0 -4.5 2t-4.5 7t-4 7q-12 13 -26 8.5t-23 -15.5q-31 -42 -28 -106
q4 -40 28 -8q9 12 17 30q21 47 23 54q8 10 19.5 7.5t17.5 -11.5q-10 -27 -12 -93l-1 -20q87 57 112 74q15 10 17 15l6 -2q-1 -3 -17 -15q-17 -13 -34.5 -25t-44 -28.5t-40.5 -25.5q0 -8 -1.5 -39.5t-2 -41t-2 -37t-4 -39t-6.5 -34t-9 -34t-12.5 -27.5t-17 -26.5t-21.5 -19.5
q-24 -18 -49 -18zM91 86q-83 -58 -128 -130q-20 -34 -25 -70q-7 -45 10.5 -66t57.5 3q23 15 38.5 42t24.5 70.5t13 70.5t9 80zM32 317q6 8 24.5 31t28.5 36q5 -7 21 -26.5t25 -30.5q-10 -10 -33 -15q-1 2 -9.5 19.5t-14.5 31.5q-15 -20 -38 -49q-1 -1 -2.5 0.5t-1.5 2.5z
" />
    <glyph glyph-name="Gbreve" unicode="&#x11e;" horiz-adv-x="434" 
d="M330 122q2 -53 -1 -93.5t-14.5 -81t-39 -62.5t-69.5 -23q-38 0 -64 33.5t-14 73.5q8 23 24 40t45 37q22 15 72 47l12 9q1 15 2.5 47.5t2.5 47.5q-23 -33 -69 -64q-49 -31 -93 5t-54 89q-5 23 -5 43q0 46 21 99q48 115 140 149q24 9 54 11h3q36 0 57.5 -23.5t28.5 -59.5
q6 -33 -5.5 -58.5t-37.5 -29.5q-21 -3 -37 16q-15 20 -6 31q6 7 14 -1q5 -4 0 -9q-13 -5 -1 -21q11 -17 32 -14q18 4 22.5 28.5t0 49t-11.5 41.5q-19 43 -55 47q-44 2 -81 -36q-43 -44 -67 -127t-14 -165q7 -54 35 -69.5t70 17.5q30 23 60 62q6 77 16 92q8 12 20 7
q12 -7 9.5 -25t-13.5 -34q5 -41 10 -117q100 57 107 73h6q-2 -4 -11.5 -11.5t-24 -17.5t-27 -18t-28.5 -17.5t-21 -12.5v-5zM281 64v32q-19 -10 -79 -52q-35 -26 -47 -40q-19 -25 -15 -55.5t24 -54.5q21 -27 39 -27q23 -1 39 17.5t23.5 50t10.5 61.5t5 61v7zM318 259
q15 35 6 41q-8 5 -7 -23q0 -8 1 -18zM331 603q-2 -14 -15.5 -28.5t-29.5 -15.5h-4q-15 0 -30.5 11.5t-19.5 22.5q8 9 33 15q10 -29 32 -29q22 -1 29 27q1 1 5 -3z" />
    <glyph glyph-name="gbreve" unicode="&#x11f;" horiz-adv-x="250" 
d="M-6 -210q-30 0 -47.5 19.5t-17.5 51.5q0 81 77 160q40 41 85 72q1 16 2.5 59t2.5 57l-21 -42q-21 -41 -41 -40q-35 1 -42.5 37t10.5 64q11 22 34 37t52 15q18 -1 24 -10l10 -15q0 -2 -1 -3.5t-3 -0.5q-3 0 -4.5 2t-4.5 7t-4 7q-12 13 -26 8.5t-23 -15.5q-31 -42 -28 -106
q4 -40 28 -8q9 12 17 30q21 47 23 54q8 10 19.5 7.5t17.5 -11.5q-10 -27 -12 -93l-1 -20q87 57 112 74q15 10 17 15l6 -2q-1 -3 -17 -15q-17 -13 -34.5 -25t-44 -28.5t-40.5 -25.5q0 -8 -1.5 -39.5t-2 -41t-2 -37t-4 -39t-6.5 -34t-9 -34t-12.5 -27.5t-17 -26.5t-21.5 -19.5
q-24 -18 -49 -18zM91 86q-83 -58 -128 -130q-20 -34 -25 -70q-7 -45 10.5 -66t57.5 3q23 15 38.5 42t24.5 70.5t13 70.5t9 80zM124 351q-2 -14 -15.5 -28.5t-29.5 -15.5h-4q-15 0 -30.5 11.5t-19.5 22.5q8 9 33 15q10 -29 32 -29q22 -1 29 27q1 1 5 -3z" />
    <glyph glyph-name="Gdotaccent" unicode="&#x120;" horiz-adv-x="434" 
d="M330 122q2 -53 -1 -93.5t-14.5 -81t-39 -62.5t-69.5 -23q-38 0 -64 33.5t-14 73.5q8 23 24 40t45 37q22 15 72 47l12 9q1 15 2.5 47.5t2.5 47.5q-23 -33 -69 -64q-49 -31 -93 5t-54 89q-5 23 -5 43q0 46 21 99q48 115 140 149q24 9 54 11h3q36 0 57.5 -23.5t28.5 -59.5
q6 -33 -5.5 -58.5t-37.5 -29.5q-21 -3 -37 16q-15 20 -6 31q6 7 14 -1q5 -4 0 -9q-13 -5 -1 -21q11 -17 32 -14q18 4 22.5 28.5t0 49t-11.5 41.5q-19 43 -55 47q-44 2 -81 -36q-43 -44 -67 -127t-14 -165q7 -54 35 -69.5t70 17.5q30 23 60 62q6 77 16 92q8 12 20 7
q12 -7 9.5 -25t-13.5 -34q5 -41 10 -117q100 57 107 73h6q-2 -4 -11.5 -11.5t-24 -17.5t-27 -18t-28.5 -17.5t-21 -12.5v-5zM281 64v32q-19 -10 -79 -52q-35 -26 -47 -40q-19 -25 -15 -55.5t24 -54.5q21 -27 39 -27q23 -1 39 17.5t23.5 50t10.5 61.5t5 61v7zM318 259
q15 35 6 41q-8 5 -7 -23q0 -8 1 -18zM276 555q-8 0 -14 6t-6 15q0 14 14 21q3 0 5 1q7 0 14.5 -7.5t7.5 -15.5t-6.5 -14t-14.5 -6z" />
    <glyph glyph-name="gdotaccent" unicode="&#x121;" horiz-adv-x="250" 
d="M-6 -210q-30 0 -47.5 19.5t-17.5 51.5q0 81 77 160q40 41 85 72q1 16 2.5 59t2.5 57l-21 -42q-21 -41 -41 -40q-35 1 -42.5 37t10.5 64q11 22 34 37t52 15q18 -1 24 -10l10 -15q0 -2 -1 -3.5t-3 -0.5q-3 0 -4.5 2t-4.5 7t-4 7q-12 13 -26 8.5t-23 -15.5q-31 -42 -28 -106
q4 -40 28 -8q9 12 17 30q21 47 23 54q8 10 19.5 7.5t17.5 -11.5q-10 -27 -12 -93l-1 -20q87 57 112 74q15 10 17 15l6 -2q-1 -3 -17 -15q-17 -13 -34.5 -25t-44 -28.5t-40.5 -25.5q0 -8 -1.5 -39.5t-2 -41t-2 -37t-4 -39t-6.5 -34t-9 -34t-12.5 -27.5t-17 -26.5t-21.5 -19.5
q-24 -18 -49 -18zM91 86q-83 -58 -128 -130q-20 -34 -25 -70q-7 -45 10.5 -66t57.5 3q23 15 38.5 42t24.5 70.5t13 70.5t9 80zM76 306q-8 0 -14 6t-6 15q0 14 14 21q3 0 5 1q7 0 14.5 -7.5t7.5 -15.5t-6.5 -14t-14.5 -6z" />
    <glyph glyph-name="Hcircumflex" unicode="&#x124;" horiz-adv-x="566" 
d="M539 -14q0 -19 -37 -19q-19 0 -37 12q-91 59 -91 200q0 48 10 94q-35 0 -54 -3q-23 -4 -57 -15l-2 -15q-13 -93 -41 -158q-14 -35 -29.5 -52t-32.5 -16q-12 0 -18.5 24.5t-7.5 48.5q0 95 81 146q8 55 10 106t-7.5 105t-34.5 75q-18 15 -42 9.5t-43 -17.5t-29 -24
q-32 -35 -32 -78q-1 -29 8.5 -41.5t32.5 -10.5q11 2 16 5q21 9 29 30q4 10 2 13.5t-9 1.5q-12 3 -5 14t16 6q11 -15 2.5 -33.5t-21.5 -28.5q-22 -17 -54 -8q-40 11 -41 50v3q0 37 34 71q46 52 124 52q37 0 60 -28.5t30 -70t8.5 -89.5t-4.5 -87q41 20 112 20l3 12
q23 90 54 179q6 20 5 26q6 9 20 9q8 0 14 -6q0 -13 -12 -68q-25 -102 -35 -156q22 -3 43 -12t21 -21q0 -8 -5.5 -10.5t-12.5 1.5q-12 7 -2 17q10 7 -8 13t-37 9q-7 -45 -10.5 -77t-4.5 -78.5t9.5 -79.5t33.5 -49q22 -15 40 -10q9 2 13 5t3 7q3 7 12.5 5.5t9.5 -8.5zM196 86
q16 68 26 142q-36 -28 -58.5 -73t-13.5 -92q9 -44 16 -44q12 -2 30 67zM314 545q6 8 24.5 31t28.5 36q5 -7 21 -26.5t25 -30.5q-10 -10 -33 -15q-1 2 -9.5 19.5t-14.5 31.5q-15 -20 -38 -49q-1 -1 -2.5 0.5t-1.5 2.5z" />
    <glyph glyph-name="hcircumflex" unicode="&#x125;" horiz-adv-x="272" 
d="M131 6q-29 7 -29 66q-2 32 5 94q3 25 -4 25q-15 0 -47 -64q-18 -31 -23 -54q-13 -18 -21 -15q-24 59 -24 167q0 142 40 228q32 72 87 72q30 0 46.5 -15t10.5 -45q-10 -43 -38 -92.5t-50.5 -79.5t-58.5 -73q-1 -13 -1 -40q-2 -63 7 -102q4 28 23 61.5t38 51.5q13 11 23 11
q33 -2 31 -67q0 -31 -10 -98q0 -9 -1 -16.5t2 -8t4.5 -1t6 4l7.5 7.5t9 10q40 52 83 126q19 32 24 40q3 0 6 -1q-7 -11 -25.5 -43t-26.5 -45q-25 -38 -53 -74q-24 -30 -38 -30h-3zM152 512q-30 13 -55 -15.5t-39 -80.5t-22 -100t-10 -88q117 149 140 238q10 37 -14 46z
M85 558q6 8 24.5 31t28.5 36q5 -7 21 -26.5t25 -30.5q-10 -10 -33 -15q-1 2 -9.5 19.5t-14.5 31.5q-15 -20 -38 -49q-1 -1 -2.5 0.5t-1.5 2.5z" />
    <glyph glyph-name="Itilde" unicode="&#x128;" horiz-adv-x="379" 
d="M147 -21q-45 0 -75.5 27t-30.5 67v6q2 31 24 45t51 -1q23 -13 21 -37q-1 -23 -28 -25q-18 -1 -25 10q-8 13 -2 22q3 5 10 0q6 -4 1 -11q-5 1 -6 -2t1 -8q4 -10 18 -9q19 2 11 36q-9 32 -40 28q-26 -4 -27 -46q-2 -43 27 -72.5t75 -25.5q26 2 45 23t30 60.5t15.5 66.5
t9.5 72q1 12 2 17q13 136 27 215q4 22 13 46q-76 -11 -117 -41q-19 -16 -23.5 -40.5t9.5 -49.5q16 -23 30 -22q24 3 29 20q2 9 0 11.5t-8 0.5q-3 2 -3 6t3.5 7.5t6.5 1.5q11 -4 4 -26t-32 -24q-53 -1 -62 39q-8 42 38.5 75t100.5 42q5 1 13 2.5t12 1.5q16 38 42 53q8 4 16 4
h1q16 0 21 -14v-5q1 -15 -41 -30q-8 -25 -13 -78q-11 -159 -36 -271q-21 -99 -67 -141q-27 -26 -71 -26zM370 529q-5 8 -17 -4.5t-17 -24.5q6 3 11.5 5.5t13.5 7t9.5 8.5t-0.5 8zM211 574q0 36 27 40h8q11 0 31 -9t31 -12t26 6q5 5 5 7q1 1 3 1q1 0 2 -1v-1
q0 -14 -8.5 -25.5t-22.5 -13.5h-8q-19 0 -36 9q-37 22 -49 7q-4 -5 -4 -8h-3h-2z" />
    <glyph glyph-name="itilde" unicode="&#x129;" horiz-adv-x="160" 
d="M18 228q7 0 12 -8q0 -8 -2.5 -20t-6.5 -27.5t-5 -22.5q-18 -81 0 -84q10 -3 35 21q33 28 90 91q4 5 8.5 10.5t6.5 8t2 3.5h6q-14 -19 -57 -65q-35 -37 -54 -53q-25 -21 -38 -21q-36 0 -36 65q0 15 13 90q10 12 26 12zM-47 264q0 35 27 39h8q11 0 31 -9t31 -12t26 6
q5 5 5 7q1 1 3 1q1 0 2 -1v-1q0 -14 -8.5 -25.5t-22.5 -13.5h-8q-17 0 -36 10q-37 21 -49 6q-4 -5 -4 -7q-1 -1 -3 -1q-1 0 -2 1z" />
    <glyph glyph-name="Imacron" unicode="&#x12a;" horiz-adv-x="379" 
d="M249 580q0 10 10 17h45q24 1 61 1h6q1 -1 1 -4q0 -6 -6 -18q-36 -2 -74 0q-39 0 -42 -1q-1 2 -1 5zM41 73q0 -40 30.5 -67t75.5 -27q72 0 111 83q27 57 45 180q12 94 18 175q5 53 13 78q42 15 41 30v5q-5 14 -21 14h-1q-16 0 -35 -19q-11 -11 -23 -38q-80 -13 -119 -41
q-53 -38 -45 -80q9 -40 62 -39q25 2 32 24t-4 26q-3 2 -6.5 -1.5t-3.5 -7.5t3 -6q6 2 8 -0.5t0 -11.5q-5 -17 -29 -20q-18 -1 -30.5 23t-10.5 47q4 21 17.5 36.5t36.5 24.5t41.5 13.5t46.5 8.5q-9 -24 -13 -46q-7 -42 -16 -130.5t-21 -157.5t-32 -116q-21 -47 -60 -50
q-25 -1 -43 6q-27 10 -43.5 35.5t-15.5 56.5q1 42 27 46q31 4 40 -28q8 -34 -11 -36q-14 -1 -18 9q-2 5 -1 8t6 2q3 4 1 8t-5.5 4.5t-6.5 -2.5q-6 -7 2 -21q7 -11 25 -10q27 2 28 25q1 21 -16.5 34.5t-42.5 7.5q-34 -6 -37 -49v-6zM336 500q5 12 17 24.5t17 4.5q2 -4 0.5 -8
t-9.5 -8.5t-13.5 -7t-11.5 -5.5z" />
    <glyph glyph-name="imacron" unicode="&#x12b;" horiz-adv-x="162" 
d="M18 228q7 0 12 -8q0 -8 -2.5 -20t-6.5 -27.5t-5 -22.5q-18 -81 0 -84q10 -3 35 21q33 28 90 91q4 5 8.5 10.5t6.5 8t2 3.5h6q-14 -19 -57 -65q-35 -37 -54 -53q-25 -21 -38 -21q-36 0 -36 65q0 15 13 90q10 12 26 12z" />
    <glyph glyph-name="Ibreve" unicode="&#x12c;" horiz-adv-x="379" 
d="M147 -21q-45 0 -75.5 27t-30.5 67v6q2 31 24 45t51 -1q23 -13 21 -37q-1 -23 -28 -25q-18 -1 -25 10q-8 13 -2 22q3 5 10 0q6 -4 1 -11q-5 1 -6 -2t1 -8q4 -10 18 -9q19 2 11 36q-9 32 -40 28q-26 -4 -27 -46q-2 -43 27 -72.5t75 -25.5q26 2 45 23t30 60.5t15.5 66.5
t9.5 72q1 12 2 17q13 136 27 215q4 22 13 46q-76 -11 -117 -41q-19 -16 -23.5 -40.5t9.5 -49.5q16 -23 30 -22q24 3 29 20q2 9 0 11.5t-8 0.5q-3 2 -3 6t3.5 7.5t6.5 1.5q11 -4 4 -26t-32 -24q-53 -1 -62 39q-8 42 38.5 75t100.5 42q5 1 13 2.5t12 1.5q16 38 42 53q8 4 16 4
h1q16 0 21 -14v-5q1 -15 -41 -30q-8 -25 -13 -78q-11 -159 -36 -271q-21 -99 -67 -141q-27 -26 -71 -26zM370 529q-5 8 -17 -4.5t-17 -24.5q6 3 11.5 5.5t13.5 7t9.5 8.5t-0.5 8zM354 607q-2 -14 -15.5 -28.5t-29.5 -15.5h-4q-15 0 -30.5 11.5t-19.5 22.5q8 9 33 15
q10 -29 32 -29q22 -1 29 27q1 1 5 -3z" />
    <glyph glyph-name="ibreve" unicode="&#x12d;" horiz-adv-x="160" 
d="M18 228q7 0 12 -8q0 -8 -2.5 -20t-6.5 -27.5t-5 -22.5q-18 -81 0 -84q10 -3 35 21q33 28 90 91q4 5 8.5 10.5t6.5 8t2 3.5h6q-14 -19 -57 -65q-35 -37 -54 -53q-25 -21 -38 -21q-36 0 -36 65q0 15 13 90q10 12 26 12zM70 308q-2 -14 -15.5 -28.5t-29.5 -15.5h-4
q-15 0 -30.5 11.5t-19.5 22.5q7 8 33 14q10 -28 32 -28q22 -1 29 27q1 1 5 -3z" />
    <glyph glyph-name="Iogonek" unicode="&#x12e;" horiz-adv-x="379" 
d="M147 -21q-45 0 -75.5 27t-30.5 67v6q2 31 24 45t51 -1q23 -13 21 -37q-1 -23 -28 -25q-18 -1 -25 10q-8 13 -2 22q3 5 10 0q6 -4 1 -11q-5 1 -6 -2t1 -8q4 -10 18 -9q19 2 11 36q-9 32 -40 28q-26 -4 -27 -46q-2 -43 27 -72.5t75 -25.5q26 2 45 23t30 60.5t15.5 66.5
t9.5 72q1 12 2 17q13 136 27 215q4 22 13 46q-76 -11 -117 -41q-19 -16 -23.5 -40.5t9.5 -49.5q16 -23 30 -22q24 3 29 20q2 9 0 11.5t-8 0.5q-3 2 -3 6t3.5 7.5t6.5 1.5q11 -4 4 -26t-32 -24q-53 -1 -62 39q-8 42 38.5 75t100.5 42q5 1 13 2.5t12 1.5q16 38 42 53q8 4 16 4
h1q16 0 21 -14v-5q1 -15 -41 -30q-8 -25 -13 -78q-11 -159 -36 -271q-21 -99 -67 -141q-27 -26 -71 -26zM370 529q-5 8 -17 -4.5t-17 -24.5q6 3 11.5 5.5t13.5 7t9.5 8.5t-0.5 8zM160 -150q-27 1 -45 16t-18 42q0 39 30 54q21 10 21 19q2 1 8 1q4 -2 9 0q5 -8 -16 -27
q-24 -20 -25.5 -50.5t27.5 -44.5q28 -11 49 7t11 46q-6 16 -20 23t-28 -5q-7 -7 -1 -9q1 -2 -0.5 -4.5t-3.5 -2.5t-4 2q-6 9 8.5 17t26.5 6q24 -3 31 -25q3 -6 3 -12q0 -23 -18.5 -37.5t-43.5 -15.5h-1z" />
    <glyph glyph-name="iogonek" unicode="&#x12f;" horiz-adv-x="160" 
d="M18 228q7 0 12 -8q0 -8 -2.5 -20t-6.5 -27.5t-5 -22.5q-18 -81 0 -84q10 -3 35 21q33 28 90 91q4 5 8.5 10.5t6.5 8t2 3.5h6q-14 -19 -57 -65q-35 -37 -54 -53q-25 -21 -38 -21q-36 0 -36 65q0 15 13 90q10 12 26 12zM17 -68q-27 1 -45.5 16t-18.5 41q0 40 30 55
q21 10 21 18q2 1 9 1q4 -1 8 0q5 -8 -16 -27q-24 -20 -25 -50.5t28 -44.5q28 -11 48.5 7t10.5 46q-6 16 -19.5 23.5t-27.5 -4.5q-7 -7 -1 -9q1 -2 -0.5 -4.5t-3.5 -2.5t-4 2q-6 9 8 16.5t26 5.5q24 -3 31 -25q3 -6 3 -12q0 -23 -18 -37t-43 -15h-1z" />
    <glyph glyph-name="Idotaccent" unicode="&#x130;" horiz-adv-x="379" 
d="M147 -21q-45 0 -75.5 27t-30.5 67v6q2 31 24 45t51 -1q23 -13 21 -37q-1 -23 -28 -25q-18 -1 -25 10q-8 13 -2 22q3 5 10 0q6 -4 1 -11q-5 1 -6 -2t1 -8q4 -10 18 -9q19 2 11 36q-9 32 -40 28q-26 -4 -27 -46q-2 -43 27 -72.5t75 -25.5q26 2 45 23t30 60.5t15.5 66.5
t9.5 72q1 12 2 17q13 136 27 215q4 22 13 46q-76 -11 -117 -41q-19 -16 -23.5 -40.5t9.5 -49.5q16 -23 30 -22q24 3 29 20q2 9 0 11.5t-8 0.5q-3 2 -3 6t3.5 7.5t6.5 1.5q11 -4 4 -26t-32 -24q-53 -1 -62 39q-8 42 38.5 75t100.5 42q5 1 13 2.5t12 1.5q16 38 42 53q8 4 16 4
h1q16 0 21 -14v-5q1 -15 -41 -30q-8 -25 -13 -78q-11 -159 -36 -271q-21 -99 -67 -141q-27 -26 -71 -26zM370 529q-5 8 -17 -4.5t-17 -24.5q6 3 11.5 5.5t13.5 7t9.5 8.5t-0.5 8zM333 562q-8 0 -14 6t-6 15q0 14 14 21q3 0 5 1q7 0 14.5 -7.5t7.5 -15.5t-6.5 -14t-14.5 -6z
" />
    <glyph glyph-name="dotlessi" unicode="&#x131;" horiz-adv-x="160" 
d="M18 228q7 0 12 -8q0 -8 -2.5 -20t-6.5 -27.5t-5 -22.5q-18 -81 0 -84q10 -3 35 21q33 28 90 91q4 5 8.5 10.5t6.5 8t2 3.5h6q-14 -19 -57 -65q-35 -37 -54 -53q-25 -21 -38 -21q-36 0 -36 65q0 15 13 90q10 12 26 12z" />
    <glyph glyph-name="Jcircumflex" unicode="&#x134;" horiz-adv-x="439" 
d="M419 531q23 0 23 -20q-1 -18 -45 -32q-3 -7 -9 -41q-6 -37 -16 -118.5t-20.5 -144.5t-24.5 -112q-27 -94 -74 -132q-22 -18 -49 -19h-13q-47 -3 -89 30q-67 50 -64 119q0 72 76 86q40 9 68 -8.5t30 -53.5q2 -25 -10 -44t-34 -20q-20 -2 -27 12q-9 17 -2 24q4 2 10 -1
q6 -4 1 -12q-5 1 -6 -2t2 -9q4 -11 19 -10q22 4 23 46q1 37 -21 60t-60 15q-44 -10 -53.5 -57t14.5 -90q30 -63 89 -78q69 -19 99 52q10 22 17.5 47.5t14.5 63.5t9.5 55.5t9.5 69t8 59.5q20 147 39 200q-18 -4 -32 -5q-54 -7 -93 -33.5t-41 -72.5q-2 -35 13 -59t46 -21
q29 1 40 20q8 16 2 15q-1 0 -4 -1q-7 3 -3 10.5t10 5.5q11 -4 -1 -29q-16 -29 -59.5 -24.5t-59.5 28.5q-21 33 -1.5 68.5t50.5 57.5q44 30 103 39q16 1 31 6q24 60 63 60h1zM437 516q-6 9 -19 -4.5t-19 -27.5q15 6 29.5 15.5t8.5 16.5zM332 553q6 8 24.5 31t28.5 36
q5 -7 21 -26.5t25 -30.5q-10 -10 -33 -15q-1 2 -9.5 19.5t-14.5 31.5q-15 -20 -38 -49q-1 -1 -2.5 0.5t-1.5 2.5z" />
    <glyph glyph-name="jcircumflex" unicode="&#x135;" horiz-adv-x="132" 
d="M22 117q11 9 37.5 29.5t47.5 37t25 21.5q1 -1 3 -1q3 -1 4 -1q-5 -6 -27 -24t-51 -39.5t-39 -30.5q-3 -105 -16.5 -175.5t-52.5 -107.5q-27 -27 -57 -27q-23 0 -40 19.5t-17 45.5q0 20 11 48q31 79 140 178q11 108 3 133q8 11 19 11q2 1 6 -1q4 -14 4 -116zM-11 80
q-33 -31 -51.5 -50t-43 -51.5t-37.5 -63.5q-18 -45 -7 -72q11 -29 43 -18q72 22 96 255zM-40 265q2 2 20.5 25.5t32.5 40.5q5 -7 21 -26.5t25 -30.5q-8 -8 -34 -14q-19 42 -23 51q-15 -20 -38 -49q-1 -1 -2.5 0.5t-1.5 2.5z" />
    <glyph glyph-name="Lacute" unicode="&#x139;" horiz-adv-x="427" 
d="M360 536q25 0 42 -14t18 -37q0 -7 -3 -17q-8 -41 -46 -80t-81 -63q0 -1 -1 -1t-2 -1q-23 -97 -47 -161.5t-65 -107.5q39 -21 81 -48q50 -33 86 -34q29 -1 41 7q11 7 6 12q-2 10 10 12q10 1 11 -7q1 -9 -10.5 -16.5t-26.5 -11t-28 -3.5h-9q-67 5 -110 36q-13 10 -62 43
q-30 -30 -81 -32q-48 -1 -49 27v2q0 22 24.5 34.5t53.5 4.5q20 -6 32 -12q34 58 63 158l20 66q1 2 1 6q-13 -3 -40 -5q-41 0 -60 19q-20 20 -8 32q5 4 9.5 2t7 -8t0.5 -11q-11 -4 1 -15q15 -9 41.5 -8.5t50.5 5.5q40 149 62 186q25 41 68 41zM335 494q-13 -21 -46 -163l1 1
q43 24 78.5 61t43.5 77q9 44 -22 53t-55 -29zM86 27q29 2 53 35q-40 23 -71 14q-31 -10 -21 -31q11 -19 39 -18zM397 635q5 0 11.5 -10.5t6.5 -13.5q-5 -13 -24 -26q-22 -15 -24 -19q-2 0 -5 3q1 3 15 31.5t15 31.5q3 3 5 3z" />
    <glyph glyph-name="lacute" unicode="&#x13a;" horiz-adv-x="214" 
d="M59 25q-27 3 -44.5 30.5t-24.5 60.5t-8 71v15q0 67 15 124q18 80 59 130q26 30 57 30q26 0 45 -13t17 -38q-3 -31 -37 -90q-38 -60 -114 -147v-7q-5 -101 18 -143q8 -14 17.5 -16t19 4.5t24.5 22.5q42 43 93 116q5 7 9.5 13.5t7 10t3.5 4.5q4 0 7 -1q-1 -1 -3.5 -4.5
t-7 -10t-9.5 -13.5q-68 -89 -98 -120q-29 -29 -44 -29h-2zM25 209q100 109 138 204q16 43 -10 58q-29 16 -53.5 -8.5t-39.5 -75t-23 -94.5t-12 -84zM157 580q5 0 11.5 -10.5t6.5 -13.5q-5 -13 -24 -26q-22 -15 -24 -19q-2 0 -5 3q1 3 15 31.5t15 31.5q3 3 5 3z" />
    <glyph glyph-name="Lcaron" unicode="&#x13d;" horiz-adv-x="427" 
d="M360 536q25 0 42 -14t18 -37q0 -7 -3 -17q-8 -41 -46 -80t-81 -63q0 -1 -1 -1t-2 -1q-23 -97 -47 -161.5t-65 -107.5q39 -21 81 -48q50 -33 86 -34q29 -1 41 7q11 7 6 12q-2 10 10 12q10 1 11 -7q1 -9 -10.5 -16.5t-26.5 -11t-28 -3.5h-9q-67 5 -110 36q-13 10 -62 43
q-30 -30 -81 -32q-48 -1 -49 27v2q0 22 24.5 34.5t53.5 4.5q20 -6 32 -12q34 58 63 158l20 66q1 2 1 6q-13 -3 -40 -5q-41 0 -60 19q-20 20 -8 32q5 4 9.5 2t7 -8t0.5 -11q-11 -4 1 -15q15 -9 41.5 -8.5t50.5 5.5q40 149 62 186q25 41 68 41zM335 494q-13 -21 -46 -163l1 1
q43 24 78.5 61t43.5 77q9 44 -22 53t-55 -29zM86 27q29 2 53 35q-40 23 -71 14q-31 -10 -21 -31q11 -19 39 -18zM444 521q0 7 3.5 10.5t9.5 2.5q14 0 12 -13q0 -29 -22 -39q-1 1 -1 2q0 2 1 3q5 2 8 10q5 8 3 11q-13 -2 -14 13z" />
    <glyph glyph-name="lcaron" unicode="&#x13e;" horiz-adv-x="305" 
d="M59 25q-27 3 -44.5 30.5t-24.5 60.5t-8 71v15q0 67 15 124q18 80 59 130q26 30 57 30q26 0 45 -13t17 -38q-3 -31 -37 -90q-38 -60 -114 -147v-7q-5 -101 18 -143q8 -14 17.5 -16t19 4.5t24.5 22.5q42 43 93 116q5 7 9.5 13.5t7 10t3.5 4.5q4 0 7 -1q-1 -1 -3.5 -4.5
t-7 -10t-9.5 -13.5q-68 -89 -98 -120q-29 -29 -44 -29h-2zM25 209q100 109 138 204q16 43 -10 58q-29 16 -53.5 -8.5t-39.5 -75t-23 -94.5t-12 -84zM215 474q0 7 3.5 10.5t9.5 2.5q14 0 12 -13q0 -29 -22 -39q-1 1 -1 2q0 2 1 3q5 2 8 10q5 8 3 11q-13 -2 -14 13z" />
    <glyph glyph-name="Ldot" unicode="&#x13f;" horiz-adv-x="427" 
d="M344 221q-9 0 -15 5.5t-6 14.5q0 8 6 15t14 7q9 0 15 -7.5t6 -16.5q0 -7 -6.5 -12.5t-13.5 -5.5zM360 536q25 0 42 -14t18 -37q0 -7 -3 -17q-8 -41 -46 -80t-81 -63q0 -1 -1 -1t-2 -1q-23 -97 -47 -161.5t-65 -107.5q39 -21 81 -48q50 -33 86 -34q29 -1 41 7q11 7 6 12
q-2 10 10 12q10 1 11 -7q1 -9 -10.5 -16.5t-26.5 -11t-28 -3.5h-9q-67 5 -110 36q-13 10 -62 43q-30 -30 -81 -32q-48 -1 -49 27v2q0 22 24.5 34.5t53.5 4.5q20 -6 32 -12q34 58 63 158l20 66q1 2 1 6q-13 -3 -40 -5q-41 0 -60 19q-20 20 -8 32q5 4 9.5 2t7 -8t0.5 -11
q-11 -4 1 -15q15 -9 41.5 -8.5t50.5 5.5q40 149 62 186q25 41 68 41zM335 494q-13 -21 -46 -163l1 1q43 24 78.5 61t43.5 77q9 44 -22 53t-55 -29zM86 27q29 2 53 35q-40 23 -71 14q-31 -10 -21 -31q11 -19 39 -18z" />
    <glyph glyph-name="ldot" unicode="&#x140;" horiz-adv-x="214" 
d="M150 247q-8 0 -14 6t-6 15q0 8 5.5 14.5t13.5 6.5q9 0 15.5 -7t6.5 -16q0 -7 -7 -13t-14 -6zM59 25q-27 3 -44.5 30.5t-24.5 60.5t-8 71v15q0 67 15 124q18 80 59 130q26 30 57 30q26 0 45 -13t17 -38q-3 -31 -37 -90q-38 -60 -114 -147v-7q-5 -101 18 -143
q8 -14 17.5 -16t19 4.5t24.5 22.5q42 43 93 116q5 7 9.5 13.5t7 10t3.5 4.5q4 0 7 -1q-1 -1 -3.5 -4.5t-7 -10t-9.5 -13.5q-68 -89 -98 -120q-29 -29 -44 -29h-2zM25 209q100 109 138 204q16 43 -10 58q-29 16 -53.5 -8.5t-39.5 -75t-23 -94.5t-12 -84z" />
    <glyph glyph-name="Nacute" unicode="&#x143;" horiz-adv-x="578" 
d="M449 489q0 52 -15 52q-18 0 -42 -56q-65 -157 -114 -380q-2 -6 -3.5 -11.5t-1.5 -6.5q-10 -9 -23 6q-15 14 -18 23q39 186 29 275q-5 47 -21 69.5t-42 18.5q-72 -15 -121 -109q-9 -17 -15.5 -36t-10 -41.5t5.5 -37t32 -14.5q34 0 53 30q12 21 -1 25q1 7 8.5 11t11.5 -4
q4 -6 -10 -28q-14 -19 -37 -31.5t-46 -2.5q-39 12 -37 51q0 46 30.5 89t70.5 71q33 24 70 30q37 7 60.5 -20t31 -75t7.5 -93.5t-5 -90.5q36 144 72 240q29 76 55 99q11 9 18 9l1 1q35 -2 46 -54q10 -46 6 -120q-2 -35 -9 -127.5t-9 -140.5q-5 -92 14 -126q14 -26 50 -16
q14 4 9 12q1 6 12 6q8 -1 8 -7v-2q0 -6 -14.5 -10t-27.5 -4q-74 0 -90 94q-19 116 3 316q8 72 9 116zM457 658q5 0 11.5 -10.5t6.5 -13.5q-5 -13 -24 -26q-22 -15 -24 -19q-2 0 -5 3q1 3 15 31.5t15 31.5q3 3 5 3z" />
    <glyph glyph-name="nacute" unicode="&#x144;" horiz-adv-x="274" 
d="M0 135q6 10 -1.5 43t-12.5 44q5 7 17.5 12.5t17.5 -4.5q3 -11 8.5 -48.5t5.5 -50.5q3 10 10.5 34.5t12.5 40.5t13 35.5t16 31.5q11 17 20 17h3q40 -7 31 -109q-5 -51 -12 -95q-10 -49 1 -48q7 0 24 17q42 39 93 110q16 21 26 36q1 -1 6 -1l-18 -26q-55 -73 -97 -116
q-26 -27 -39 -26h-4q-15 6 -22.5 23.5t-7.5 48.5t1.5 51t7.5 57.5t6 40.5q2 14 1 21.5t-3.5 9t-6 -1.5t-7.5 -10t-8 -16q-12 -28 -24 -63q-16 -55 -25 -75q-9 -5 -18.5 2t-14.5 15zM135 387q5 0 11.5 -10.5t6.5 -13.5q-5 -13 -24 -26q-22 -15 -24 -19q-2 0 -5 3q1 3 15 31.5
t15 31.5q3 3 5 3z" />
    <glyph glyph-name="Ncaron" unicode="&#x147;" horiz-adv-x="578" 
d="M449 489q0 52 -15 52q-18 0 -42 -56q-65 -157 -114 -380q-2 -6 -3.5 -11.5t-1.5 -6.5q-10 -9 -23 6q-15 14 -18 23q39 186 29 275q-5 47 -21 69.5t-42 18.5q-72 -15 -121 -109q-9 -17 -15.5 -36t-10 -41.5t5.5 -37t32 -14.5q34 0 53 30q12 21 -1 25q1 7 8.5 11t11.5 -4
q4 -6 -10 -28q-14 -19 -37 -31.5t-46 -2.5q-39 12 -37 51q0 46 30.5 89t70.5 71q33 24 70 30q37 7 60.5 -20t31 -75t7.5 -93.5t-5 -90.5q36 144 72 240q29 76 55 99q11 9 18 9l1 1q35 -2 46 -54q10 -46 6 -120q-2 -35 -9 -127.5t-9 -140.5q-5 -92 14 -126q14 -26 50 -16
q14 4 9 12q1 6 12 6q8 -1 8 -7v-2q0 -6 -14.5 -10t-27.5 -4q-74 0 -90 94q-19 116 3 316q8 72 9 116zM503 654q-4 -5 -22 -26.5t-31 -38.5q-5 6 -47 56q1 1 33 15q2 -5 10.5 -22.5t13.5 -29.5q15 20 38 49q1 1 5 -3z" />
    <glyph glyph-name="ncaron" unicode="&#x148;" horiz-adv-x="274" 
d="M0 135q6 10 -1.5 43t-12.5 44q5 7 17.5 12.5t17.5 -4.5q3 -11 8.5 -48.5t5.5 -50.5q3 10 10.5 34.5t12.5 40.5t13 35.5t16 31.5q11 17 20 17h3q40 -7 31 -109q-5 -51 -12 -95q-10 -49 1 -48q7 0 24 17q42 39 93 110q16 21 26 36q1 -1 6 -1l-18 -26q-55 -73 -97 -116
q-26 -27 -39 -26h-4q-15 6 -22.5 23.5t-7.5 48.5t1.5 51t7.5 57.5t6 40.5q2 14 1 21.5t-3.5 9t-6 -1.5t-7.5 -10t-8 -16q-12 -28 -24 -63q-16 -55 -25 -75q-9 -5 -18.5 2t-14.5 15zM173 378q-4 -5 -22 -26.5t-31 -38.5q-5 6 -47 56q1 1 33 15q2 -5 10.5 -22.5t13.5 -29.5
q15 20 38 49q1 1 5 -3z" />
    <glyph glyph-name="napostrophe" unicode="&#x149;" horiz-adv-x="274" 
d="M0 135q6 10 -1.5 43t-12.5 44q5 7 17.5 12.5t17.5 -4.5q3 -11 8.5 -48.5t5.5 -50.5q3 10 10.5 34.5t12.5 40.5t13 35.5t16 31.5q11 17 20 17h3q40 -7 31 -109q-5 -51 -12 -95q-10 -49 1 -48q7 0 24 17q42 39 93 110q16 21 26 36q1 -1 6 -1l-18 -26q-55 -73 -97 -116
q-26 -27 -39 -26h-4q-15 6 -22.5 23.5t-7.5 48.5t1.5 51t7.5 57.5t6 40.5q2 14 1 21.5t-3.5 9t-6 -1.5t-7.5 -10t-8 -16q-12 -28 -24 -63q-16 -55 -25 -75q-9 -5 -18.5 2t-14.5 15zM9 401q0 7 3.5 10.5t9.5 2.5q14 0 12 -13q0 -29 -22 -39q-1 1 -1 2q0 2 1 3q5 2 8 10
q5 8 3 11q-13 -2 -14 13z" />
    <glyph glyph-name="Eng" unicode="&#x14a;" horiz-adv-x="578" 
 />
    <glyph glyph-name="Omacron" unicode="&#x14c;" horiz-adv-x="488" 
d="M254 575q0 9 10 17h45q24 1 61 1h6q1 -1 1 -4q0 -6 -6 -18q-36 -2 -74 0q-39 0 -42 -1q-1 2 -1 5zM35 188q0 88 36.5 160t97.5 100q10 0 10 -10q-31 -15 -52 -86.5t-26 -139.5q-10 -147 57 -203q35 -27 76 -20.5t71 40.5q82 94 103 262q12 94 -2 164q-21 97 -96 75
q-62 -20 -81 -99q-9 -42 1.5 -74t40.5 -38q27 -5 50 18q22 22 3 25q-1 8 9 13t14 -5q2 -9 -22 -36q-33 -29 -76.5 -14t-56.5 46q-18 40 0.5 81.5t49.5 64.5q36 27 77 27h14q63 -7 84 -81q14 -48 14 -103q0 -107 -45 -215q-28 -67 -73 -113q-43 -45 -95 -45h-1
q-86 1 -133.5 57t-48.5 144v5z" />
    <glyph glyph-name="omacron" unicode="&#x14d;" horiz-adv-x="230" 
d="M0 344q0 8 10 16h45q24 1 61 1h6q1 -1 1 -4q0 -5 -6 -17q-36 -2 -74 0q-39 0 -42 -1q-1 2 -1 5zM234 200q-24 -33 -117 -35h-3q-10 -54 -40 -90q-17 -20 -37 -20q-30 0 -50.5 24.5t-20.5 55.5q0 38 31 69q-18 26 -18 42q-2 27 18.5 43t49.5 16q84 0 68 -136h14
q30 2 61 10.5t38 22.5zM35 222q12 0 18 -18q-5 -1 -13 -12q3 -3 19 -10q17 -9 33 -10q3 0 8.5 -1t8.5 -2q8 41 -1.5 76.5t-35.5 46.5q-30 10 -48 -17.5t-3 -56.5q6 2 14 4zM108 164q-41 0 -76 16q-17 -28 -25 -71q-5 -37 16.5 -47t44.5 17q30 35 40 85z" />
    <glyph glyph-name="Obreve" unicode="&#x14e;" horiz-adv-x="488" 
d="M35 188q0 88 36.5 160t97.5 100q10 0 10 -10q-31 -15 -52 -86.5t-26 -139.5q-10 -147 57 -203q35 -27 76 -20.5t71 40.5q82 94 103 262q12 94 -2 164q-21 97 -96 75q-62 -20 -81 -99q-9 -42 1.5 -74t40.5 -38q27 -5 50 18q22 22 3 25q-1 8 9 13t14 -5q2 -9 -22 -36
q-33 -29 -76.5 -14t-56.5 46q-18 40 0.5 81.5t49.5 64.5q36 27 77 27h14q63 -7 84 -81q14 -48 14 -103q0 -107 -45 -215q-28 -67 -73 -113q-43 -45 -95 -45h-1q-86 1 -133.5 57t-48.5 144v5zM372 610q-2 -14 -15.5 -28.5t-29.5 -15.5h-4q-15 0 -30.5 11.5t-19.5 22.5
q8 9 33 15q10 -29 32 -29q22 -1 29 27q1 1 5 -3z" />
    <glyph glyph-name="obreve" unicode="&#x14f;" horiz-adv-x="230" 
d="M234 200q-24 -33 -117 -35h-3q-10 -54 -40 -90q-17 -20 -37 -20q-30 0 -50.5 24.5t-20.5 55.5q0 38 31 69q-18 26 -18 42q-2 27 18.5 43t49.5 16q84 0 68 -136h14q30 2 61 10.5t38 22.5zM35 222q12 0 18 -18q-5 -1 -13 -12q3 -3 19 -10q17 -9 33 -10q3 0 8.5 -1t8.5 -2
q8 41 -1.5 76.5t-35.5 46.5q-30 10 -48 -17.5t-3 -56.5q6 2 14 4zM108 164q-41 0 -76 16q-17 -28 -25 -71q-5 -37 16.5 -47t44.5 17q30 35 40 85zM98 374q-2 -14 -15.5 -28.5t-29.5 -15.5h-4q-15 0 -30.5 11.5t-19.5 22.5q8 9 33 15q10 -29 32 -29q22 -1 29 27q1 1 5 -3z
" />
    <glyph glyph-name="Ohungarumlaut" unicode="&#x150;" horiz-adv-x="488" 
d="M35 188q0 88 36.5 160t97.5 100q10 0 10 -10q-31 -15 -52 -86.5t-26 -139.5q-10 -147 57 -203q35 -27 76 -20.5t71 40.5q82 94 103 262q12 94 -2 164q-21 97 -96 75q-62 -20 -81 -99q-9 -42 1.5 -74t40.5 -38q27 -5 50 18q22 22 3 25q-1 8 9 13t14 -5q2 -9 -22 -36
q-33 -29 -76.5 -14t-56.5 46q-18 40 0.5 81.5t49.5 64.5q36 27 77 27h14q63 -7 84 -81q14 -48 14 -103q0 -107 -45 -215q-28 -67 -73 -113q-43 -45 -95 -45h-1q-86 1 -133.5 57t-48.5 144v5zM348 562q0 3 1.5 26.5t1.5 27.5q4 6 13 8h2q8 0 8 -9q0 -8 -9 -31t-14 -23h-1
q-1 0 -2 1zM306 564q0 3 1.5 26.5t1.5 27.5q4 6 13 8h2q6 0 8 -9q0 -8 -9 -31t-15 -23q-1 0 -2 1z" />
    <glyph glyph-name="ohungarumlaut" unicode="&#x151;" horiz-adv-x="230" 
d="M234 200q-24 -33 -117 -35h-3q-10 -54 -40 -90q-17 -20 -37 -20q-30 0 -50.5 24.5t-20.5 55.5q0 38 31 69q-18 26 -18 42q-2 27 18.5 43t49.5 16q84 0 68 -136h14q30 2 61 10.5t38 22.5zM35 222q12 0 18 -18q-5 -1 -13 -12q3 -3 19 -10q17 -9 33 -10q3 0 8.5 -1t8.5 -2
q8 41 -1.5 76.5t-35.5 46.5q-30 10 -48 -17.5t-3 -56.5q6 2 14 4zM108 164q-41 0 -76 16q-17 -28 -25 -71q-5 -37 16.5 -47t44.5 17q30 35 40 85zM73 327q0 3 1.5 26.5t1.5 27.5q4 6 13 8h2q8 0 8 -9q0 -8 -9 -31t-14 -23h-1q-1 0 -2 1zM31 329q0 3 1.5 26.5t1.5 27.5
q4 6 13 8h2q7 0 8 -9q0 -8 -9 -31t-15 -23q-1 0 -2 1z" />
    <glyph glyph-name="OE" unicode="&#x152;" horiz-adv-x="757" 
d="M33 207q0 88 36 159.5t98 100.5q9 0 9 -10q-31 -16 -52 -88t-26 -139q-7 -149 58 -203q21 -16 51.5 -19.5t57.5 10.5q57 33 92 113.5t49 178.5q5 55 5 114t-26.5 98.5t-77.5 26.5q-60 -20 -79 -100q-11 -41 0.5 -72.5t41.5 -38.5q28 -5 48 17q23 23 4 26q-1 4 4 9t10 5
t8 -6q4 -9 -21 -35q-33 -30 -76 -15t-57 46q-19 40 0 80.5t50 64.5q37 28 77 28h14q51 -6 74.5 -56t23.5 -121v-6q-2 -53 -10 -99q49 64 113 84q-25 55 -1 105t75 61q14 2 19 2q14 0 32 -5q27 -6 39 -30.5t-1 -57.5q-15 -36 -48 -37q-17 -1 -26 14q-10 16 -2 24q3 4 7.5 3
t7 -5.5t0.5 -8.5q-12 -2 -8 -13q5 -11 20 -10q27 2 37.5 45.5t-11.5 65.5q-12 10 -33 10.5t-34 -9.5q-24 -16 -37 -52q-18 -52 2 -94q62 11 83 -10q16 -16 1 -34q-13 -17 -36.5 -13.5t-43.5 14t-31 21.5q-82 -52 -107 -172q-14 -65 8.5 -112t74.5 -60q26 -8 60 11
q35 17 86 70q52 55 91 121q3 2 3 0q1 -1 3 -1q-83 -137 -165 -187q-36 -21 -64 -21q-11 0 -21 3q-58 16 -94.5 53t-40.5 94q-17 -39 -44 -75q-51 -69 -118 -69h-1q-85 1 -132.5 56.5t-48.5 143.5v6zM650 347q4 14 -18 18q-29 6 -57 -4q7 -15 36.5 -24.5t38.5 10.5z" />
    <glyph glyph-name="oe" unicode="&#x153;" horiz-adv-x="340" 
d="M120 219q21 33 56 36h3q13 0 26 -7q28 -12 2 -31q-19 -13 -45 -13l-5 -12q-12 -24 -10.5 -56t25.5 -39q30 -8 83 29q39 30 57 50q26 29 26 30h4l2 -2q-11 -11 -28 -29q-29 -30 -58 -53q-46 -32 -74 -32q-31 0 -51.5 21t-24.5 51q-28 -76 -68 -76q-30 0 -50.5 24.5
t-20.5 54.5q0 42 31 69q-24 33 -17 59q5 18 23 30t43 12q39 0 57 -29t15 -74q0 -8 -1 -13zM38 253q12 0 18 -19q-6 -2 -13 -11q28 -20 69 -23q8 40 -1 77t-36 45q-25 9 -44 -11q-24 -23 -9 -62q4 2 16 4zM111 195q-49 2 -76 15q-17 -27 -25 -69q-4 -37 17 -48t44 17
q32 37 38 79l1 4zM203 221q20 17 2 23q-19 6 -41 -35q24 0 39 12z" />
    <glyph glyph-name="Racute" unicode="&#x154;" horiz-adv-x="467" 
d="M74 14q-34 0 -36 15v3q0 9 8 7q10 0 11 -7q-5 -5 6 -11q49 -20 76 56q16 46 26 110l8 54q-16 5 -21 16t2.5 20t25.5 9q29 145 30 149q13 52 36 67h1q7 0 9 -10q-22 -15 -27 -86q-4 -56 -9 -128q10 -5 16 -11l9 -9q3 0 5 1q46 12 81 42.5t42 73.5q6 43 -21 84
q-24 39 -71 62t-105 15q-51 -8 -81 -29q-35 -22 -52 -51q-23 -33 -29 -72q-2 -28 -1 -55t17 -42t44 -4q21 9 29 29q7 19 -8 21q-2 3 0 9.5t6.5 8.5t9.5 -3q6 -8 -3 -31q-8 -21 -25 -33.5t-41 -6.5q-61 20 -61 85q0 45 31.5 85t74.5 64q60 31 131 31q53 0 100 -20t75 -50
q41 -43 31 -94q-7 -41 -61 -81q-56 -40 -109 -50q20 -26 38 -70t35.5 -100t27.5 -80q24 -58 50 -61q24 -2 34 6q12 9 4 14q3 8 12 8q8 -2 8 -7v-1q-1 -10 -18 -17t-35 -7h-10q-25 3 -45 16.5t-31.5 28t-22.5 44t-15 45t-12 48.5q-15 63 -30 114q-2 4 -3 7.5t-3 7.5
q-4 -1 -11.5 -2.5t-10.5 -1.5q-2 -13 -5.5 -35.5t-4.5 -30.5q-7 -40 -23 -75q-36 -84 -109 -84zM180 283q-11 0 -14 -5.5t0 -11.5t9 -10q4 18 5 27zM219 272q-1 -5 -1 -15q-1 -2 -1 -6q10 2 16 3q-7 11 -14 18zM345 632q5 0 11.5 -10.5t6.5 -13.5q-5 -13 -24 -26
q-22 -15 -24 -19q-2 0 -5 3q1 3 15 31.5t15 31.5q3 3 5 3z" />
    <glyph glyph-name="racute" unicode="&#x155;" horiz-adv-x="215" 
d="M-49 276q2 20 12.5 33.5t28.5 14.5q23 0 34 -16.5t6 -40.5q-6 -22 -28 -62q13 -17 46 -35q5 -6 -7 -36q0 -1 -5 -10.5t-9.5 -19.5t-10.5 -23.5t-10 -25.5t-7 -23t-2 -18t6 -9q15 -5 52 28q60 51 129 134q24 29 28 35h6q-20 -30 -85 -100q-43 -47 -78 -76q-37 -32 -57 -26
q-13 4 -21.5 12t-10.5 18t-2 20.5t5 24t9.5 24.5t12.5 24.5t12.5 21.5t12 18.5t8.5 12.5q-3 0 -23 14q-52 34 -52 80v6zM0 211q23 39 26 59q7 41 -15 44q-11 2 -18.5 -9t-9.5 -34q-3 -28 17 -60zM34 427q5 0 11.5 -10.5t6.5 -13.5q-5 -13 -24 -26q-22 -15 -24 -19q-2 0 -5 3
q1 3 15 31.5t15 31.5q3 3 5 3z" />
    <glyph glyph-name="Rcaron" unicode="&#x158;" horiz-adv-x="467" 
d="M74 14q-34 0 -36 15v3q0 9 8 7q10 0 11 -7q-5 -5 6 -11q49 -20 76 56q16 46 26 110l8 54q-16 5 -21 16t2.5 20t25.5 9q29 145 30 149q13 52 36 67h1q7 0 9 -10q-22 -15 -27 -86q-4 -56 -9 -128q10 -5 16 -11l9 -9q3 0 5 1q46 12 81 42.5t42 73.5q6 43 -21 84
q-24 39 -71 62t-105 15q-51 -8 -81 -29q-35 -22 -52 -51q-23 -33 -29 -72q-2 -28 -1 -55t17 -42t44 -4q21 9 29 29q7 19 -8 21q-2 3 0 9.5t6.5 8.5t9.5 -3q6 -8 -3 -31q-8 -21 -25 -33.5t-41 -6.5q-61 20 -61 85q0 45 31.5 85t74.5 64q60 31 131 31q53 0 100 -20t75 -50
q41 -43 31 -94q-7 -41 -61 -81q-56 -40 -109 -50q20 -26 38 -70t35.5 -100t27.5 -80q24 -58 50 -61q24 -2 34 6q12 9 4 14q3 8 12 8q8 -2 8 -7v-1q-1 -10 -18 -17t-35 -7h-10q-25 3 -45 16.5t-31.5 28t-22.5 44t-15 45t-12 48.5q-15 63 -30 114q-2 4 -3 7.5t-3 7.5
q-4 -1 -11.5 -2.5t-10.5 -1.5q-2 -13 -5.5 -35.5t-4.5 -30.5q-7 -40 -23 -75q-36 -84 -109 -84zM180 283q-11 0 -14 -5.5t0 -11.5t9 -10q4 18 5 27zM219 272q-1 -5 -1 -15q-1 -2 -1 -6q10 2 16 3q-7 11 -14 18zM363 624q-4 -5 -22 -26.5t-31 -38.5q-5 6 -47 56q1 1 33 15
q2 -5 10.5 -22.5t13.5 -29.5q15 20 38 49q1 1 5 -3z" />
    <glyph glyph-name="rcaron" unicode="&#x159;" horiz-adv-x="215" 
d="M-49 276q2 20 12.5 33.5t28.5 14.5q23 0 34 -16.5t6 -40.5q-6 -22 -28 -62q13 -17 46 -35q5 -6 -7 -36q0 -1 -5 -10.5t-9.5 -19.5t-10.5 -23.5t-10 -25.5t-7 -23t-2 -18t6 -9q15 -5 52 28q60 51 129 134q24 29 28 35h6q-20 -30 -85 -100q-43 -47 -78 -76q-37 -32 -57 -26
q-13 4 -21.5 12t-10.5 18t-2 20.5t5 24t9.5 24.5t12.5 24.5t12.5 21.5t12 18.5t8.5 12.5q-3 0 -23 14q-52 34 -52 80v6zM0 211q23 39 26 59q7 41 -15 44q-11 2 -18.5 -9t-9.5 -34q-3 -28 17 -60zM49 404q-4 -5 -22 -26.5t-31 -38.5q-5 6 -47 56q1 1 33 15q2 -5 10.5 -22.5
t13.5 -29.5q15 20 38 49q1 1 5 -3z" />
    <glyph glyph-name="Sacute" unicode="&#x15a;" horiz-adv-x="468" 
d="M326 550q31 0 52 -16t18 -45q-3 -38 -29 -55q-47 -31 -68 2q-8 13 -2 21q3 4 9 -1q6 -4 2 -11q-4 1 -4 -1.5t2 -7.5q8 -16 22 -14t28 16q17 17 21.5 48t-14.5 51q-25 19 -65 1q-31 -13 -44.5 -47t2.5 -74q15 -34 50 -75t63.5 -82.5t36.5 -87.5q1 -7 1 -21
q0 -63 -34.5 -105.5t-88.5 -58.5q-25 -8 -58 -8h-2q-61 1 -105.5 35t-48.5 90v12q0 52 37 93.5t86 41.5q43 0 60 -22q21 -23 12 -53q-7 -19 -25 -31t-41 -5q-12 2 -15 12q-2 6 6 8q9 2 11 -7q-6 -9 10 -11q7 -1 12 1q16 5 18.5 23.5t-4 37t-15.5 28.5q-8 8 -15 12
q-8 4 -19 4q-27 0 -55 -26q-24 -24 -39.5 -64t-8.5 -82t45 -60q39 -20 100 -7q71 15 118.5 62.5t19.5 116.5q-26 57 -101 134q-33 33 -54 70q-24 41 -13 75q12 36 43 57.5t75 25.5h8zM356 641q5 0 11.5 -10.5t6.5 -13.5q-5 -13 -24 -26q-22 -15 -24 -19q-2 0 -5 3
q1 3 15 31.5t15 31.5q3 3 5 3z" />
    <glyph glyph-name="sacute" unicode="&#x15b;" horiz-adv-x="144" 
d="M149 200q-5 -8 -20.5 -18.5t-45 -27t-31.5 -18.5l1 -1q11 -28 8.5 -62.5t-16.5 -57.5q-33 -47 -74 -47h-1q-41 0 -44 37v1q0 32 32 64q18 20 56 47l-2 22q-8 35 -19 60q-25 55 3 83q11 11 22 11q16 0 22.5 -10t1.5 -27q-10 -24 -29 -43q29 -51 37 -72q5 3 31 17.5
t41.5 24.5t20.5 17h6zM15 111q-20 -10 -53 -43q-17 -17 -25 -38q-12 -33 5 -36.5t35 15.5q38 38 38 92v10zM25 235q17 27 12 42q-2 7 -11 6q-14 -2 -18.5 -24.5t3.5 -41.5q6 8 14 18zM53 395q5 0 11.5 -10.5t6.5 -13.5q-5 -13 -24 -26q-22 -15 -24 -19q-2 0 -5 3
q1 3 15 31.5t15 31.5q3 3 5 3z" />
    <glyph glyph-name="Scircumflex" unicode="&#x15c;" horiz-adv-x="468" 
d="M326 550q31 0 52 -16t18 -45q-3 -38 -29 -55q-47 -31 -68 2q-8 13 -2 21q3 4 9 -1q6 -4 2 -11q-4 1 -4 -1.5t2 -7.5q8 -16 22 -14t28 16q17 17 21.5 48t-14.5 51q-25 19 -65 1q-31 -13 -44.5 -47t2.5 -74q15 -34 50 -75t63.5 -82.5t36.5 -87.5q1 -7 1 -21
q0 -63 -34.5 -105.5t-88.5 -58.5q-25 -8 -58 -8h-2q-61 1 -105.5 35t-48.5 90v12q0 52 37 93.5t86 41.5q43 0 60 -22q21 -23 12 -53q-7 -19 -25 -31t-41 -5q-12 2 -15 12q-2 6 6 8q9 2 11 -7q-6 -9 10 -11q7 -1 12 1q16 5 18.5 23.5t-4 37t-15.5 28.5q-8 8 -15 12
q-8 4 -19 4q-27 0 -55 -26q-24 -24 -39.5 -64t-8.5 -82t45 -60q39 -20 100 -7q71 15 118.5 62.5t19.5 116.5q-26 57 -101 134q-33 33 -54 70q-24 41 -13 75q12 36 43 57.5t75 25.5h8zM273 579q6 8 24.5 31t28.5 36q5 -7 21 -26.5t25 -30.5q-10 -10 -33 -15q-1 2 -9.5 19.5
t-14.5 31.5q-15 -20 -38 -49q-1 -1 -2.5 0.5t-1.5 2.5z" />
    <glyph glyph-name="scircumflex" unicode="&#x15d;" horiz-adv-x="144" 
d="M149 200q-5 -8 -20.5 -18.5t-45 -27t-31.5 -18.5l1 -1q11 -28 8.5 -62.5t-16.5 -57.5q-33 -47 -74 -47h-1q-41 0 -44 37v1q0 32 32 64q18 20 56 47l-2 22q-8 35 -19 60q-25 55 3 83q11 11 22 11q16 0 22.5 -10t1.5 -27q-10 -24 -29 -43q29 -51 37 -72q5 3 31 17.5
t41.5 24.5t20.5 17h6zM15 111q-20 -10 -53 -43q-17 -17 -25 -38q-12 -33 5 -36.5t35 15.5q38 38 38 92v10zM25 235q17 27 12 42q-2 7 -11 6q-14 -2 -18.5 -24.5t3.5 -41.5q6 8 14 18zM-24 323q6 8 24.5 31t28.5 36q5 -7 21 -26.5t25 -30.5q-10 -10 -33 -15q-1 2 -9.5 19.5
t-14.5 31.5q-15 -20 -38 -49q-1 -1 -2.5 0.5t-1.5 2.5z" />
    <glyph glyph-name="Scaron" unicode="&#x160;" horiz-adv-x="468" 
d="M326 550q31 0 52 -16t18 -45q-3 -38 -29 -55q-47 -31 -68 2q-8 13 -2 21q3 4 9 -1q6 -4 2 -11q-4 1 -4 -1.5t2 -7.5q8 -16 22 -14t28 16q17 17 21.5 48t-14.5 51q-25 19 -65 1q-31 -13 -44.5 -47t2.5 -74q15 -34 50 -75t63.5 -82.5t36.5 -87.5q1 -7 1 -21
q0 -63 -34.5 -105.5t-88.5 -58.5q-25 -8 -58 -8h-2q-61 1 -105.5 35t-48.5 90v12q0 52 37 93.5t86 41.5q43 0 60 -22q21 -23 12 -53q-7 -19 -25 -31t-41 -5q-12 2 -15 12q-2 6 6 8q9 2 11 -7q-6 -9 10 -11q7 -1 12 1q16 5 18.5 23.5t-4 37t-15.5 28.5q-8 8 -15 12
q-8 4 -19 4q-27 0 -55 -26q-24 -24 -39.5 -64t-8.5 -82t45 -60q39 -20 100 -7q71 15 118.5 62.5t19.5 116.5q-26 57 -101 134q-33 33 -54 70q-24 41 -13 75q12 36 43 57.5t75 25.5h8zM372 635q-4 -5 -22 -26.5t-31 -38.5q-5 6 -47 56q2 2 33 15q2 -5 10.5 -22.5t13.5 -29.5
q15 20 38 49q1 1 5 -3z" />
    <glyph glyph-name="scaron" unicode="&#x161;" horiz-adv-x="144" 
d="M149 200q-5 -8 -20.5 -18.5t-45 -27t-31.5 -18.5l1 -1q11 -28 8.5 -62.5t-16.5 -57.5q-33 -47 -74 -47h-1q-41 0 -44 37v1q0 32 32 64q18 20 56 47l-2 22q-8 35 -19 60q-25 55 3 83q11 11 22 11q16 0 22.5 -10t1.5 -27q-10 -24 -29 -43q29 -51 37 -72q5 3 31 17.5
t41.5 24.5t20.5 17h6zM15 111q-20 -10 -53 -43q-17 -17 -25 -38q-12 -33 5 -36.5t35 15.5q38 38 38 92v10zM25 235q17 27 12 42q-2 7 -11 6q-14 -2 -18.5 -24.5t3.5 -41.5q6 8 14 18zM93 387q-4 -5 -22 -26.5t-31 -38.5q-5 6 -47 56q1 2 33 15q2 -5 10.5 -22.5t13.5 -29.5
q15 20 38 49q1 1 5 -3z" />
    <glyph glyph-name="uni0162" unicode="&#x162;" horiz-adv-x="833" 
 />
    <glyph glyph-name="Tcaron" unicode="&#x164;" horiz-adv-x="515" 
d="M303 489q-102 -26 -155 -26q-61 0 -83 21q-12 12 -12 21q0 13 13 9t11 -14q-11 -3 -3 -14q7 -10 38 -12q49 -2 101 13q50 15 92 26q5 20 12 20q4 0 11 -5t7 -7l-1 -1q62 12 101 12q40 0 73.5 -8.5t33.5 -27.5v-1q-1 -7 -7 -7.5t-11 4t-5 9.5q9 4 0 13t-52 11
q-36 3 -135 -27q2 -22 9 -63q27 -135 30 -257v-5q0 -154 -83 -187q-15 -5 -27 -5q-31 0 -31 13q0 7 8.5 8.5t11.5 -4.5q-5 -11 12 -12q11 -1 22 3q32 12 36 78q6 76 -5 223t-12 178q-1 11 0 21zM371 618q-4 -5 -22 -26.5t-31 -38.5q-5 6 -47 56q1 1 33 15q2 -5 10.5 -22.5
t13.5 -29.5q15 20 38 49q1 1 5 -3z" />
    <glyph glyph-name="tcaron" unicode="&#x165;" horiz-adv-x="274" 
d="M-76 387q0 7 7 7q4 0 6 -5t-2 -8q-5 1 -5 -3q0 -5 8 -14q21 -25 83 -18q6 18 13.5 47.5t10.5 38.5q4 4 8 4q9 3 17 -13q-1 -6 -5.5 -29t-8.5 -40q10 2 16 5q49 17 78 16q31 -2 39 -10q7 -7 7 -11q-1 -1 -1 -2q-4 -6 -12 -1q-3 2 -1 6q8 3 0 9t-28 6q-34 0 -74 -18
q-12 -6 -26 -9l-4 -22q-32 -167 -30 -260q0 -41 11 -47.5t33 17.5q75 87 116 167h8q-11 -16 -19 -31q-12 -22 -38 -58q-29 -42 -55 -72q-27 -30 -42 -30h-3q-13 3 -23 13q-28 38 -21 115q5 94 32 202h-11q-58 0 -74 26q-10 14 -10 22zM143 442q0 7 3.5 10.5t9.5 2.5
q14 0 12 -13q0 -29 -22 -39q-1 1 -1 2q0 2 1 3q5 2 8 10q5 8 3 11q-13 -2 -14 13z" />
    <glyph glyph-name="Utilde" unicode="&#x168;" horiz-adv-x="502" 
d="M188 532q81 -2 60 -181q-4 -38 -17 -118t-17 -121q-7 -30 -5.5 -72.5t22.5 -44.5q18 -3 43 25q27 32 50 70q3 7 12.5 23.5t13.5 25.5l4 8q-6 97 21 173q8 25 18 36t22 10t14 -19t-4 -41t-12.5 -43t-11.5 -30v-34q-4 -167 34 -222q8 -10 19.5 -14t25.5 1q10 6 7 10
q2 5 8 4q7 0 7 -5l-1 -1q-2 -14 -31 -14q-50 0 -81 51q-29 51 -34 120q-31 -57 -63 -98q-37 -47 -63 -43q-86 13 -61 202q5 40 17 116.5t17 109.5q3 24 4 38t0.5 34.5t-9 30t-23.5 8.5q-51 -4 -85.5 -33.5t-50.5 -74.5q-12 -36 -3 -65q11 -29 44 -30q21 0 31 18q9 16 -4 19
q-4 6 4 13t14 2q10 -9 -6 -32q-18 -24 -41 -24q-67 2 -67 62q0 62 68 113q51 37 110 37zM418 358q-3 3 -8.5 -36t-6.5 -59q29 83 15 95zM287 513q0 36 27 40h8q11 0 31 -9t31 -12t26 6q5 5 5 7q1 1 3 1q1 0 2 -1v-1q0 -14 -8.5 -25.5t-22.5 -13.5h-8q-19 0 -36 9
q-37 22 -49 7q-4 -5 -4 -8h-3h-2z" />
    <glyph glyph-name="utilde" unicode="&#x169;" horiz-adv-x="280" 
d="M24 73q-45 0 -45 68q0 10 3 36t3 28q8 7 20 3.5t19 -9.5q0 -2 -4 -35t-3.5 -59t9.5 -27q27 -3 73 167q1 3 5 3q17 0 31 -19q0 -22 -5.5 -78t-5.5 -82q-1 -34 7.5 -35.5t27.5 19.5q45 45 94 111q23 30 25 36q3 0 6 -1q-45 -70 -116 -142q-28 -28 -40 -28h-2q-36 7 -33 116
q0 33 3 57q3 26 2 27q-18 -69 -48 -129q-7 -14 -13.5 -21t-12.5 -6zM3 281q0 36 27 40h8q11 0 31 -9t31 -12t26 6q5 5 5 7q1 1 3 1q1 0 2 -1v-1q0 -14 -8.5 -25.5t-22.5 -13.5h-8q-19 0 -36 9q-37 22 -49 7q-4 -5 -4 -8h-3h-2z" />
    <glyph glyph-name="Umacron" unicode="&#x16a;" horiz-adv-x="502" 
d="M282 530q0 10 10 17h45q24 1 61 1h6q1 -1 1 -4q0 -6 -6 -18q-36 -2 -74 0q-39 0 -42 -1q-1 2 -1 5zM10 382q0 -60 67 -62q23 0 41 24q16 23 6 32q-6 5 -14 -2t-4 -13q13 -3 4 -19q-10 -18 -31 -18q-33 1 -44 30q-11 39 6.5 76t46.5 62q34 31 86 35q27 2 31.5 -37
t-3.5 -74q-4 -31 -16.5 -108t-17.5 -118q-25 -189 61 -202q26 -4 63 43q32 41 63 98q7 -106 61 -153q25 -18 54 -18t31 14l1 1q0 5 -7 5q-6 1 -8 -4q5 -7 -11 -11q-11 -3 -20 -1q-10 3 -21 15q-38 55 -34 222v34q20 40 27 92q4 39 -13 41q-24 3 -39.5 -40t-19.5 -92.5
t-2 -86.5l-4 -8q-4 -9 -13.5 -25.5t-12.5 -23.5q-23 -38 -50 -70q-25 -28 -43 -25q-14 1 -20 21t-3.5 54t6.5 61t10 61.5t7 38.5q26 156 18 223q-7 77 -61 78q-59 0 -105.5 -33t-64.5 -80q-8 -21 -8 -37zM403 263q1 20 6.5 59t8.5 36q14 -12 -15 -95z" />
    <glyph glyph-name="umacron" unicode="&#x16b;" horiz-adv-x="280" 
d="M-1 300q0 8 10 16h45q24 1 61 1h6q1 -1 1 -4q0 -5 -6 -17q-36 -2 -74 0q-39 0 -42 -1q-1 2 -1 5zM24 73q-45 0 -45 68q0 10 3 36t3 28q8 7 20 3.5t19 -9.5q0 -2 -4 -35t-3.5 -59t9.5 -27q27 -3 73 167q1 3 5 3q17 0 31 -19q0 -22 -5.5 -78t-5.5 -82q-1 -34 7.5 -35.5
t27.5 19.5q45 45 94 111q23 30 25 36q3 0 6 -1q-45 -70 -116 -142q-28 -28 -40 -28h-2q-36 7 -33 116q0 33 3 57q3 26 2 27q-18 -69 -48 -129q-7 -14 -13.5 -21t-12.5 -6z" />
    <glyph glyph-name="Ubreve" unicode="&#x16c;" horiz-adv-x="502" 
d="M188 532q81 -2 60 -181q-4 -38 -17 -118t-17 -121q-7 -30 -5.5 -72.5t22.5 -44.5q18 -3 43 25q27 32 50 70q3 7 12.5 23.5t13.5 25.5l4 8q-6 97 21 173q8 25 18 36t22 10t14 -19t-4 -41t-12.5 -43t-11.5 -30v-34q-4 -167 34 -222q8 -10 19.5 -14t25.5 1q10 6 7 10
q2 5 8 4q7 0 7 -5l-1 -1q-2 -14 -31 -14q-50 0 -81 51q-29 51 -34 120q-31 -57 -63 -98q-37 -47 -63 -43q-86 13 -61 202q5 40 17 116.5t17 109.5q3 24 4 38t0.5 34.5t-9 30t-23.5 8.5q-51 -4 -85.5 -33.5t-50.5 -74.5q-12 -36 -3 -65q11 -29 44 -30q21 0 31 18q9 16 -4 19
q-4 6 4 13t14 2q10 -9 -6 -32q-18 -24 -41 -24q-67 2 -67 62q0 62 68 113q51 37 110 37zM418 358q-3 3 -8.5 -36t-6.5 -59q29 83 15 95zM405 554q-2 -14 -15.5 -28.5t-29.5 -15.5h-4q-15 0 -30.5 11.5t-19.5 22.5q8 9 33 15q10 -29 32 -29q22 -1 29 27q1 1 5 -3z" />
    <glyph glyph-name="ubreve" unicode="&#x16d;" horiz-adv-x="280" 
d="M24 73q-45 0 -45 68q0 10 3 36t3 28q8 7 20 3.5t19 -9.5q0 -2 -4 -35t-3.5 -59t9.5 -27q27 -3 73 167q1 3 5 3q17 0 31 -19q0 -22 -5.5 -78t-5.5 -82q-1 -34 7.5 -35.5t27.5 19.5q45 45 94 111q23 30 25 36q3 0 6 -1q-45 -70 -116 -142q-28 -28 -40 -28h-2q-36 7 -33 116
q0 33 3 57q3 26 2 27q-18 -69 -48 -129q-7 -14 -13.5 -21t-12.5 -6zM102 319q-2 -14 -15.5 -28.5t-29.5 -15.5h-4q-15 0 -30.5 11.5t-19.5 22.5q8 9 33 15q10 -29 32 -29q22 -1 29 27q1 1 5 -3z" />
    <glyph glyph-name="Uring" unicode="&#x16e;" horiz-adv-x="502" 
d="M188 532q81 -2 60 -181q-4 -38 -17 -118t-17 -121q-7 -30 -5.5 -72.5t22.5 -44.5q18 -3 43 25q27 32 50 70q3 7 12.5 23.5t13.5 25.5l4 8q-6 97 21 173q8 25 18 36t22 10t14 -19t-4 -41t-12.5 -43t-11.5 -30v-34q-4 -167 34 -222q8 -10 19.5 -14t25.5 1q10 6 7 10
q2 5 8 4q7 0 7 -5l-1 -1q-2 -14 -31 -14q-50 0 -81 51q-29 51 -34 120q-31 -57 -63 -98q-37 -47 -63 -43q-86 13 -61 202q5 40 17 116.5t17 109.5q3 24 4 38t0.5 34.5t-9 30t-23.5 8.5q-51 -4 -85.5 -33.5t-50.5 -74.5q-12 -36 -3 -65q11 -29 44 -30q21 0 31 18q9 16 -4 19
q-4 6 4 13t14 2q10 -9 -6 -32q-18 -24 -41 -24q-67 2 -67 62q0 62 68 113q51 37 110 37zM418 358q-3 3 -8.5 -36t-6.5 -59q29 83 15 95zM352 542q-13 0 -25 8.5t-12 20.5q0 13 12 22t26 9h1q13 0 21 -7.5t8 -20.5v-3q-2 -25 -31 -29zM377 574q0 8 -6.5 16t-13.5 8t-14.5 -9
t-7.5 -17l1 -1q0 -9 5 -17t13 -8t14.5 8.5t8.5 16.5v3z" />
    <glyph glyph-name="uring" unicode="&#x16f;" horiz-adv-x="280" 
d="M24 73q-45 0 -45 68q0 10 3 36t3 28q8 7 20 3.5t19 -9.5q0 -2 -4 -35t-3.5 -59t9.5 -27q27 -3 73 167q1 3 5 3q17 0 31 -19q0 -22 -5.5 -78t-5.5 -82q-1 -34 7.5 -35.5t27.5 19.5q45 45 94 111q23 30 25 36q3 0 6 -1q-45 -70 -116 -142q-28 -28 -40 -28h-2q-36 7 -33 116
q0 33 3 57q3 26 2 27q-18 -69 -48 -129q-7 -14 -13.5 -21t-12.5 -6zM59 271q-13 0 -25 8.5t-12 20.5q0 13 12 22t26 9h1q13 0 21 -7.5t8 -20.5v-3q-2 -25 -31 -29zM84 303q0 8 -6.5 16t-13.5 8t-14.5 -9t-7.5 -17l1 -1q0 -9 5 -17t13 -8t14.5 8.5t8.5 16.5v3z" />
    <glyph glyph-name="Uhungarumlaut" unicode="&#x170;" horiz-adv-x="502" 
d="M188 532q81 -2 60 -181q-4 -38 -17 -118t-17 -121q-7 -30 -5.5 -72.5t22.5 -44.5q18 -3 43 25q27 32 50 70q3 7 12.5 23.5t13.5 25.5l4 8q-6 97 21 173q8 25 18 36t22 10t14 -19t-4 -41t-12.5 -43t-11.5 -30v-34q-4 -167 34 -222q8 -10 19.5 -14t25.5 1q10 6 7 10
q2 5 8 4q7 0 7 -5l-1 -1q-2 -14 -31 -14q-50 0 -81 51q-29 51 -34 120q-31 -57 -63 -98q-37 -47 -63 -43q-86 13 -61 202q5 40 17 116.5t17 109.5q3 24 4 38t0.5 34.5t-9 30t-23.5 8.5q-51 -4 -85.5 -33.5t-50.5 -74.5q-12 -36 -3 -65q11 -29 44 -30q21 0 31 18q9 16 -4 19
q-4 6 4 13t14 2q10 -9 -6 -32q-18 -24 -41 -24q-67 2 -67 62q0 62 68 113q51 37 110 37zM418 358q-3 3 -8.5 -36t-6.5 -59q29 83 15 95zM353 498q0 3 1.5 26.5t1.5 27.5q4 6 13 8h2q8 0 8 -9q0 -8 -9 -31t-14 -23h-1q-1 0 -2 1zM311 500q0 3 1.5 26.5t1.5 27.5q4 6 13 8h2
q7 0 8 -9q0 -8 -9 -31t-15 -23q-1 0 -2 1z" />
    <glyph glyph-name="uhungarumlaut" unicode="&#x171;" horiz-adv-x="280" 
d="M24 73q-45 0 -45 68q0 10 3 36t3 28q8 7 20 3.5t19 -9.5q0 -2 -4 -35t-3.5 -59t9.5 -27q27 -3 73 167q1 3 5 3q17 0 31 -19q0 -22 -5.5 -78t-5.5 -82q-1 -34 7.5 -35.5t27.5 19.5q45 45 94 111q23 30 25 36q3 0 6 -1q-45 -70 -116 -142q-28 -28 -40 -28h-2q-36 7 -33 116
q0 33 3 57q3 26 2 27q-18 -69 -48 -129q-7 -14 -13.5 -21t-12.5 -6zM72 264q0 3 1.5 26.5t1.5 27.5q4 6 13 8h2q8 0 8 -9q0 -8 -9 -31t-14 -23h-1q-1 0 -2 1zM30 266q0 3 1.5 26.5t1.5 27.5q4 6 13 8h2q6 0 8 -9q0 -8 -9 -31t-15 -23q-1 0 -2 1z" />
    <glyph glyph-name="Uogonek" unicode="&#x172;" horiz-adv-x="502" 
d="M188 532q81 -2 60 -181q-4 -38 -17 -118t-17 -121q-7 -30 -5.5 -72.5t22.5 -44.5q18 -3 43 25q27 32 50 70q3 7 12.5 23.5t13.5 25.5l4 8q-6 97 21 173q8 25 18 36t22 10t14 -19t-4 -41t-12.5 -43t-11.5 -30v-34q-4 -167 34 -222q8 -10 19.5 -14t25.5 1q10 6 7 10
q2 5 8 4q7 0 7 -5l-1 -1q-2 -14 -31 -14q-50 0 -81 51q-29 51 -34 120q-31 -57 -63 -98q-37 -47 -63 -43q-86 13 -61 202q5 40 17 116.5t17 109.5q3 24 4 38t0.5 34.5t-9 30t-23.5 8.5q-51 -4 -85.5 -33.5t-50.5 -74.5q-12 -36 -3 -65q11 -29 44 -30q21 0 31 18q9 16 -4 19
q-4 6 4 13t14 2q10 -9 -6 -32q-18 -24 -41 -24q-67 2 -67 62q0 62 68 113q51 37 110 37zM418 358q-3 3 -8.5 -36t-6.5 -59q29 83 15 95zM239 -141q-27 1 -45 16t-18 42q0 39 30 54q21 11 21 19q2 1 8 1q5 -1 9 0q5 -8 -16 -27q-24 -20 -25.5 -50.5t27.5 -44.5q28 -11 49 7
t11 46q-6 16 -20 23t-28 -5q-7 -7 -1 -9q1 -2 -0.5 -4.5t-3.5 -2.5t-4 2q-6 9 8.5 17t26.5 6q24 -3 31 -25q3 -6 3 -12q0 -23 -18.5 -37.5t-43.5 -15.5h-1z" />
    <glyph glyph-name="uogonek" unicode="&#x173;" horiz-adv-x="280" 
d="M24 73q-45 0 -45 68q0 10 3 36t3 28q8 7 20 3.5t19 -9.5q0 -2 -4 -35t-3.5 -59t9.5 -27q27 -3 73 167q1 3 5 3q17 0 31 -19q0 -22 -5.5 -78t-5.5 -82q-1 -34 7.5 -35.5t27.5 19.5q45 45 94 111q23 30 25 36q3 0 6 -1q-45 -70 -116 -142q-28 -28 -40 -28h-2q-36 7 -33 116
q0 33 3 57q3 26 2 27q-18 -69 -48 -129q-7 -14 -13.5 -21t-12.5 -6zM132 -99q-27 1 -45 16t-18 42q0 39 30 54q21 11 21 19q2 1 8 1q4 -1 9 0q5 -8 -16 -27q-24 -20 -25.5 -50.5t27.5 -44.5q28 -11 49 7t11 46q-6 16 -20 23t-28 -5q-7 -7 -1 -9q1 -2 -0.5 -4.5t-3.5 -2.5
t-4 2q-6 9 8.5 17t26.5 6q24 -3 31 -25q3 -6 3 -12q0 -23 -18.5 -37.5t-43.5 -15.5h-1z" />
    <glyph glyph-name="Wcircumflex" unicode="&#x174;" horiz-adv-x="571" 
d="M453 69q11 1 18 11t10 31.5t3.5 31.5t1.5 36v111q0 62 2 98.5t16 80.5t40 61q26 13 38 13q5 0 9.5 -3t2.5 -7q0 -5 -8 -8t-12 1q2 9 -7 8q-9 0 -20 -7q-18 -10 -26 -59q-11 -52 -17.5 -176t-14.5 -170q-11 -56 -35 -57q-25 -2 -43 9q-48 21 -70.5 90t-22.5 150
q-1 -1 -10 -30q-3 -8 -11 -31t-14 -38q-51 -128 -94 -187q-28 -36 -55 -37q-56 0 -24 166q1 7 2 10q5 29 17 89.5t17 91.5q4 23 6.5 44.5t2 46.5t-5.5 42t-15 31.5t-28 15t-44 -7.5q-39 -20 -68 -65t-29 -95q0 -38 28.5 -43t52.5 17q27 22 6 28q-2 5 1.5 10.5t8.5 6t9 -4.5
q8 -16 -21 -40q-31 -26 -59 -22q-49 9 -49 58q0 68 70 123q16 13 41 25q21 10 47 12q40 5 65 -13.5t32 -56t7 -80.5t-10.5 -97.5t-20 -96.5t-21.5 -88t-15 -62q-8 -38 -2 -39q25 -3 52 37q49 72 119 259q2 5 4 12t3 9t2.5 6t3 5l4.5 3t6.5 3t9.5 3q14 4 23 -1l18 -60t16 -55
q10 -33 33 -103q15 -46 24 -46zM292 539q6 8 24.5 31t28.5 36q5 -7 21 -26.5t25 -30.5q-10 -10 -33 -15q-1 2 -9.5 19.5t-14.5 31.5q-15 -20 -38 -49q-1 -1 -2.5 0.5t-1.5 2.5z" />
    <glyph glyph-name="wcircumflex" unicode="&#x175;" horiz-adv-x="335" 
d="M16 22q-34 8 -34 87v2q0 37 4 65q3 31 -1 38q3 3 25 9.5t25 0.5q2 -5 0 -31q-1 -6 -6.5 -56t-7.5 -73q-5 -33 1 -35q13 -2 43 79q6 13 20 44q7 20 11 26q5 4 20 4q14 0 22 -3q0 -13 11.5 -57.5t19.5 -44.5q9 0 19.5 42t11.5 67q-95 21 -102 65q-3 29 39 29q26 0 44.5 -16
t22.5 -42q2 -16 0 -33q96 -18 130 7q4 0 7 -1q-19 -16 -70 -16q-35 -2 -68 6q0 -11 -2 -35q-15 -81 -35 -79q-30 2 -49.5 32.5t-19.5 64.5q-2 -3 -28 -68q-14 -31 -28 -55q-12 -23 -22 -23h-3zM200 190q0 38 -14.5 64.5t-43.5 16.5q-19 -8 -15 -34q2 -28 73 -47zM76 317
q6 8 24.5 31t28.5 36q5 -7 21 -26.5t25 -30.5q-10 -10 -33 -15q-1 2 -9.5 19.5t-14.5 31.5q-15 -20 -38 -49q-1 -1 -2.5 0.5t-1.5 2.5z" />
    <glyph glyph-name="Ycircumflex" unicode="&#x176;" horiz-adv-x="555" 
d="M309 -142q-34 0 -58 28.5t-26 64.5q0 22 5.5 38.5t21.5 31t24.5 20.5t33.5 21q38 23 73 42h1q5 46 11 129q-58 -86 -96 -81q-27 5 -42 22q-22 29 -22 88.5t10 103.5q1 10 2 14q8 48 14 108q2 23 -4.5 35t-20.5 11q-41 -3 -77 -36t-54 -73q-17 -28 -15.5 -63t28.5 -50
q17 -9 38.5 -6.5t28.5 18.5q11 21 -8 18q-5 6 2 13t14 2q9 -9 -3 -32q-11 -21 -41 -23t-50 11q-31 17 -31 53q0 21 14 51q22 45 64 78q47 41 97 42h4q15 0 26 -4.5t17.5 -14.5t11 -20t5.5 -27t1.5 -29t-2 -32t-4 -30.5t-5 -29.5t-4.5 -25q-11 -63 -15 -114q-5 -51 26 -56
q19 -3 46 28.5t46 63.5q12 102 19 125q10 31 26 24q9 -4 11 -16.5t-1.5 -28t-8 -28t-9.5 -22.5q0 -26 0.5 -83.5t0.5 -86.5q114 59 121 72q3 -1 7 -1q-3 -5 -14 -12.5t-27.5 -17t-31 -17t-32 -16.5t-23.5 -12q-5 -92 -20 -155.5t-53 -95.5q-21 -18 -52 -18zM384 100
q-93 -49 -120 -76q-24 -22 -24 -56q-1 -31 16 -66t38 -39q35 -5 53 41q23 58 37 194v2zM432 315q27 67 9 76q-7 2 -8 -17v-14q-1 -12 -1 -45zM350 512q6 8 24.5 31t28.5 36q5 -7 21 -26.5t25 -30.5q-10 -10 -33 -15q-1 2 -9.5 19.5t-14.5 31.5q-15 -20 -38 -49
q-1 -1 -2.5 0.5t-1.5 2.5z" />
    <glyph glyph-name="ycircumflex" unicode="&#x177;" horiz-adv-x="236" 
d="M-54 -114q0 39 14 74t41.5 65t48.5 48t55 43q0 38 -8 130q-1 -1 -7 -16q-8 -21 -16 -34q-7 -16 -13 -26t-17 -24.5t-22.5 -13.5t-21.5 19q-8 19 -8 39q0 22 -8 22q2 3 5.5 7.5t11 11.5t12.5 8t10 -4q6 -13 2 -53q-4 -44 5 -44q5 0 15 12q31 48 51 107q8 11 21 12h3
q11 0 16 -8q-11 -24 -7 -96q0 -21 1 -32q13 10 51.5 32t52.5 36h6q-15 -20 -80 -55q-3 -2 -9.5 -5.5t-11.5 -6.5t-9 -6q6 -118 -6 -190t-64 -105q-26 -16 -47 -16q-30 0 -48.5 19t-18.5 50zM-45 -84q-8 -43 9.5 -66t57.5 0q83 49 83 262q-61 -44 -100 -89t-50 -107zM18 296
q6 8 24.5 31t28.5 36q5 -7 21 -26.5t25 -30.5q-10 -10 -33 -15q-1 2 -9.5 19.5t-14.5 31.5q-15 -20 -38 -49q-1 -1 -2.5 0.5t-1.5 2.5z" />
    <glyph glyph-name="Ydieresis" unicode="&#x178;" horiz-adv-x="555" 
d="M309 -142q-34 0 -58 28.5t-26 64.5q0 22 5.5 38.5t21.5 31t24.5 20.5t33.5 21q38 23 73 42h1q5 46 11 129q-58 -86 -96 -81q-27 5 -42 22q-22 29 -22 88.5t10 103.5q1 10 2 14q8 48 14 108q2 23 -4.5 35t-20.5 11q-41 -3 -77 -36t-54 -73q-17 -28 -15.5 -63t28.5 -50
q17 -9 38.5 -6.5t28.5 18.5q11 21 -8 18q-5 6 2 13t14 2q9 -9 -3 -32q-11 -21 -41 -23t-50 11q-31 17 -31 53q0 21 14 51q22 45 64 78q47 41 97 42h4q15 0 26 -4.5t17.5 -14.5t11 -20t5.5 -27t1.5 -29t-2 -32t-4 -30.5t-5 -29.5t-4.5 -25q-11 -63 -15 -114q-5 -51 26 -56
q19 -3 46 28.5t46 63.5q12 102 19 125q10 31 26 24q9 -4 11 -16.5t-1.5 -28t-8 -28t-9.5 -22.5q0 -26 0.5 -83.5t0.5 -86.5q114 59 121 72q3 -1 7 -1q-3 -5 -14 -12.5t-27.5 -17t-31 -17t-32 -16.5t-23.5 -12q-5 -92 -20 -155.5t-53 -95.5q-21 -18 -52 -18zM384 100
q-93 -49 -120 -76q-24 -22 -24 -56q-1 -31 16 -66t38 -39q35 -5 53 41q23 58 37 194v2zM432 315q27 67 9 76q-7 2 -8 -17v-14q-1 -12 -1 -45zM356 495q-5 0 -10 4.5t-5 10.5q0 10 10 14h4q6 0 10.5 -5t4.5 -10q0 -6 -4.5 -10t-9.5 -4zM410 495q-14 0 -14 15q0 14 14 14
q9 0 14 -16q0 -10 -9 -13h-5z" />
    <glyph glyph-name="Zacute" unicode="&#x179;" horiz-adv-x="414" 
d="M70 32q-6 2 -11.5 14.5t-5.5 23.5q0 7 2 13q22 30 73.5 104.5t75.5 106.5l43 57q37 46 80 91l9 9q-18 3 -53 11t-52 11q-74 12 -114 5q-22 -5 -31 -26.5t-2 -48.5q11 -36 38 -39q15 -2 20 8q6 10 0 14q2 8 9.5 8t9.5 -7q1 -10 -14 -19t-28 -8q-37 4 -55 35
q-27 45 10.5 68.5t95.5 20.5q68 -7 169 -28q1 0 2 -1q28 26 52 35q9 4 18 4q12 0 22 -8t10 -19q0 -13 -20.5 -18.5t-41.5 -4.5q-19 -21 -28 -34q-32 -42 -68.5 -94t-84.5 -124t-65 -97q-9 -15 -22 -32q-10 -14 -11 -14q42 8 97 -11q43 -16 76 -36q35 -21 69 -23q32 -2 44 9
q11 10 7 16q-2 11 11 13q10 2 11 -7q3 -14 -22 -24t-48 -10q-72 0 -119 26q-38 20 -76 33q-16 5 -38 7q-21 0 -44 -10zM436 470q-3 3 -6 4.5t-6 1.5t-5.5 -0.5t-6 -2.5t-6 -3.5t-6 -5l-5 -5l-5 -5l-4.5 -4.5q34 0 49 11q6 4 1 9zM349 568q5 0 11.5 -10.5t6.5 -13.5
q-5 -13 -24 -26q-22 -15 -24 -19q-2 0 -5 3q1 3 15 31.5t15 31.5q3 3 5 3z" />
    <glyph glyph-name="zacute" unicode="&#x17a;" horiz-adv-x="189" 
d="M0 44q20 0 45 -12.5t47 -11.5q12 0 19 8q8 8 0 10q-3 7 7.5 8t10.5 -7t-14 -15.5t-24 -8.5h-6q-33 0 -52 15q-23 15 -51 5q-6 3 -11 16t0 21q25 37 53 70q36 39 54 73q-11 -5 -28 -9.5t-38 -6.5t-35.5 5t-14.5 25q0 8 8 15.5t17 7.5q10 0 15.5 -9.5t3.5 -22.5q0 -5 -1 -8
q0 -1 -2 -7q46 -3 97 24q8 -14 7 -22.5t-12 -25.5q-55 -88 -95 -137zM0 212q0 3 0.5 7t0.5 12.5t-2.5 12.5t-7.5 1q-14 -11 -8 -29q5 -10 16 -11zM68 340q5 0 11.5 -10.5t6.5 -13.5q-5 -13 -24 -26q-22 -15 -24 -19q-2 0 -5 3q1 3 15 31.5t15 31.5q3 3 5 3z" />
    <glyph glyph-name="Zdotaccent" unicode="&#x17b;" horiz-adv-x="414" 
d="M70 32q-6 2 -11.5 14.5t-5.5 23.5q0 7 2 13q22 30 73.5 104.5t75.5 106.5l43 57q37 46 80 91l9 9q-18 3 -53 11t-52 11q-74 12 -114 5q-22 -5 -31 -26.5t-2 -48.5q11 -36 38 -39q15 -2 20 8q6 10 0 14q2 8 9.5 8t9.5 -7q1 -10 -14 -19t-28 -8q-37 4 -55 35
q-27 45 10.5 68.5t95.5 20.5q68 -7 169 -28q1 0 2 -1q28 26 52 35q9 4 18 4q12 0 22 -8t10 -19q0 -13 -20.5 -18.5t-41.5 -4.5q-19 -21 -28 -34q-32 -42 -68.5 -94t-84.5 -124t-65 -97q-9 -15 -22 -32q-10 -14 -11 -14q42 8 97 -11q43 -16 76 -36q35 -21 69 -23q32 -2 44 9
q11 10 7 16q-2 11 11 13q10 2 11 -7q3 -14 -22 -24t-48 -10q-72 0 -119 26q-38 20 -76 33q-16 5 -38 7q-21 0 -44 -10zM436 470q-3 3 -6 4.5t-6 1.5t-5.5 -0.5t-6 -2.5t-6 -3.5t-6 -5l-5 -5l-5 -5l-4.5 -4.5q34 0 49 11q6 4 1 9zM321 506q-8 0 -14 6t-6 15q0 14 14 21
q3 0 5 1q7 0 14.5 -7.5t7.5 -15.5t-6.5 -14t-14.5 -6z" />
    <glyph glyph-name="zdotaccent" unicode="&#x17c;" horiz-adv-x="189" 
d="M0 44q20 0 45 -12.5t47 -11.5q12 0 19 8q8 8 0 10q-3 7 7.5 8t10.5 -7t-14 -15.5t-24 -8.5h-6q-33 0 -52 15q-23 15 -51 5q-6 3 -11 16t0 21q25 37 53 70q36 39 54 73q-11 -5 -28 -9.5t-38 -6.5t-35.5 5t-14.5 25q0 8 8 15.5t17 7.5q10 0 15.5 -9.5t3.5 -22.5q0 -5 -1 -8
q0 -1 -2 -7q46 -3 97 24q8 -14 7 -22.5t-12 -25.5q-55 -88 -95 -137zM0 212q0 3 0.5 7t0.5 12.5t-2.5 12.5t-7.5 1q-14 -11 -8 -29q5 -10 16 -11zM49 261q-8 0 -14 6t-6 15q0 14 14 21q3 0 5 1q7 0 14.5 -7.5t7.5 -15.5t-6.5 -14t-14.5 -6z" />
    <glyph glyph-name="Zcaron" unicode="&#x17d;" horiz-adv-x="414" 
d="M70 32q-6 2 -11.5 14.5t-5.5 23.5q0 7 2 13q22 30 73.5 104.5t75.5 106.5l43 57q37 46 80 91l9 9q-18 3 -53 11t-52 11q-74 12 -114 5q-22 -5 -31 -26.5t-2 -48.5q11 -36 38 -39q15 -2 20 8q6 10 0 14q2 8 9.5 8t9.5 -7q1 -10 -14 -19t-28 -8q-37 4 -55 35
q-27 45 10.5 68.5t95.5 20.5q68 -7 169 -28q1 0 2 -1q28 26 52 35q9 4 18 4q12 0 22 -8t10 -19q0 -13 -20.5 -18.5t-41.5 -4.5q-19 -21 -28 -34q-32 -42 -68.5 -94t-84.5 -124t-65 -97q-9 -15 -22 -32q-10 -14 -11 -14q42 8 97 -11q43 -16 76 -36q35 -21 69 -23q32 -2 44 9
q11 10 7 16q-2 11 11 13q10 2 11 -7q3 -14 -22 -24t-48 -10q-72 0 -119 26q-38 20 -76 33q-16 5 -38 7q-21 0 -44 -10zM436 470q-3 3 -6 4.5t-6 1.5t-5.5 -0.5t-6 -2.5t-6 -3.5t-6 -5l-5 -5l-5 -5l-4.5 -4.5q34 0 49 11q6 4 1 9zM387 576q-4 -5 -22 -26.5t-31 -38.5
q-5 6 -47 56q1 1 33 15q2 -5 10.5 -22.5t13.5 -29.5q15 20 38 49q1 1 5 -3z" />
    <glyph glyph-name="zcaron" unicode="&#x17e;" horiz-adv-x="189" 
d="M0 44q20 0 45 -12.5t47 -11.5q12 0 19 8q8 8 0 10q-3 7 7.5 8t10.5 -7t-14 -15.5t-24 -8.5h-6q-33 0 -52 15q-23 15 -51 5q-6 3 -11 16t0 21q25 37 53 70q36 39 54 73q-11 -5 -28 -9.5t-38 -6.5t-35.5 5t-14.5 25q0 8 8 15.5t17 7.5q10 0 15.5 -9.5t3.5 -22.5q0 -5 -1 -8
q0 -1 -2 -7q46 -3 97 24q8 -14 7 -22.5t-12 -25.5q-55 -88 -95 -137zM0 212q0 3 0.5 7t0.5 12.5t-2.5 12.5t-7.5 1q-14 -11 -8 -29q5 -10 16 -11zM101 331q-4 -5 -22 -26.5t-31 -38.5q-5 6 -47 56q1 2 33 15q2 -5 10.5 -22.5t13.5 -29.5q15 20 38 49q1 1 5 -3z" />
    <glyph glyph-name="circumflex" unicode="&#x2c6;" horiz-adv-x="182" 
d="M35 494q6 8 24.5 31t28.5 36q5 -7 21 -26.5t25 -30.5q-10 -10 -33 -15q-1 2 -9.5 19.5t-14.5 31.5q-15 -20 -38 -49q-1 -1 -2.5 0.5t-1.5 2.5z" />
    <glyph glyph-name="caron" unicode="&#x2c7;" horiz-adv-x="167" 
d="M140 540q-4 -5 -22 -26.5t-31 -38.5q-5 6 -47 56q2 1 33 15q2 -5 10.5 -22.5t13.5 -29.5q15 20 38 49q1 1 5 -3z" />
    <glyph glyph-name="breve" unicode="&#x2d8;" horiz-adv-x="139" 
d="M113 511q-2 -14 -15.5 -28.5t-29.5 -15.5h-4q-15 0 -30.5 11.5t-19.5 22.5q8 9 33 15q10 -29 32 -29q22 -1 29 27q1 1 5 -3z" />
    <glyph glyph-name="dotaccent" unicode="&#x2d9;" horiz-adv-x="155" 
d="M83 481q-8 0 -14 6t-6 15q0 14 14 21q3 0 5 1q7 0 14.5 -7.5t7.5 -15.5t-6.5 -14t-14.5 -6z" />
    <glyph glyph-name="ring" unicode="&#x2da;" horiz-adv-x="141" 
d="M72 463q-13 0 -25 8.5t-12 20.5q0 13 12 22t26 9h1q13 0 21 -7.5t8 -20.5v-3q-2 -25 -31 -29zM97 495q0 8 -6.5 16t-13.5 8t-14.5 -9t-7.5 -17l1 -1q0 -9 5 -17t13 -8t14.5 8.5t8.5 16.5v3z" />
    <glyph glyph-name="ogonek" unicode="&#x2db;" horiz-adv-x="249" 
d="M113 -127q-27 1 -45 16t-18 42q0 39 30 54q21 11 21 19q2 1 8 1q5 -1 9 0q5 -8 -16 -27q-24 -20 -25.5 -50.5t27.5 -44.5q28 -11 49 7t11 46q-6 16 -20 23t-28 -5q-7 -7 -1 -9q1 -2 -0.5 -4.5t-3.5 -2.5t-4 2q-6 9 8.5 17t26.5 6q24 -3 31 -25q3 -6 3 -12
q0 -23 -18.5 -37.5t-43.5 -15.5h-1z" />
    <glyph glyph-name="tilde" unicode="&#x2dc;" horiz-adv-x="200" 
d="M37 479q0 36 27 40h8q11 0 31 -9t31 -12t26 6q5 5 5 7q1 1 3 1q1 0 2 -1v-1q0 -14 -8.5 -25.5t-22.5 -13.5h-8q-19 0 -36 9q-37 22 -49 7q-4 -5 -4 -8h-3h-2z" />
    <glyph glyph-name="hungarumlaut" unicode="&#x2dd;" horiz-adv-x="144" 
d="M64 484q0 3 1.5 26.5t1.5 27.5q4 6 13 8h2q8 0 8 -9q0 -8 -9 -31t-14 -23h-1q-1 0 -2 1zM22 486q0 3 1.5 26.5t1.5 27.5q4 6 13 8h2q6 0 8 -9q0 -8 -9 -31t-15 -23q-1 0 -2 1z" />
    <glyph glyph-name="uni2010" unicode="&#x2010;" horiz-adv-x="210" 
d="M38 237q0 9 10 17q7 -1 46 0h67v-3q0 -12 -6 -18q-24 -1 -74 -1q-37 2 -42 0q-1 1 -1 5z" />
    <glyph glyph-name="uni2011" unicode="&#x2011;" horiz-adv-x="185" 
d="M150 265q0 -11 -5 -18h-75q-39 0 -42 -1q-1 2 -1 5q0 12 10 17h46q23 1 61 1h5q1 -1 1 -4z" />
    <glyph glyph-name="uni2012" unicode="&#x2012;" horiz-adv-x="223" 
d="M188 230q0 -4 -5 -14h-79q-21 1 -58 1h-29q-1 1 -1 5q0 6 9 13q3 -1 32 -1h60q14 -1 40 -1h31v-3z" />
    <glyph glyph-name="endash" unicode="&#x2013;" horiz-adv-x="250" 
d="M206 254q0 -5 -6 -14h-78q-41 0 -59 1q-28 0 -29 -1q-1 2 -1 5q0 9 10 14h32q18 -1 60 -1h70q1 -1 1 -4z" />
    <glyph glyph-name="emdash" unicode="&#x2014;" horiz-adv-x="279" 
d="M250 257q0 -7 -6 -15h-40q-35 0 -54 1q-54 0 -79 1h-39q-1 1 -1 4q0 10 11 14h41q25 -1 80 -1h51q16 -1 35 -1q1 -1 1 -3z" />
    <glyph glyph-name="quoteright" unicode="&#x2019;" horiz-adv-x="90" 
d="M38 521q0 7 3.5 10.5t9.5 2.5q14 0 12 -13q0 -29 -22 -39q-1 1 -1 2q0 2 1 3q5 2 8 10q5 8 3 11q-13 -2 -14 13z" />
    <glyph glyph-name="quotedblleft" unicode="&#x201c;" horiz-adv-x="142" 
d="M107 483q0 -13 -12 -13q-14 2 -13 13q0 28 22 39q1 -1 1 -2q0 -2 -3.5 -6t-4.5 -6q-5 -8 -3 -12q12 3 13 -12v-1zM53 475q-13 0 -13 13q0 28 22 38q1 -1 1 -2t-6 -9.5t-5 -13.5q12 3 13 -12v-2q1 -12 -12 -12z" />
    <glyph glyph-name="quotedblright" unicode="&#x201d;" horiz-adv-x="155" 
d="M87 520q0 12 13 12q12 0 12 -13q0 -30 -22 -39q-1 1 -1 2t6.5 10t5.5 14q-12 -3 -14 12v2zM45 514q0 14 14 12q12 0 12 -13q0 -28 -23 -38q-1 1 -1 2q1 1 1 2q4 1 8.5 9t3.5 12q-14 -2 -15 13v1z" />
    <glyph glyph-name="bullet" unicode="&#x2022;" horiz-adv-x="195" 
d="M96 269q-13 0 -22 7.5t-9 19.5q0 20 21 29q5 0 8 1q11 0 22 -10t11 -21t-10 -18.5t-21 -7.5z" />
    <glyph glyph-name="trademark" unicode="&#x2122;" horiz-adv-x="333" 
d="M164 511q5 0 7 -1l54 -69q9 17 22.5 42t17.5 33q1 1 5 1q2 0 3 -1h10l3 -159h-15q-1 33 -2.5 78t-1.5 56q-31 -53 -43 -73l-51 66q0 -100 1 -128q-17 0 -22 1q1 37 3 88.5t2 66.5q3 -1 7 -1zM138 511q0 -6 -1 -11q-27 0 -49 1q0 -12 2 -60.5t3 -84.5q-3 1 -10 -1h-3
q-4 0 -8 3v142q-26 0 -47 -1q1 2 1 6q1 3 1 5q25 1 111 1z" />
    <glyph glyph-name="as" horiz-adv-x="444" 
d="M248 197q-17 34 -17 55q0 18 9 30.5t24 12.5t22 -6t5.5 -17t-4.5 -20.5t-9.5 -23t-7.5 -17.5q9 -12 46 -69q36 19 81 37q42 18 45 23l6 -2q-4 -6 -48 -24q-54 -24 -82 -38q23 -34 12.5 -80.5t-51.5 -46.5q-25 0 -42.5 13t-17.5 34v2q0 13 12 26t20.5 18t27.5 16
q-10 38 -29 73q-7 -7 -20.5 -21.5t-22 -23.5t-22 -20t-26.5 -17q-27 -16 -46.5 5t-19.5 52q-1 12 -1 24q-13 -41 -45 -82q-10 -14 -21 -14h-4q-41 10 -41 58q1 36 20.5 66t48.5 43q16 8 35 8q23 0 39.5 -11.5t20.5 -28.5q-1 -4 -4.5 -3.5t-4.5 3.5q2 9 -8.5 19.5t-20.5 12.5
q-34 9 -69 -61q-15 -33 -21 -65q-5 -36 9 -37q7 0 16 10q33 36 54 100q9 9 23.5 9t19.5 -11q-14 -90 3 -98q8 -4 28 12q50 36 78 75zM280 116q-86 -50 -46 -82q20 -14 34.5 -4t16.5 32q1 19 -2 42zM267 217q3 7 7 15.5t9 22.5t4 22.5t-10 6.5q-10 -2 -14.5 -24t2.5 -38
q1 -1 1 -2q1 -2 1 -3z" />
    <glyph glyph-name="ay" horiz-adv-x="467" 
d="M7 96q-40 10 -40 58q0 46 30 81.5t72 35.5q16 0 32 -7t20 -16q2 -4 4 -7.5t3 -6.5l1 -3q0 -3 -2 -3.5t-4 0.5t-2 3q0 10 -9 20t-19 12q-38 9 -70 -61q-6 -11 -13 -31.5t-10.5 -44t10.5 -25.5q3 -1 6.5 0t6.5 4t5.5 6t5.5 7.5l5 7.5t4.5 8t3.5 6q7 11 19 38t15 32
q7 9 22.5 8.5t20.5 -10.5q-14 -90 2 -98q13 -5 54 33q11 9 32 31.5t23 24.5q0 13 -6 14q2 7 17 20q22 22 24 -16q2 -19 -3 -41q-10 -48 4 -47q6 1 16 14q21 31 63 117q10 8 19 7h1q12 0 16 -10q-6 -10 -9.5 -28t-5 -32t-3 -39.5t-2.5 -34.5q8 4 11 7q77 51 93 72q1 -1 2 -1
q2 -1 3 -1q-9 -13 -22.5 -24t-40 -28.5t-31.5 -20.5l-16 -10q-7 -93 -11 -130q-15 -141 -80 -198q-27 -23 -61 -23q-33 1 -55 35t-22 74q0 34 14 59q28 53 97 104q51 38 81 59q3 24 10 77.5t10 74.5q-2 -2 -12 -25q-19 -52 -49 -88q-15 -16 -29.5 -11t-20.5 22q-7 19 -3 42
q0 3 1 4q-4 -4 -24.5 -26t-35 -34.5t-30.5 -21.5q-33 -19 -54 11t-14 71q-4 -4 -10.5 -22t-9.5 -23q0 -1 -6 -11t-9 -14.5t-9 -12t-11.5 -11t-10.5 -3.5h-4zM253 36q-67 -49 -97 -103q-19 -35 -12 -78q3 -32 21.5 -56.5t46.5 -21.5q30 3 53 59q40 96 61 254q-71 -52 -73 -54
z" />
    <glyph glyph-name="cc" horiz-adv-x="458" 
d="M-21 172q0 35 22 63.5t53 28.5q25 0 43 -19t4 -43q-15 -24 -26 -16l-2 4l3 3q5 -2 13 7.5t10 21.5t-5 20q-13 12 -30 -5t-28 -36q-47 -81 -10 -104q29 -19 90 19q60 33 95 73q28 59 73 59l1 1q19 0 31 -9t4 -25q-4 -10 -8 -14.5t-8 -3.5q-6 1 1 8q4 -1 8.5 6t4.5 16
t-7 12q-29 11 -51.5 -47t-22.5 -102q-2 -62 83 -7q23 15 39 29q37 32 68 62q29 31 31 34h3q1 0 3 -2l-4 -4q-4 -5 -13 -14t-19 -20q-68 -74 -135 -106q-16 -8 -34 -8q-7 0 -15 3q-16 5 -23 13q-24 22 -24 59q0 23 9 48v1q-74 -74 -139 -88q-14 -2 -17 -2h-7q-29 2 -46.5 27
t-17.5 57z" />
    <glyph glyph-name="ee" horiz-adv-x="426" 
d="M-18 177q0 37 28 66t65 29h8q12 -2 23.5 -7.5t16 -15t-13.5 -21.5q-24 -16 -58 -9q-11 -11 -22 -30t-15.5 -41.5t13.5 -31.5q30 -16 87 12q42 20 80 51q8 33 28.5 58t49.5 25q24 0 38 -12t-6 -32q-18 -14 -45 -9q-31 -50 -32 -105q-1 -29 15.5 -39.5t43.5 3.5
q49 27 112 101q25 31 29 33h3q2 0 2 -2q-9 -9 -23 -26q-70 -89 -128 -112q-13 -5 -23 -5h-1q-18 0 -33 12.5t-22 28.5q-11 25 -11 48v1q0 9 2 25q-6 -4 -9 -7q-63 -46 -118 -58q-12 -2 -16 -2q-29 0 -48.5 21.5t-19.5 50.5zM105 231q24 18 7 27q-20 10 -57 -34q31 -7 50 7z
M300 222q21 15 10 23q-17 12 -38 -16q-2 -3 -4 -7t-5 -7q23 -4 37 7z" />
    <glyph glyph-name="es" horiz-adv-x="403" 
d="M240 21q-24 0 -42 12.5t-18 31.5v2q4 30 60 60q-6 26 -26 65q-9 -9 -14 -16q-37 -46 -90 -88q-26 -19 -40 -24q-3 -1 -23 -4h-1q-34 0 -54 42q-11 24 -11 47v1q0 43 23 79.5t58 36.5q18 0 40 -15q16 -12 -8 -30q-18 -13 -44 -9q-33 -53 -34 -105q-1 -29 15 -39
q17 -12 44 3q51 28 136 125q-19 38 -19 56t9 31t24 13t22 -6t5.5 -17t-5 -20.5t-10 -23t-7.5 -17.5q6 -10 23 -31t24 -35q42 21 81 36q43 17 44 20q4 0 7 -1q-5 -6 -49 -23q-33 -13 -81 -35q16 -22 15.5 -60.5t-23.5 -51.5q-13 -8 -31 -10zM241 123q-9 -5 -14 -8.5t-16 -11
t-16.5 -14t-10 -14.5t-1.5 -15.5t13 -13.5q20 -11 34 -4t16 27q3 30 -5 54zM228 217q17 35 19 47q5 24 -9 21q-9 -2 -14 -24t2 -38zM91 224q21 15 10 23q-10 8 -24.5 -3t-22.5 -27q23 -4 37 7z" />
    <glyph glyph-name="ey" horiz-adv-x="451" 
d="M-19 159q0 40 23.5 72t56.5 32q15 0 29 -6t18.5 -16t-12.5 -23q-20 -15 -49 -8q-3 -7 -7 -14q-10 -18 -17.5 -38t-7.5 -44t16 -34q17 -10 44 2q51 23 114 88q27 28 30 30q0 12 -7 13q4 8 17 20.5t19 3.5q12 -17 2 -61q-11 -48 4 -47q7 1 17 14q9 13 61 117q12 8 21 7h1
q11 0 15 -10q-13 -24 -21 -100q-1 -8 -2 -15.5t-2 -15.5q61 36 88 57q14 10 20 19l6 -2q-19 -26 -91 -65q-6 -3 -11.5 -7t-11.5 -7q-4 -34 -19 -119q-31 -158 -94 -208q-22 -18 -56 -23h-6q-33 0 -54 34t-24 75q0 3 2 17q5 51 59 98q60 56 152 108q14 66 27 146
q-2 -2 -12 -25q-27 -63 -48 -88q-17 -16 -30 -11t-21 22q-6 19 -1 47q-17 -17 -22 -23q-39 -44 -91 -78q-17 -12 -35 -18q-12 -3 -23 -3h-1q-29 0 -47.5 27t-18.5 60zM303 97q-92 -55 -145 -103q-33 -30 -48.5 -59t-10.5 -75q4 -31 22.5 -56t45.5 -23q31 4 58 60
q47 99 77 253q0 2 1 3zM92 221q20 15 9 23q-12 8 -30 -6q-9 -10 -20 -23q26 -6 41 6z" />
    <glyph glyph-name="ff" horiz-adv-x="400" 
d="M-69 97q0 14 12.5 20.5t28.5 1.5q39 261 140 358q26 24 52 24q17 0 40 -13q34 -21 7 -73q-29 -53 -76 -103q-54 -59 -97 -90q-9 -38 -27 -129q7 -7 10 -11q1 0 2 1q78 25 151 84q3 2 12.5 10t13.5 11q8 75 31.5 146.5t56.5 113.5q23 29 47 29q22 0 36.5 -14.5t11.5 -36.5
q-3 -35 -40 -89q-20 -30 -90 -107q-7 -44 -16 -121q1 1 2 1q2 1 3 1q64 17 124 62q30 22 35 28q1 -1 8 -1q-3 -4 -42 -32q-70 -49 -130 -63v-1q27 -34 43.5 -87t13.5 -104q-2 -47 -30 -48h-2q-31 0 -49 44q-27 64 -22 190q-2 1 -4 1q-35 5 -35 22v5q4 23 39 12q1 -1 3 -1
q0 3 1 5.5t1 5.5q0 5 1 15.5t2 15.5q-99 -75 -175 -103q21 -32 32 -78.5t1 -88.5q-9 -36 -36 -36q-31 0 -46 48q-17 55 -8 146q-3 1 -11.5 4.5t-12.5 5.5t-8 7t-4 12zM40 229q117 99 164 186q27 49 -1 67q-30 17 -59 -14q-52 -52 -96 -210q-2 -8 -4 -15zM255 239
q78 78 115 161q21 46 -4 61q-22 12 -46 -21q-20 -28 -37 -85q-15 -48 -28 -116zM236 97q-3 -28 -4 -61.5t0.5 -73t11 -64.5t26.5 -24q13 1 17 18.5t0.5 43.5t-7.5 46.5t-9 35.5q-13 44 -32 75l-2 2t-1 2zM8 72q-26 -189 17 -189q22 1 27 34t-0.5 66.5t-13.5 53.5
q-8 23 -19 38q-3 -1 -11 -3zM-29 112q-11 2 -16.5 -5.5t-2 -17t14.5 -12.5zM170 126q2 -13 22 -17q0 4 0.5 11.5t1.5 11.5q-1 1 -2 1q-12 2 -17.5 0t-4.5 -7zM9 78q1 0 3.5 0.5t3.5 1.5q-2 3 -6 7z" />
    <glyph glyph-name="gx" horiz-adv-x="192" 
d="M-156 -86q3 -44 29 -68.5t73 -24.5q37 0 64 35q61 77 77 259q6 67 5 78q-6 -11 -20 -46q-8 -22 -18 -32t-21 -8q-35 3 -46 44q-11 46 18.5 77t78.5 36h4q14 0 28.5 -11.5t14.5 -23.5q-2 -4 -5 -5t-5 3q5 11 -9 22.5t-27 10.5q-29 -4 -47.5 -46.5t-14.5 -82.5
q7 -38 29 -10q9 10 17 28q7 17 15 34.5t8 18.5q7 5 18 7q10 0 16 -11q-4 -6 -6.5 -16t-3 -18l-1.5 -24t-1 -21q-3 -60 -10 -118q-12 -120 -83 -165q-29 -19 -70 -19h-6q-47 0 -77 29.5t-30 75.5q0 36 26 54.5t60 3.5q15 -6 20.5 -19t-1.5 -30q-11 -20 -32 -19q-15 1 -21 17
q-6 15 2 20q9 6 11 -5q1 -6 -3 -10q-8 1 -5 -6q0 -1 1 -2q3 -9 13 -9q23 -2 20 33q-3 34 -35 34q-23 0 -36.5 -21t-13.5 -49z" />
    <glyph glyph-name="ing" horiz-adv-x="586" 
d="M123 158q6 9 9 38q1 20 -8 18q1 9 15 18q15 9 18.5 -0.5t0.5 -35.5l-2.5 -25t-1.5 -20q1 2 23 54t38 69q10 10 19 10h3q52 -10 47 -163q0 -26 5 -28q17 -5 48 34q7 9 13.5 17t12 13.5t6.5 7.5q0 43 29.5 73.5t72.5 30.5q24 -1 33 -26q1 -2 0 -3.5t-3 -0.5q-4 0 -14 16
q-6 11 -16.5 10t-19 -6.5t-13.5 -11.5q-8 -10 -16 -27q-15 -42 -14 -80q2 -37 22 -15q10 11 19 31q18 44 19 51q9 9 20 6.5t17 -11.5q-13 -16 -13 -81l2 2q5 4 25 18.5t28.5 21.5t21.5 19t20 23q3 0 6 -1q-26 -34 -87 -76l-16 -11q0 -273 -96 -340q-27 -18 -64 -21h-2
q-21 0 -42 20q-33 28 -33 78q-3 31 18 69q29 51 96 104q5 4 40 31.5t52 40.5q1 5 1 9t1 8q2 18 5 72q0 -1 -2.5 -6l-7 -14t-8.5 -19q-16 -37 -37 -36q-41 1 -44 45q-3 -3 -12.5 -14.5t-17.5 -20.5q-30 -35 -50 -35h-6q-15 5 -24.5 22t-11.5 31t-5 42q0 6 -1 22q-1 73 -13 74
q-8 0 -21 -22q-33 -56 -54 -119q-12 -7 -28 15q-7 -7 -19.5 -22t-15.5 -19q-17 -18 -49 -46q-21 -18 -34 -18h-4q-31 8 -31 53v3q0 37 14 79q8 24 9 28q4 4 10 4q17 0 28 -17q0 -5 -9 -32q-20 -62 -24 -94q-1 -16 6 -19q10 -2 25 11q38 29 92 93v1zM461 94
q-96 -72 -141 -118q-22 -23 -33.5 -37t-21 -42.5t-3.5 -57.5q8 -34 29 -52q38 -35 75 -6q31 26 52 84.5t28.5 106.5t14.5 122zM62 274q-4 10 -11 10q-4 0 -8.5 -6.5t-4.5 -11.5q0 -7 10 -7q4 0 9 5t5 10z" />
    <glyph glyph-name="is" horiz-adv-x="372" 
d="M22 54q-41 10 -41 88v1q0 31 4 52q5 24 6 30q4 4 10 4q19 0 28 -17q0 -7 -4 -24q-9 -65 -9 -100q0 -27 10 -29.5t28 13.5q78 62 118 118q-20 40 -18 59q0 17 9 29.5t24 12.5q19 0 25 -11t1.5 -26t-11 -28t-12.5 -21q4 -6 8 -10q22 -29 35 -53q14 6 30 12.5t34 14t28 11.5
q47 18 49 21q1 0 7 -2q-5 -5 -53 -22q-46 -18 -93 -39q8 -16 12.5 -36.5t3.5 -41t-13.5 -34.5t-36.5 -14q-28 0 -46.5 14t-22.5 36q0 1 1 2q0 5 1 9.5t4.5 8.5t5.5 7.5t8 7.5t8.5 6t9.5 6t9.5 5.5t10 5.5t8.5 4q-16 42 -24 61q-47 -57 -110 -111q-24 -20 -39 -20h-3z
M199 120q-95 -47 -50 -80q20 -14 36.5 -8.5t18.5 25.5q3 33 -5 63zM188 211q16 10 21 48q5 24 -9 21q-11 -3 -15.5 -28t3.5 -41zM49 281q0 9 -11 9q-5 0 -10 -8t-5 -16q0 -10 8 -10q5 0 11.5 9t6.5 16z" />
    <glyph glyph-name="jx" horiz-adv-x="104" 
d="M-6 215q6 8 17 8q4 0 6 -1q0 -24 1 -65v-6q0 -106 -29 -197.5t-85 -129.5q-28 -19 -65 -20h-7q-45 0 -74.5 26t-29.5 68q0 30 16.5 49t46.5 19q29 0 44 -17q17 -24 -4 -46q-19 -20 -36 -8q-6 4 -10 13q-5 15 4 22q4 4 8 -4q5 -8 -2 -13q-4 1 -5 -1.5t0 -6.5q4 -9 15 -9
q11 -1 16 8t3 26q-3 34 -36 34q-23 0 -36.5 -21t-13.5 -47q3 -42 30 -65t73 -22q72 2 117 169q6 20 23 112q13 95 13 125zM-15 269q0 15 12 15q9 0 9 -11q0 -10 -2 -13t-9 -3q-10 0 -10 11v1z" />
    <glyph glyph-name="ll" horiz-adv-x="430" 
d="M208 180q-5 37 -5 76q0 149 54 228q18 26 43 28q18 0 40 -16q24 -15 6 -71q-33 -112 -104 -217q6 -141 33 -146q14 -3 42 20q56 49 95 97q16 19 18 24h4q2 1 3 -1q-7 -15 -59 -69q-24 -25 -59 -55q-25 -20 -42 -22q-47 0 -68 117l-12 -16q-24 -28 -42 -46
q-25 -28 -61 -54q-25 -18 -43 -20q-5 0 -11 2q-58 21 -58 143q0 127 53 219q28 51 63 70q14 8 27 8q25 0 50 -21q28 -22 2 -68q-44 -77 -131 -156q-16 -14 -20 -18q-18 -52 -8 -124.5t64 -37.5q52 36 102 95q15 17 24 31zM27 225q8 8 23.5 23t28.5 28t25 26q40 45 67 88
q27 44 3 63q-37 29 -69 -15q-47 -63 -71 -179zM242 218q65 102 99 207q17 53 -3 66q-46 33 -73 -73q-23 -89 -23 -200z" />
    <glyph glyph-name="lly" horiz-adv-x="604" 
d="M366 220q2 6 12.5 17t17.5 11q19 0 9 -62t2 -65q7 -1 17 10t24 35q29 50 32 57q10 7 22 7q12 -2 16 -10q-11 -20 -23 -103q49 30 91 66q14 10 20 19l6 -2q-12 -16 -55 -46q-11 -8 -62 -44q-11 -82 -22 -151q-22 -137 -89 -191q-25 -20 -57 -23h-6q-33 0 -55 34.5
t-22 74.5q0 33 15 59q29 52 115 118q35 27 84 61q2 12 13 64q4 21 8 56l-1 -2q-1 -3 -3.5 -8l-5.5 -11q-22 -44 -44 -66q-17 -14 -31 -5.5t-19 24.5q-7 23 -3 48v3q-27 -55 -71 -107q-20 -23 -34 -23h-5q-23 5 -37.5 35t-17.5 72q-68 -80 -115 -116q-27 -19 -43 -19
q-4 0 -12 2q-53 20 -53 124q0 130 64 238q30 49 67 70q17 8 30 7q23 0 49 -21q28 -22 -2 -67q-51 -76 -146 -156q-8 -6 -14 -10q-18 -48 -14.5 -128.5t61.5 -41.5q59 40 127 126q-1 12 -1 35q0 89 24 165t69 109q16 11 31 11q19 0 40 -15q23 -16 -1 -70q-40 -93 -115 -186
l-9 -12q-7 -94 7 -131q15 -42 72 40q27 37 50 83q-1 10 -7 11zM457 85q-87 -58 -146 -115q-22 -21 -33.5 -36t-20.5 -42t-6 -58q4 -31 22.5 -56t45.5 -22q32 3 57 56q34 70 81 273zM34 231q26 20 77 71q49 49 75 88q32 44 7 62q-36 30 -71 -14q-61 -77 -88 -207zM245 229
q79 105 118 186q24 53 4 64q-26 19 -49 -4.5t-37.5 -72.5t-23 -92.5t-12.5 -80.5z" />
    <glyph glyph-name="ly" horiz-adv-x="410" 
d="M131 493q21 0 41.5 -11t20.5 -30q2 -16 -8 -33q-39 -78 -156 -195v-8q-5 -50 1.5 -93t31.5 -47q12 -1 35 22q46 48 75 94q4 6 6 8q0 12 -6 14q2 7 15.5 20.5t19.5 3.5q12 -17 2 -62q-11 -48 3 -47q7 0 17 15q22 31 47 85q14 29 15 31q11 8 21 8q11 0 16 -11
q-11 -19 -18 -111q0 -6 -1 -11t-1 -10q5 3 9.5 6t9.5 6q66 41 85 65l2 -1q2 -1 3 -1q-18 -22 -95 -72l-14 -10q-4 -58 -12 -130q-16 -147 -79 -198q-21 -18 -56 -23h-6q-34 0 -57.5 35.5t-23.5 76.5q0 29 15 56q16 31 47.5 62t56.5 49t66 46q8 5 12 8q3 18 6.5 49t5.5 44
q2 17 4.5 36.5t2.5 20.5l-8 -19q-26 -56 -47 -87q-10 -14 -21 -18t-20 2t-14 20q-8 18 -3 41q-52 -70 -78 -95q-24 -24 -39 -24q-37 0 -55 45t-18 102q0 87 27.5 159t77.5 104q20 13 39 13zM192 37q-69 -49 -97 -103q-16 -33 -12 -71.5t25 -64.5q69 -79 124 114
q14 50 27 117q8 42 11 63q-11 -8 -37.5 -26.5t-40.5 -28.5zM30 230q115 127 148 189q23 44 -4 59q-38 21 -70 -26q-55 -80 -74 -222z" />
    <glyph glyph-name="mm" horiz-adv-x="736" 
d="M347 124q8 31 -12 54q1 6 14.5 17t19.5 3q4 -6 9.5 -33t4.5 -39q2 5 24 82q12 36 27 66q12 30 25 30h2q38 -4 35 -100q0 -60 -8 -83q20 28 33 51q12 22 26.5 30.5t29.5 -5.5q7 -9 11 -18q3 -8 7 -28l4 -29q0 -3 1.5 -25.5t4 -36t6.5 -14.5q9 -2 32 26q41 52 94 132h6
q-2 -2 -22 -33q-42 -65 -83 -111q-19 -19 -29 -19h-2q-10 2 -17.5 7t-13 14.5t-8.5 17.5t-5.5 23.5t-3 22.5t-2 25t-1.5 22q-2 43 -26 7q-4 -6 -9 -15q-23 -37 -39 -59q-8 -2 -19.5 7.5t-10.5 18.5q8 41 8 135q-1 28 -7 29q-5 0 -15 -24q-10 -22 -20.5 -53.5t-22 -70
t-16.5 -54.5q-6 -3 -16 5.5t-14 15.5q-20 -36 -51 -73q-17 -19 -29 -19h-4q-13 4 -23 15t-16 30.5t-8.5 31.5t-6.5 35q-3 23 -10 79q-7 69 -33 13q-17 -38 -54 -146q-9 -3 -21 5.5t-13 17.5q4 35 -5 70q-7 29 -21 2q-4 -7 -14 -32q-7 -17 -16 -45q-3 -9 -8 -29q-22 0 -29 13
q-2 12 -2 22v29q0 66 8 89q20 20 32 10q2 -24 1 -39.5t-4 -45.5t-4 -41l-2 -19q2 6 19 58q17 50 36 50q26 0 38 -42q9 -36 8 -52q35 106 52 135q12 23 27 25q47 0 56 -114q6 -59 7 -81q2 -31 8 -37.5t23 10.5q25 27 57 80v4z" />
    <glyph glyph-name="mmy" horiz-adv-x="964" 
d="M454 132q8 41 8 135q-1 28 -7 28q-3 1 -7.5 -5.5t-9 -17.5t-7.5 -20.5t-7 -21.5l-5 -15q-9 -27 -25 -77q-3 -11 -6 -21t-5 -16t-2 -7q-6 -3 -15.5 5t-13.5 16q-29 -50 -59 -79q-13 -13 -22 -13h-4q-18 5 -29.5 25.5t-15.5 39t-8 47.5q-4 23 -11 78q-6 72 -33 14
q-23 -51 -54 -146q-9 -2 -21 6.5t-12 16.5q0 93 -17 84q-5 -3 -10 -12q-19 -39 -38 -107q-21 4 -29 14q-1 3 -1.5 10.5t-0.5 11.5v29q0 70 8 89q5 5 16 10t16 -1q4 -23 -2 -77.5t-6 -68.5l18 60q16 50 36 50q26 0 38 -42q10 -36 7 -54q36 107 53 137q13 24 27 24h4
q14 -2 24 -13.5t16 -31.5t8 -33.5t5 -35.5q6 -60 7 -80q2 -35 10.5 -39t26.5 18q31 38 51 74l-1 4q7 28 -11 54q1 6 13.5 16.5t19.5 3.5q4 -6 9.5 -33t5.5 -39q4 12 8 28q1 3 6.5 22.5t9.5 30.5q28 97 52 97h1q23 -2 31.5 -39.5t6 -78t-10.5 -65.5q8 9 32 50q17 30 37 34
t31 -27q7 -22 15 -108q1 -15 4 -21t9 -3t11.5 8.5t15.5 17.5q40 48 89 123q1 18 -5 19q4 8 16.5 20t18.5 3q12 -15 2 -61q-11 -48 3 -47q7 1 17 15q12 17 33.5 61t28.5 55q11 8 20 8h1q12 -1 16 -11q-15 -28 -19 -105q0 -6 -1 -18.5t-2 -18.5l20 14q68 49 86 73q1 0 5 -2
q-17 -24 -86 -74l-25 -18q-5 -66 -9 -102t-14.5 -91.5t-28.5 -93t-44 -60.5q-25 -22 -57 -26h-6q-32 0 -54 35.5t-22 74.5q0 32 15 58q15 30 45 60q42 46 135 121q17 112 24 166q-4 -8 -17 -35t-23.5 -46t-20.5 -32q-16 -16 -30 -11.5t-20 21.5t-4 38q-1 -1 -3 -5
q-43 -68 -82 -112q-24 -27 -36 -27h-2q-16 1 -26.5 13.5t-15 37.5t-6 38.5t-2.5 41.5q-2 41 -23 13q-5 -7 -13 -20q-20 -36 -39 -59q-8 -2 -19 7.5t-11 18.5zM822 77q-85 -68 -130 -115q-22 -25 -32 -38.5t-19 -40.5t-6 -58q4 -31 22.5 -56t45.5 -23q31 4 55 64
q39 99 64 264v3z" />
    <glyph glyph-name="my" horiz-adv-x="609" 
d="M100 126q5 18 6 88.5t-9 76.5q-12 2 -36 -86q-4 -12 -18.5 -63t-20.5 -68q-6 -4 -17 7q-6 5 -9 8.5t-4 10.5t-1 11t1 17t1 22q1 40 -14 38q0 9 10.5 22t19.5 6q12 -11 15 -53q3 -43 3 -57q3 9 11 41q23 88 44 130q12 23 22 23q29 -3 36.5 -52.5t3.5 -102.5q-3 -19 -5 -29
q7 15 27 51q32 62 63 17q14 -26 28 -110q5 -24 11.5 -25.5t21.5 16.5q17 19 71 99l15 24q4 20 -5 22q1 3 7.5 11t15 14t13.5 -1q11 -16 1 -62q-10 -47 4 -47q7 0 17 15q23 33 48 86q3 5 5.5 11t4 9.5t2.5 6t2 3.5q10 8 21 8h1q11 -1 14 -11q-9 -18 -23 -110l-3 -21
q4 3 27 16.5t34.5 20.5t27 18.5t21.5 20.5l6 -2q-6 -8 -15.5 -16t-25 -18.5t-24 -15.5t-29.5 -17.5t-23 -13.5q-4 -22 -11.5 -67t-10.5 -64q-27 -144 -94 -197q-23 -20 -58 -23h-6q-33 0 -55 34t-22 74q0 38 15.5 63.5t46.5 52.5q53 48 121 88q9 6 17.5 11t17.5 11
q23 106 29 148q-46 -94 -60 -113q-13 -16 -23 -13q-18 3 -26.5 19t-6.5 38q-22 -45 -75 -108q-21 -25 -33 -25h-2q-17 3 -28.5 15.5t-18 34.5t-9.5 36.5t-6 39.5q-5 35 -21 14q-4 -7 -13 -23q-19 -37 -34 -61q-9 -2 -21.5 7.5t-12.5 18.5zM431 74q-61 -36 -120 -87
q-22 -20 -34.5 -34.5t-21.5 -41t-4 -57.5q3 -32 21.5 -57.5t45.5 -22.5q32 3 59 59q45 92 82 256q0 2 1 3q-8 -4 -15 -9t-14 -9z" />
    <glyph glyph-name="nn" horiz-adv-x="518" 
d="M-2 109q5 9 -3.5 64t-11.5 62q5 8 19 13q4 0 6 1q5 0 8 -4.5t4.5 -12t2 -14.5t1.5 -16.5t1 -12.5q7 -51 7 -85q23 87 58 125q21 23 38.5 2t21.5 -49q3 -21 3 -42q0 -5 -0.5 -27.5t0 -38.5t4.5 -17t8.5 0.5t9.5 5.5t9.5 8t9.5 10.5t8 10.5l7.5 10t5.5 7q2 3 7.5 10.5t7 10
t4.5 9t4 11.5t1.5 13t0.5 19q-2 28 -9 42q4 7 16.5 12.5t19.5 -4.5q2 -8 4 -47v-44q22 80 54 135q16 25 29 25h1q56 -9 19 -211q-9 -50 1 -51q6 0 25 18q19 17 41 46q20 23 51 64l27 35h5q-54 -81 -115 -142q-26 -28 -38 -26h-4q-36 12 -27 120q0 4 2.5 22t5 36.5t4 38t1 32
t-4.5 12.5q-10 2 -23 -28q-11 -22 -28.5 -71t-26.5 -69q-12 -7 -31 12q-22 -44 -62 -77q-10 -10 -21 -10q-14 -7 -30 25q-14 30 -14 128q-1 30 -9.5 29.5t-20.5 -22.5q-26 -51 -51 -120q-9 -5 -19.5 2t-13.5 15z" />
    <glyph glyph-name="oo" horiz-adv-x="467" 
d="M36 300q70 0 74 -98q0 -14 -2 -42l17 -1q49 -2 84 11q16 19 47 21q6 0 10.5 -6.5t4.5 -11.5q-15 -4 -20 -44t14 -46q26 -7 48.5 27t27.5 68q-108 12 -125 68q-7 23 3 36.5t32 13.5q44 0 72.5 -31.5t23.5 -79.5v-2l13 -1q32 -2 66.5 3.5t42.5 18.5l6 -2q-22 -31 -125 -24
h-4q-6 -53 -40 -84q-19 -17 -37 -17q-27 0 -49.5 18.5t-22.5 42.5q0 18 9 27q-48 -11 -87 -10h-12q-1 -3 -1 -5.5t-1 -5.5q-7 -35 -24 -64.5t-43 -29.5q-32 0 -53.5 24t-21.5 56q0 39 26 65q-26 31 -21 58q5 19 24.5 33t43.5 14zM105 200q0 31 -12.5 57t-34.5 32
q-26 6 -43.5 -16.5t-7.5 -49.5q1 -2 2.5 -6t1.5 -5q21 6 27 -2t6 -11q-4 -1 -12 -12q21 -14 71 -27q2 13 2 40zM26 56q28 -9 48.5 25.5t27.5 73.5q-31 3 -66 13l-12 4q-7 -16 -13.5 -38.5t-4.5 -47.5t20 -30zM342 184q4 38 -19 69t-56 29q-16 0 -20 -12t0.5 -25t12.5 -22
q24 -30 82 -40v1z" />
    <glyph glyph-name="os" horiz-adv-x="433" 
d="M218 240q4 42 33 42q22 0 26 -18t-4.5 -38t-17.5 -29q8 -16 40 -63q50 26 92 44q46 20 48 23l6 -2q-7 -7 -51 -24q-41 -17 -93 -44q22 -21 21 -65t-27 -57q-11 -7 -26 -7q-25 0 -47 14.5t-22 35.5v4q3 30 65 60q-8 24 -28 67q-14 -7 -50 -5q-36 0 -72 9q-8 -72 -47 -113
q-15 -15 -31 -15q-27 0 -55 34q-20 25 -20 53q0 29 18.5 49t45.5 20q5 -1 9.5 -8t4.5 -13q-15 -1 -28 -38.5t-10 -58.5q5 -25 23 -32t38 14q35 35 47 109q-42 9 -76.5 30.5t-44.5 52.5q-7 23 2.5 37.5t31.5 15.5q47 0 72.5 -38t20.5 -93v-2q83 -19 119 -3q-13 28 -13 52z
M106 193q5 72 -30 102q-18 19 -40 14.5t-17 -34.5q3 -19 12 -32q22 -28 75 -50zM262 112q-50 -30 -59 -47q-11 -19 10 -35q21 -15 39 -7q17 5 17.5 39t-7.5 50zM253 202q17 20 19 47q2 12 0.5 17.5t-7.5 4.5q-11 -2 -15.5 -27.5t3.5 -41.5z" />
    <glyph glyph-name="ou" horiz-adv-x="482" 
d="M262 104q-23 0 -34 23t-11 52q0 10 6 55q-35 -27 -102 -45q-7 -59 -39 -95q-19 -22 -38 -22q-30 0 -50.5 24t-20.5 54q0 28 17 53q-10 15 -10 35.5t10 34.5q18 23 54 23q40 0 61 -26t17 -70q0 -5 -1 -7q2 0 3 1q65 17 100 47q1 5 5 21q3 5 8 5q16 0 30 -14
q-12 -36 -12 -116q-1 -20 4 -25t12.5 1.5t14.5 20.5q9 16 39 92q6 17 12 28q9 7 22.5 -1t16.5 -15q-1 -5 -4 -20.5t-7 -39t-4 -42t6 -20.5q7 -3 24 6q34 22 73 59l20 20q1 0 5 -2l-21 -21q-51 -47 -78 -61q-25 -13 -39 -0.5t-19.5 35.5t-2.5 48q4 31 4 38q-4 -8 -11.5 -31.5
t-10.5 -31.5q-26 -69 -49 -71zM31 226q6 0 10.5 -7t4.5 -12q-5 -1 -10 -13q26 -16 80 -3q0 67 -26 84q-24 18 -53 6t-23 -52q0 -4 1 -6q7 3 16 3zM115 188q-29 -8 -59 -8q-8 -1 -25 1q-5 -23 -6 -46q0 -21 3 -38q7 -21 21 -19t30 21q29 37 36 89z" />
    <glyph glyph-name="ous" horiz-adv-x="651" 
d="M460 196q-18 31 -18 56q0 18 9 30.5t24 12.5q9 0 14.5 -2t8.5 -6.5t4 -8.5t0 -11t-2.5 -12.5t-5 -13t-5.5 -11.5l-5.5 -11l-4.5 -9q1 -1 3.5 -5t4.5 -6q14 -15 40 -57q33 17 80 37q42 18 45 23q1 -1 3 -1q3 -1 4 -1q-6 -6 -49 -24q-54 -24 -81 -38q11 -24 13.5 -52.5
t-10.5 -51.5t-43 -23q-24 0 -42 13.5t-18 33.5v2q4 30 60 60q-4 16 -6 23q-12 31 -21 49q-60 -60 -83 -76q-24 -18 -36 -13q-41 18 -26 86q9 35 9 38q0 -1 -1.5 -3.5t-3.5 -8t-4 -10.5q-23 -55 -46 -89q-13 -19 -24 -19h-2q-39 9 -39 63q0 19 10 54q-45 -28 -101 -42
q-7 -51 -39 -88q-18 -20 -38 -20q-30 0 -50.5 23t-20.5 52q0 27 17 50q-8 9 -9.5 26t4.5 29q17 31 66 31q38 0 56.5 -24t14.5 -66q0 -5 -1 -8q52 14 102 43l2.5 10t1.5 7q9 7 21 2t17 -10q0 -7 -5 -28t-6 -28q-14 -66 0 -70q10 -3 24 20q21 39 57 119q1 1 5 1q8 1 17.5 -8
t12.5 -16q-3 -21 -14 -60q-16 -53 1 -53q7 1 20 9q30 21 74 67zM25 211q6 -1 10.5 -7.5t4.5 -12.5q-7 -2 -11 -11q30 -16 81 -5q1 5 1 14q2 38 -21 62t-60 6q-28 -15 -22 -42q0 -5 1 -7q10 2 16 3zM24 165q-6 -17 -4.5 -54t15.5 -42q26 -6 48 31t27 71q-3 -1 -5.5 -1
t-5.5 -1q-27 -5 -47 -5q-11 -1 -28 1zM490 116q-42 -25 -54 -45q-11 -22 8 -37q31 -22 43.5 5t5.5 65zM476 216q16 22 20 47q5 24 -8 21q-11 -3 -15.5 -27.5t3.5 -40.5z" />
    <glyph glyph-name="pp" horiz-adv-x="503" 
d="M368 200q17 2 27 -7t9 -24l48 16q48 17 52 20h4q3 -1 3 -3q-3 -4 -26 -11q-13 -5 -41 -13.5t-40 -12.5q-4 -24 -22 -45t-38 -29q-9 -4 -20 -4q-23 -2 -26.5 9t17.5 29q22 17 50 29q7 13 10 27q1 14 -9 14q-40 2 -118 -137q0 4 1 10t2 10q2 3 13.5 21t17.5 27
q-9 -158 -44 -278q-16 -54 -39 -84q-15 -20 -34 -20q-30 0 -30 32q0 16 6 43q32 132 109 256q1 1 1 3q15 77 15 99q-13 -5 -41.5 -15t-41.5 -15q-4 -30 -27 -56t-50 -26q-21 0 -25.5 10t11.5 29q19 22 50 34q6 16 6 34q0 16 -13 16q-23 2 -63 -51q-32 -41 -61 -89
q-9 -215 -53 -276q-17 -24 -40 -24q-33 0 -33 27q0 19 10 46q18 60 55 131q5 10 10 19l10 18q3 35 10.5 98t9.5 84q8 84 13 111q2 6 8 7h4q2 0 6 -2q-3 -19 -4.5 -60.5t-2.5 -92t-2 -72.5l8 11q35 53 65 86q32 36 52 34q46 0 46 -42q30 12 38 15q33 10 46 17q1 29 -2 44
q1 4 8 5h3q4 0 7 -3q4 -21 0 -93q0 -7 -1 -10q57 74 86 74zM248 58q-46 -80 -78 -166q-20 -50 -28 -94q-8 -41 6 -46q21 -8 53.5 110.5t45.5 192.5q0 2 1 3zM-41 -47q-49 -101 -63 -150q-11 -40 1 -44q9 -4 18 5t16 32t12.5 42t11 51.5t7.5 43.5t5 35zM98 104
q-18 -21 -10 -28q9 -7 25 12q1 1 2 3q14 18 25 42q-25 -12 -42 -29zM361 148q-17 -8 -42 -26.5t-12 -24.5q19 -10 54 51z" />
    <glyph glyph-name="rr" horiz-adv-x="367" 
d="M-53 271q0 22 12 37t32 15q33 0 38.5 -30t-11.5 -55q-4 -8 -18 -32q12 -8 29 -21t18 -14q5 -6 -3 -25q-5 -14 -19.5 -45.5t-19.5 -45.5q-13 -32 7 -29q18 1 39 21q49 46 98 111l21 28q-62 40 -62 91q0 20 10.5 33.5t27.5 13.5q20 0 38 -19q30 -28 4 -93l-10 -21
q16 -13 38 -26q12 -12 0 -42q-14 -36 -15 -52q-3 -23 14 -21q15 2 36 20q36 31 120 132h5q-35 -54 -97 -112q-23 -21 -42 -33q-14 -10 -26 -10q-18 0 -32.5 13t-16.5 28q-1 9 3.5 22t9 21.5t12.5 21t9 14.5q-1 1 -22 16q-61 -86 -122 -142q-26 -21 -42 -21q-19 0 -31 13.5
t-12 31.5q0 13 7.5 30.5t14.5 29.5t19 29.5t15 22.5q-3 0 -24 14q-47 32 -52 80zM174 195q38 83 7 102q-17 10 -28 -9.5t-6 -43.5q6 -26 27 -49zM7 312q-23 0 -27 -40q-4 -37 17 -61q24 44 26 60q7 41 -16 41z" />
    <glyph glyph-name="rx" horiz-adv-x="324" 
d="M78 40q-1 12 2.5 27t12.5 33t14.5 27.5t18.5 28.5l12 19q-19 11 -30 19q-14 -23 -51 -61.5t-47 -26.5q-1 1 -1 3t1 4q3 4 8 1q3 -8 28 14q27 27 49 56q3 4 5 7l4 6q-15 11 -27 31t-15 44t18 42q10 10 24 10q21 0 32 -16.5t8 -40.5q-2 -15 -28 -62q19 -22 45 -35
q5 -6 -3 -27q-6 -14 -22 -51.5t-22 -54.5t-4.5 -25t9.5 -7.5t17.5 5.5t19.5 13q25 19 59 54q69 69 111 125q3 0 5 -1q-18 -30 -85 -99q-40 -44 -77 -76q-39 -33 -58 -26q-33 10 -33 40zM112 210q23 35 26 56q4 41 -17 46q-10 2 -16.5 -8t-9.5 -33q-3 -27 17 -61z" />
    <glyph glyph-name="ss" horiz-adv-x="332" 
d="M-43 -39q-44 0 -44 37v2q0 32 32 64q48 48 136 93q48 24 59 40q3 0 6 -1q-8 -14 -50 -35q-88 -45 -140 -93q-24 -21 -32 -44q-13 -33 4 -37t35 15q51 51 38 131q-4 30 -17 63q-22 56 6 84q11 11 23 10q17 0 21.5 -11.5t0 -25t-12.5 -23.5q-14 -18 -23 -27q-1 0 -1 1
q-1 1 -1 3q28 30 33 49q7 27 -9 24q-17 -1 -22 -34q-3 -21 15 -51q15 -27 25 -56.5t10 -67t-18 -64.5q-12 -19 -32.5 -32.5t-41.5 -13.5zM165 8q-28 0 -46.5 14t-21.5 37q0 1 1 2q0 11 6.5 20t12 13t20.5 13q67 40 151 73q45 18 48 22l6 -2q-4 -6 -51 -24q-99 -38 -152 -72
q-65 -40 -24 -70q23 -16 40 -7.5t19 32.5q2 33 -5 61.5t-23.5 64t-20.5 47.5q-5 17 -5 29q0 17 8 29t22 12q16 0 25.5 -11t6.5 -27q-1 -7 -15 -36.5t-19 -27.5q-3 1 13 27q3 6 6.5 15t7 20.5t2.5 19.5t-9 9q-10 0 -15.5 -23.5t1.5 -38.5q6 -14 14 -27.5t21 -32t18 -26.5
q15 -25 17 -56.5t-13 -55t-46 -23.5z" />
    <glyph glyph-name="sx" horiz-adv-x="237" 
d="M64 -32q-40 0 -43 37q0 34 31 65q26 28 57 47q-4 29 -15 62q-23 -32 -64 -67q-26 -22 -33 -18q-4 2 -2 4q0 3 4 5t6 0q2 -8 25 13q33 30 62 68q-1 7 -8 28.5t-7 30t6 29.5q5 9 11 13q8 6 14 6q15 0 22 -12t4 -28q-4 -18 -23 -47q23 -34 34 -63q3 2 30 17t42 25t20 17h7
q-3 -5 -11 -11.5t-20.5 -14.5t-22.5 -13.5t-24.5 -13.5t-19.5 -11v-1q11 -28 9.5 -63t-16.5 -57q-11 -19 -31.5 -33t-42.5 -14h-1zM109 112q-2 -2 -17 -13.5t-20.5 -16t-15.5 -14.5t-16 -19t-9 -19q-12 -33 4 -36.5t35 15.5q43 43 39 103zM109 209q35 69 10 71
q-14 0 -19 -32q-2 -19 9 -39z" />
    <glyph glyph-name="sxx" horiz-adv-x="152" 
d="M42 261q0 -26 -28 -54l7 -14q12 -27 28 -65q11 -25 11 -51q0 -45 -22.5 -80.5t-60.5 -35.5q-25 0 -43.5 16t-18.5 37q0 26 16 37q14 13 33 6t14 -26q-6 -24 -24 -19q-19 6 -15 16q2 6 8 5t6 -8q-7 -4 3 -10q11 -5 15 13q5 21 -22 26q-12 2 -19.5 -6t-9.5 -25
q-3 -25 16.5 -42.5t43.5 -2.5q12 8 22 23q12 23 13.5 59t-6.5 66q-3 11 -14 47.5t-15 57.5q-3 23 4.5 38.5t23.5 17.5h7q24 0 27 -26zM12 212q11 11 20.5 33.5t-5.5 29.5q-16 2 -19 -22t4 -41z" />
    <glyph glyph-name="th" horiz-adv-x="434" 
d="M53 398q-95 -20 -124 -20q-58 0 -76 19q-9 9 -9 16q0 12 11 7q8 -5 4 -10q-7 -3 0 -12q6 -7 33 -12q53 -9 163 19q1 3 9.5 24t14.5 31.5t11 10.5q11 0 15 -13q-11 -37 -13 -45q11 2 31.5 5.5t29.5 4.5l19 1q9 32 24 54q20 34 56 34q33 0 52.5 -19t18.5 -51
q-2 -25 -11 -46q-7 -19 -16 -38.5t-23.5 -40.5t-23 -32.5t-27.5 -36.5t-23 -30q0 -78 10 -156q1 3 10 28.5t13 35.5l12 30t15.5 33.5t15.5 23.5q15 17 30 12t21 -24q4 -11 4 -25q-1 -5 -1.5 -14.5t-0.5 -14.5q-13 -69 -8 -71q8 -2 23 14q29 26 70 85q17 23 19 28q1 -1 6 -1
q-53 -77 -88 -111q-28 -26 -46 -12.5t-18 49.5q0 25 7 69q3 20 -5 20q-8 2 -23 -29q-27 -57 -55 -132q-11 -15 -21 -15h-1q-14 45 -26 143q-1 2 -1 5q-78 -90 -117 -117q-17 -13 -29 -13q-37 0 -37 58v6q1 51 20 117q11 40 17 55q18 58 38 103zM158 276q0 90 12 142
q-4 -1 -12 -1q-14 -1 -68 -11q-52 -158 -69 -231q-29 -106 -9 -112q9 -3 30 14q50 37 97 94q16 18 21 25q-2 52 -2 80zM215 421q63 -8 63 -31v-1q-1 -9 -10 -6q-8 3 -7 11q7 1 -1 11q-9 9 -45 12h-1q-15 -59 -15 -192q9 12 30 39q56 75 79 141q27 75 -21 95q-28 12 -50 -20
q-14 -20 -22 -59z" />
    <glyph glyph-name="tt" horiz-adv-x="349" 
d="M38 352h-9q-52 0 -81 20q-27 20 -27 28v2q2 5 7 5q12 0 10 -11q-15 -2 13 -22t80 -16h10q43 105 45 111q5 5 9 4q8 0 16 -14q-2 -13 -7.5 -29.5t-13 -36.5t-10.5 -30q12 1 115 23q6 22 17 55q4 3 8 5q9 0 17 -13q-1 -3 -2 -10t-3 -15.5t-4 -16.5q100 11 128 -6
q16 -11 16 -17q0 -9 -10.5 -5.5t-7.5 11.5q1 1 1 2.5t-2.5 4t-6.5 4.5q-22 7 -56.5 6t-62.5 -6q-3 -18 -14.5 -86.5t-17.5 -117.5t-8 -92q-3 -67 15 -72q12 -1 38 29q73 90 107 157h7q-19 -36 -56 -89q-29 -42 -55 -72q-27 -30 -42 -30h-3q-44 9 -44 109v22l3 45
q-58 -73 -111 -120q-26 -23 -42 -23q-32 0 -32 51v8q5 84 56 222zM166 371q-43 -13 -89 -17q-50 -141 -74 -251q-10 -49 0 -53q10 -2 31 15q44 36 101 103q17 19 23 29q12 106 35 182q-7 -2 -13.5 -4t-13.5 -4z" />
    <glyph glyph-name="tx" horiz-adv-x="150" 
d="M-103 377q0 2 7 9q4 0 6.5 -6t-1.5 -8q-12 3 3 -18q28 -36 118 -18q1 3 31 79q3 4 7 4q11 0 17 -14q-9 -29 -18 -60q52 13 88 12q37 -2 44 -10q7 -7 7 -12q0 -9 -9 -5q-10 4 -5 9q7 3 -1 9q-6 5 -31 7q-39 0 -95 -18q-2 -8 -3.5 -15.5t-3.5 -15.5q-26 -96 -36 -183
q-4 -32 -4 -67q0 -137 75 -151q19 -3 36 6q16 10 8 14q0 11 10 6q5 -3 3 -5q0 -8 -17 -16t-30 -8q-63 0 -93.5 48.5t-30.5 123.5q0 87 34 202q13 46 15 52q-26 -2 -38 -2q-66 0 -84 28q-9 15 -9 23z" />
    <glyph glyph-name="ty" horiz-adv-x="405" 
d="M-76 404q0 7 7 7q4 1 6.5 -5.5t-1.5 -7.5q-9 2 -4 -7q2 -5 8 -12q24 -31 92 -24q13 34 30 87q4 7 13 7h1q9 0 14 -8q0 -11 -19 -78l22 8q55 20 90 19q36 -2 44 -11q6 -6 6 -12q0 -12 -10 -5q-7 4 -3 8q7 3 -1 10q-6 6 -31 8q-35 0 -85 -22q-16 -7 -35 -12q-2 -10 -20 -80
t-26 -105q-9 -40 -9 -76q-1 -31 10 -36.5t32 13.5q63 54 119 132q-1 9 -7 10q4 8 17 20.5t19 3.5q12 -17 2 -61q-11 -48 4 -47q7 1 17 14q9 13 61 117q12 8 21 7h1q11 0 15 -10q-6 -10 -10 -28t-5 -32t-2.5 -39t-2.5 -35q11 8 20 13q65 41 83 66l6 -2q-11 -14 -29 -28
t-43.5 -31t-36.5 -25q-2 -30 -13 -129q-13 -142 -78 -198q-28 -23 -62 -23q-33 1 -55 35t-22 74q0 34 15 59q24 49 106 112q27 21 72 53q3 25 9 71q8 70 10 79q-2 -2 -12 -25q-27 -63 -48 -88q-17 -16 -30 -11t-21 22q-8 21 -1 46q-74 -94 -117 -127q-19 -15 -33 -15h-3
q-38 8 -38 65v8q4 87 47 226h-11q-63 0 -84 30q-11 17 -11 25zM191 35q-67 -48 -96 -103q-17 -31 -14 -70.5t24 -64.5q15 -18 34.5 -20.5t35.5 12.5q17 18 29.5 42t22.5 64.5t14.5 58.5t13.5 74t10 61q-8 -6 -34 -24.5t-40 -29.5z" />
    <glyph glyph-name="yx" horiz-adv-x="202" 
d="M-148 -68q0 33 22.5 50.5t53.5 3.5q13 -5 18.5 -16.5t-0.5 -27.5q-7 -15 -23.5 -16.5t-24.5 13.5q-5 13 4 19q4 3 8 -3q3 -6 -2 -11q-4 1 -5 -0.5t0 -5.5q3 -8 13 -8q21 -2 18 29q-3 30 -33 30t-39 -41q-10 -43 15.5 -73.5t71.5 -30.5q44 -2 77 49q12 20 22 48t16 52
t12 63.5t8.5 60t7 66.5t6.5 60q-1 -1 -10 -22q-17 -47 -40 -76q-11 -14 -25.5 -12.5t-20.5 16.5q-8 20 -7 39q1 22 -7 27q1 8 13.5 18t20.5 5q12 -7 6 -53q-7 -46 4 -48q11 0 32 45q30 60 34 72q7 7 14 6q16 0 22 -14q-12 -16 -16 -86q-3 -54 -9 -124q-10 -126 -82 -177
q-29 -19 -76 -19h-3q-41 0 -68.5 26t-27.5 66z" />
    </font>
</defs>
</svg>
